<svg  viewBox="0 0 143 156" fill="none" xmlns="http://www.w3.org/2000/svg">
<path opacity="0.3" d="M74.9048 155.484C112.513 155.484 143 124.743 143 86.8214C143 48.9 112.513 18.1587 74.9048 18.1587C37.2968 18.1587 6.80951 48.9 6.80951 86.8214C6.80951 124.743 37.2968 155.484 74.9048 155.484Z" fill="#1A73E8"/>
<path d="M45.5503 0L0 54.8952L67.4144 133.921L112.357 81.4384L45.5503 0Z" fill="#1A73E8"/>
<path opacity="0.1" d="M45.5503 0L0 54.8952L67.4144 133.921L112.357 81.4384L45.5503 0Z" fill="black"/>
<path d="M3.40479 55.5357C4.40049 53.7285 5.63522 52.0662 7.07502 50.5945L48.4197 8.33177C48.4197 8.33177 62.8244 5.91106 65.8254 13.1732L13.008 56.746L3.40479 55.5357Z" fill="#F2F2F2"/>
<path d="M0 54.6071L62.353 148.399C62.353 148.399 68.466 152.607 74.5791 150.202L138.46 107.816L70.6056 6.80957L9.47522 53.7053L0 54.6071Z" fill="#1A73E8"/>
<path d="M63.0671 21.4433L24.2362 49.3464L24.8099 50.1449L63.6408 22.2417L63.0671 21.4433Z" fill="#3F3D56"/>
<path d="M23.7216 59.7902L22.9015 60.3326L73.8629 137.382L74.683 136.839L23.7216 59.7902Z" fill="#3F3D56"/>
<path d="M121.298 108.801L80.0528 139.147L80.6357 139.939L121.881 109.593L121.298 108.801Z" fill="#3F3D56"/>
<path d="M70.4296 22.7732L69.6228 23.3347L122.404 99.1698L123.211 98.6083L70.4296 22.7732Z" fill="#3F3D56"/>
<path d="M54.1261 7.8921L6.11945 51.9513L6.52943 52.398L54.5361 8.33881L54.1261 7.8921Z" fill="#3F3D56"/>
<path d="M58.1251 8.26971L7.9519 52.5632L8.35359 53.0182L58.5268 8.72472L58.1251 8.26971Z" fill="#3F3D56"/>
<path d="M61.2636 9.15247L9.17926 52.5671L9.56791 53.0334L61.6523 9.61873L61.2636 9.15247Z" fill="#3F3D56"/>
</svg>
