<svg width="327" height="276" viewBox="0 0 327 276" fill="none" xmlns="http://www.w3.org/2000/svg">
<path d="M322.402 199.322L204.922 211.141L87.4415 199.322C86.9482 199.272 86.491 199.041 86.1584 198.673C85.8259 198.306 85.6417 197.827 85.6417 197.332L82.8733 189.235L85.6417 56.5806L204.922 68.5806L324.202 56.5806L326.833 190.315L324.202 197.332C324.202 197.828 324.018 198.306 323.685 198.673C323.352 199.041 322.895 199.272 322.402 199.322V199.322Z" fill="#E06714"/>
<path d="M326.833 190.315L204.922 202.08L82.8733 189.235L85.6417 49.7314C85.6417 49.4518 85.7003 49.1754 85.8137 48.9199C85.9271 48.6644 86.0928 48.4355 86.3001 48.248C86.5075 48.0605 86.7518 47.9186 87.0173 47.8313C87.2829 47.744 87.5638 47.7134 87.8419 47.7414L204.922 59.5201L322.002 47.7414C322.28 47.7134 322.561 47.7441 322.826 47.8313C323.092 47.9186 323.336 48.0606 323.543 48.2481C323.751 48.4356 323.916 48.6645 324.03 48.92C324.143 49.1755 324.202 49.4519 324.202 49.7314L326.833 190.315Z" fill="#EE781D"/>
<path d="M203.961 192.72L321.193 181.315L316.304 48.314L212.712 58.736L203.961 192.72Z" fill="#E06714"/>
<path d="M203.961 43.92L306.441 32.4L311.188 182.288L203.961 192.72V43.92Z" fill="#E06714"/>
<path d="M209.721 42.96L101.961 41.04L107.721 186.96L203.961 192.72L209.721 42.96Z" fill="#E06714"/>
<path d="M204.921 36L307.401 24.48L314.601 174.72L204.921 184.8V36Z" fill="#F9AE2B"/>
<path d="M204.921 179.826V184.8L314.601 174.72L314.364 169.768L204.921 179.826Z" fill="#E59413"/>
<path d="M204.921 36L97.1614 34.08L102.921 180L204.921 184.8V36Z" fill="#F9AE2B"/>
<path d="M102.921 180L204.921 184.8V179.676L102.921 174.875V180Z" fill="#E59413"/>
<path d="M109.707 131.315C110.015 143.045 114.131 154.356 121.434 163.539C128.737 172.723 138.83 179.282 150.188 182.224L195.081 184.337V42.24C195.081 42.24 161.161 44.6485 125.989 34.5935L107.169 34.2583L109.707 131.315ZM262.163 179.539C273.244 171.633 282.16 161.068 288.092 148.816C294.023 136.563 296.779 123.017 296.107 109.421L291.995 26.2118L267.142 29.0056C244.422 40.5084 216.639 47.7178 216.639 47.7178V183.723L262.163 179.539Z" fill="#E59413"/>
<path d="M204.922 36C204.922 36 262.282 21.12 279.562 0L284.39 97.7032C285.326 116.643 279.605 135.313 268.22 150.477C256.834 165.641 240.501 176.344 222.052 180.728L204.922 184.8V36Z" fill="#F9AE2B"/>
<path d="M220.17 36L204.922 184.8C204.922 184.8 224.339 183.333 225.861 182.876C242.911 167.235 252.619 140.956 250.305 117.61L241.012 23.831C234.841 26.3631 228.793 28.5548 223.462 30.3533C221.506 33.7533 220.17 36 220.17 36Z" fill="#E59413"/>
<path d="M204.922 36C204.922 36 221.482 8.16 223.402 0L235.057 117.61C236.331 130.465 234.219 143.43 228.933 155.217C223.647 167.003 215.369 177.202 204.922 184.8V184.8L204.922 36ZM204.922 36C204.922 36 157.642 39.36 116.842 21.6L119.547 125.075C119.869 137.383 124.381 149.211 132.339 158.606C140.296 168 151.222 174.397 163.308 176.738L204.922 184.8V36Z" fill="#F9AE2B"/>
<path d="M204.921 36C205.749 48.4 206.182 60.8 206.476 73.2C206.66 79.4 206.701 85.6 206.81 91.8L206.92 110.4L206.815 129C206.704 135.2 206.668 141.4 206.482 147.6C206.189 160 205.754 172.4 204.922 184.8C204.089 172.4 203.654 160 203.361 147.6C203.175 141.4 203.139 135.2 203.028 129L202.923 110.4L203.033 91.8C203.142 85.6 203.183 79.4 203.367 73.2C203.661 60.8 204.094 48.4 204.921 36ZM135.073 56.955C140.116 57.3816 145.062 57.9887 150.006 58.5695L164.78 60.3387C169.697 60.9175 174.611 61.4008 179.544 61.8833C184.482 62.3534 189.419 62.6443 194.473 63.075C189.549 64.2648 184.51 64.9193 179.446 65.027C174.394 65.1372 169.34 64.898 164.321 64.3111C159.314 63.7236 154.346 62.8361 149.445 61.6533C144.529 60.4991 139.721 58.9273 135.073 56.955ZM135.073 78.3104C140.116 78.737 145.062 79.3441 150.006 79.9249L164.78 81.6941C169.697 82.2729 174.611 82.7562 179.544 83.2387C184.482 83.7088 189.419 83.9997 194.473 84.4304C189.549 85.6202 184.51 86.2747 179.446 86.3824C174.394 86.4926 169.34 86.2534 164.321 85.6665C159.314 85.0791 154.346 84.1915 149.445 83.0087C144.529 81.8545 139.721 80.2827 135.073 78.3104V78.3104ZM135.073 99.6659C140.116 100.092 145.062 100.7 150.006 101.28L164.78 103.05C169.697 103.628 174.611 104.112 179.544 104.594C184.482 105.064 189.419 105.355 194.473 105.786C189.549 106.976 184.51 107.63 179.446 107.738C174.394 107.848 169.34 107.609 164.321 107.022C159.314 106.435 154.346 105.547 149.445 104.364C144.529 103.21 139.721 101.638 135.073 99.6659V99.6659ZM135.073 121.021C140.116 121.448 145.062 122.055 150.006 122.636L164.78 124.405C169.697 124.984 174.611 125.467 179.544 125.95C184.482 126.42 189.419 126.711 194.473 127.141C189.549 128.331 184.51 128.986 179.446 129.093C174.394 129.204 169.34 128.964 164.321 128.377C159.314 127.79 154.346 126.902 149.445 125.72C144.529 124.565 139.721 122.994 135.073 121.021V121.021ZM135.073 142.377C140.116 142.803 145.062 143.411 150.006 143.991L164.78 145.761C169.697 146.339 174.611 146.823 179.544 147.305C184.482 147.775 189.419 148.066 194.473 148.497C189.549 149.687 184.51 150.341 179.446 150.449C174.394 150.559 169.34 150.32 164.321 149.733C159.314 149.146 154.346 148.258 149.445 147.075C144.529 145.921 139.721 144.349 135.073 142.377V142.377Z" fill="#E59413"/>
<path d="M276.285 59.8127L252.988 63.7415C252.73 63.7916 252.465 63.7904 252.207 63.7379C251.95 63.6855 251.706 63.5829 251.488 63.4359C251.27 63.289 251.084 63.1006 250.939 62.8816C250.794 62.6625 250.693 62.4171 250.643 62.1592L249.871 45.331C249.821 45.0731 249.822 44.808 249.874 44.5506C249.927 44.2933 250.029 44.0487 250.176 43.831C250.323 43.6133 250.512 43.4267 250.731 43.2818C250.95 43.1369 251.195 43.0366 251.453 42.9865L275.049 38.1372C275.307 38.0871 275.572 38.0884 275.829 38.1408C276.086 38.1932 276.331 38.2958 276.549 38.4428C276.766 38.5897 276.953 38.7781 277.098 38.9971C277.243 39.2162 277.343 39.4616 277.393 39.7195L277.867 57.4682C277.968 57.9889 277.858 58.5285 277.561 58.9681C277.264 59.4078 276.805 59.7116 276.285 59.8127ZM263.059 101.273L239.762 105.202C239.505 105.252 239.239 105.251 238.982 105.199C238.725 105.146 238.48 105.044 238.262 104.897C238.045 104.75 237.858 104.561 237.713 104.342C237.568 104.123 237.468 103.878 237.418 103.62L236.645 86.7916C236.544 86.2709 236.654 85.7314 236.951 85.2917C237.248 84.852 237.707 84.5483 238.228 84.4472L261.823 79.5978C262.081 79.5478 262.346 79.549 262.604 79.6014C262.861 79.6539 263.105 79.7565 263.323 79.9034C263.541 80.0503 263.727 80.2387 263.872 80.4578C264.017 80.6768 264.118 80.9223 264.168 81.1801L264.641 98.9289C264.691 99.1867 264.69 99.4519 264.638 99.7092C264.585 99.9666 264.483 100.211 264.336 100.429C264.189 100.646 264 100.833 263.781 100.978C263.562 101.123 263.317 101.223 263.059 101.273Z" fill="#EE781D"/>
<path d="M238.228 84.4471C237.707 84.5482 237.248 84.852 236.951 85.2916C236.654 85.7313 236.544 86.2708 236.645 86.7915L237.418 103.62C237.519 104.141 237.823 104.6 238.262 104.897C238.702 105.193 239.242 105.303 239.762 105.202L248.922 103.657L246.843 82.6765L238.228 84.4471Z" fill="#CE800D"/>
<path d="M272.177 142.734L248.881 146.663C248.36 146.764 247.82 146.654 247.381 146.357C246.941 146.06 246.637 145.601 246.536 145.081L245.763 128.252C245.713 127.994 245.715 127.729 245.767 127.472C245.82 127.215 245.922 126.97 246.069 126.752C246.216 126.535 246.404 126.348 246.623 126.203C246.842 126.058 247.088 125.958 247.346 125.908L270.941 121.058C271.199 121.008 271.464 121.01 271.722 121.062C271.979 121.114 272.224 121.217 272.441 121.364C272.659 121.511 272.846 121.699 272.991 121.918C273.135 122.137 273.236 122.383 273.286 122.641L273.76 140.389C273.81 140.647 273.808 140.912 273.756 141.17C273.703 141.427 273.601 141.672 273.454 141.889C273.307 142.107 273.119 142.294 272.9 142.439C272.681 142.584 272.435 142.684 272.177 142.734V142.734Z" fill="#EE781D"/>
<path d="M247.346 125.908C246.825 126.009 246.366 126.313 246.069 126.752C245.772 127.192 245.662 127.731 245.763 128.252L246.536 145.081C246.592 145.366 246.711 145.636 246.883 145.871C247.055 146.105 247.276 146.299 247.531 146.439C249.498 139.538 250.54 132.407 250.632 125.232L247.346 125.908Z" fill="#CE800D"/>
<path d="M80.8346 172.624L65.0427 163.617L56.0356 179.408L71.8274 188.416L80.8346 172.624Z" fill="#DBE8EC"/>
<path d="M141.117 168.555C151.037 161.075 158.515 150.821 162.608 139.091C166.7 127.361 167.222 114.68 164.108 102.653C160.994 90.6257 154.383 79.7921 145.112 71.5218C135.841 63.2516 124.325 57.9162 112.022 56.1903C99.7186 54.4644 87.1797 56.4255 75.9909 61.8256C64.8021 67.2258 55.4658 75.8224 49.1626 86.5285C42.8593 97.2346 39.8723 109.569 40.5791 121.973C41.2859 134.377 45.6548 146.292 53.1334 156.213C58.0994 162.801 64.3146 168.347 71.4241 172.533C78.5337 176.719 86.3982 179.464 94.5685 180.61C102.739 181.756 111.055 181.281 119.042 179.213C127.029 177.144 134.53 173.523 141.117 168.555ZM62.9125 148.849C56.8883 140.862 53.3681 131.268 52.797 121.28C52.2258 111.292 54.6294 101.359 59.7038 92.7369C64.7781 84.115 72.2953 77.1915 81.3046 72.842C90.314 68.4925 100.411 66.9124 110.318 68.3016C120.226 69.6907 129.499 73.9866 136.964 80.646C144.43 87.3055 149.753 96.0293 152.261 105.714C154.769 115.399 154.348 125.61 151.052 135.056C147.756 144.502 141.733 152.758 133.744 158.781C123.034 166.854 109.555 170.343 96.2722 168.48C82.9895 166.618 70.9902 159.557 62.9125 148.849V148.849Z" fill="#3086A3"/>
<path opacity="0.76" d="M103.295 168.977C131.23 168.977 153.875 146.332 153.875 118.397C153.875 90.4625 131.23 67.817 103.295 67.817C75.3605 67.817 52.7151 90.4625 52.7151 118.397C52.7151 146.332 75.3605 168.977 103.295 168.977Z" fill="white"/>
<path d="M139.408 120.617C138.926 128.453 135.909 135.919 130.812 141.889C125.715 147.859 118.814 152.01 111.151 153.714C103.488 155.419 95.4788 154.585 88.3316 151.338C81.1843 148.091 75.287 142.607 71.5295 135.715" stroke="#DBE8EC" stroke-width="10" stroke-miterlimit="10"/>
<path d="M76.6012 191.087L51.3064 176.66C50.3469 176.113 49.1255 176.447 48.5782 177.406L11.581 242.272C11.0337 243.231 11.3679 244.453 12.3273 245L37.6221 259.427C38.5816 259.975 39.8031 259.641 40.3503 258.681L77.3476 193.815C77.8948 192.856 77.5606 191.634 76.6012 191.087Z" fill="#3086A3"/>
<path d="M40.3497 258.681L77.347 193.815C77.4771 193.587 77.5611 193.335 77.594 193.075C77.6269 192.814 77.6082 192.55 77.5389 192.296C77.4696 192.043 77.351 191.806 77.19 191.598C77.029 191.391 76.8287 191.217 76.6006 191.087L70.3097 187.499C70.7703 187.762 71.1076 188.197 71.2475 188.708C71.3874 189.22 71.3184 189.766 71.0557 190.227L34.0584 255.093C33.9283 255.321 33.7545 255.521 33.547 255.682C33.3395 255.843 33.1023 255.962 32.849 256.031C32.5956 256.1 32.3311 256.119 32.0706 256.086C31.81 256.053 31.5585 255.969 31.3303 255.839L37.6216 259.427C37.8497 259.558 38.1013 259.641 38.3618 259.674C38.6224 259.707 38.8869 259.689 39.1402 259.619C39.3935 259.55 39.6308 259.431 39.8383 259.27C40.0458 259.109 40.2196 258.909 40.3497 258.681V258.681Z" fill="#25788E"/>
<path d="M17.6638 245.742L54.661 180.876C54.7911 180.648 54.9649 180.447 55.1725 180.286C55.38 180.125 55.6172 180.007 55.8705 179.938C56.1239 179.868 56.3884 179.85 56.6489 179.882C56.9095 179.915 57.161 179.999 57.3892 180.129L64.3769 184.115L51.3057 176.66C50.845 176.397 50.2987 176.328 49.7871 176.468C49.2755 176.608 48.8404 176.945 48.5776 177.406L11.5803 242.272C11.3175 242.733 11.2486 243.279 11.3885 243.791C11.5285 244.302 11.8659 244.737 12.3267 245L18.4101 248.47C18.182 248.34 17.9817 248.166 17.8207 247.958C17.6597 247.751 17.5412 247.514 17.4719 247.26C17.4026 247.007 17.3839 246.743 17.4168 246.482C17.4497 246.221 17.5337 245.97 17.6638 245.742V245.742Z" fill="#409CB5"/>
<path d="M25.3982 252.455L37.6212 259.427H37.6222L25.3982 252.455Z" fill="#409CB5"/>
<path d="M12.1994 238.781L43.0394 256.371C43.5002 256.634 43.8377 257.069 43.9776 257.581C44.1176 258.092 44.0486 258.639 43.7858 259.099L40.8419 264.261C39.1108 267.296 36.2448 269.519 32.8744 270.441C29.5041 271.363 25.9055 270.909 22.8703 269.178L11.4442 262.661C9.94136 261.803 8.62204 260.659 7.56159 259.291C6.50114 257.924 5.72036 256.362 5.26379 254.693C4.80722 253.024 4.68381 251.282 4.90063 249.565C5.11744 247.849 5.67022 246.192 6.52741 244.689L9.47126 239.528C9.73406 239.067 10.1691 238.729 10.6808 238.589C11.1924 238.449 11.7387 238.518 12.1994 238.781L12.1994 238.781Z" fill="#DBE8EC"/>
<path d="M12.5079 248.145L15.4517 242.984C15.7145 242.523 16.1496 242.185 16.6612 242.045C17.1729 241.905 17.7192 241.974 18.1799 242.237L43.356 256.597C43.258 256.511 43.1519 256.436 43.0393 256.371L12.1993 238.781C11.7386 238.518 11.1923 238.449 10.6806 238.589C10.169 238.729 9.73393 239.067 9.47111 239.527L6.52723 244.689C4.79611 247.724 4.3416 251.323 5.2637 254.693C6.18579 258.063 8.40895 260.929 11.4441 262.66L16.7731 265.7C13.9571 263.87 11.9469 261.033 11.154 257.769C10.3611 254.506 10.8454 251.063 12.5079 248.145V248.145Z" fill="#E8EEEF"/>
<path d="M40.8416 264.261L43.7855 259.099C44.0483 258.639 44.1173 258.092 43.9773 257.581C43.8373 257.069 43.4999 256.634 43.0392 256.371L36.7209 252.767C37.1799 253.031 37.5157 253.466 37.6547 253.977C37.7936 254.487 37.7244 255.032 37.4622 255.492L34.5184 260.653C32.7873 263.688 29.9213 265.912 26.5509 266.834C23.1806 267.756 19.582 267.301 16.5468 265.57L11.4333 262.654L11.444 262.66L22.8702 269.177C24.373 270.035 26.03 270.587 27.7465 270.804C29.463 271.021 31.2054 270.898 32.8742 270.441C34.543 269.985 36.1055 269.204 37.4726 268.143C38.8397 267.083 39.9845 265.764 40.8416 264.261V264.261Z" fill="#BAD5DB"/>
</svg>
