<svg  viewBox="0 0 191 191" fill="none" xmlns="http://www.w3.org/2000/svg">
<path d="M118.1 95.45L186.3 27.25C192.5 21.05 192.5 10.85 186.3 4.65C180.1 -1.55 169.9 -1.55 163.7 4.65L95.5 72.85L27.3 4.65C21.1 -1.55 10.9 -1.55 4.7 4.65C1.6 7.75 0 11.85 0 15.95C0 20.05 1.6 24.15 4.7 27.25L72.9 95.45L4.7 163.65C1.6 166.75 0 170.85 0 174.95C0 179.05 1.6 183.15 4.7 186.25C10.9 192.45 21.1 192.45 27.3 186.25L95.5 118.05L163.7 186.25C169.9 192.45 180.1 192.45 186.3 186.25C192.5 180.05 192.5 169.85 186.3 163.65L118.1 95.45Z" fill="#042550"/>
</svg>
