
<svg width="4000" height="573" fill="none" xmlns="http://www.w3.org/2000/svg"><mask id="bg-a" mask-type="alpha" maskUnits="userSpaceOnUse" x="0" y="0" width="4000" height="573"><path fill="#C4C4C4" d="M0 0h4000v573H0z"/></mask><g mask="url(#bg-a)"><path opacity=".4" d="M2595.64 594.105c14.87-6.509 29.03-14.316 42.43-23.499C2842.19 430.716 3393.5 283 4035 591.5h-933.26l-506.1 2.605c-83.01 36.355-187.87 32.242-304.06 1.565l-646.9 3.33H-3.5V200.5c197-122.5001 1126.5-250.9998 1743 132 186.19 115.671 381.36 218.095 552.08 263.17l304.06-1.565Z" fill="url(#bg-b)" fill-opacity=".9"/><path d="M2291 202.5C2924.5-281.889 3339.5 344 4059.5 489.499L4182.5 645l-3124-15.5c-589 15.511-98.5-9.309-98.5-39.991 0 0 295.5-281.645 761.5-100.01C2032.82 610.842 2100.11 348.458 2291 202.5Z" fill="url(#bg-c)"/><path d="M2291 202.5C2924.5-281.889 3339.5 344 4059.5 489.499L4182.5 645l-3124-15.5c-589 15.511-98.5-9.309-98.5-39.991 0 0 295.5-281.645 761.5-100.01C2032.82 610.842 2100.11 348.458 2291 202.5Z" fill="url(#bg-d)"/><path opacity=".4" d="m1964.42 615 251.84 65.477 560.84-14.536h346.11S4070.4 667.265 4048 634.5C3733.5 174.522 2656.42 178 2269.42 530c-100.23 91.16-305 85-305 85Z" fill="url(#bg-e)" fill-opacity=".9"/><path opacity=".35" d="M1985.96 610.538c-23.36-1.629-52.37-1.758-93.04.962l93.04-.962C2048.45 614.897 2070.45 630 2167 630c54.43 0 104.44-8.671 150.01-22.888l542.41-5.612 1272.08 10s59.95-305.218-97-365.5c-962-369.5-1185.99-82.909-1406.5 146-51.44 53.395-155.37 166.574-310.99 215.112l-331.05 3.426Z" fill="#592893"/><ellipse opacity=".2" cx="2628.05" cy="286.273" rx="317.053" ry="317.273" fill="url(#bg-f)"/><ellipse opacity=".5" cx="2521.11" cy="716.671" rx="814.105" ry="814.671" fill="url(#bg-g)"/><ellipse opacity=".5" cx="1342" cy="852.5" rx="501" ry="501.5" fill="url(#bg-h)"/><ellipse opacity=".2" cx="3463.5" cy="453" rx="630.5" ry="631" fill="url(#bg-i)"/><path fill-rule="evenodd" clip-rule="evenodd" d="M2508.32 293.315c0-1.61 1.3-2.915 2.91-2.915s2.91 1.305 2.91 2.915-1.3 2.915-2.91 2.915-2.91-1.305-2.91-2.915ZM2508.32 272.911c0-1.61 1.3-2.915 2.91-2.915s2.91 1.305 2.91 2.915c0 1.609-1.3 2.914-2.91 2.914s-2.91-1.305-2.91-2.914ZM2508.32 252.508c0-1.61 1.3-2.915 2.91-2.915s2.91 1.305 2.91 2.915-1.3 2.915-2.91 2.915-2.91-1.305-2.91-2.915ZM2508.32 232.103c0-1.61 1.3-2.915 2.91-2.915s2.91 1.305 2.91 2.915-1.3 2.915-2.91 2.915-2.91-1.305-2.91-2.915ZM2487.95 293.315c0-1.61 1.3-2.915 2.91-2.915s2.91 1.305 2.91 2.915-1.3 2.915-2.91 2.915-2.91-1.305-2.91-2.915ZM2487.95 272.911c0-1.61 1.3-2.915 2.91-2.915s2.91 1.305 2.91 2.915c0 1.609-1.3 2.914-2.91 2.914s-2.91-1.305-2.91-2.914ZM2487.95 252.508c0-1.61 1.3-2.915 2.91-2.915s2.91 1.305 2.91 2.915-1.3 2.915-2.91 2.915-2.91-1.305-2.91-2.915ZM2467.58 293.315c0-1.61 1.3-2.915 2.91-2.915s2.91 1.305 2.91 2.915-1.3 2.915-2.91 2.915-2.91-1.305-2.91-2.915ZM2467.58 272.911c0-1.61 1.3-2.915 2.91-2.915s2.91 1.305 2.91 2.915c0 1.609-1.3 2.914-2.91 2.914s-2.91-1.305-2.91-2.914ZM2447.21 293.315c0-1.61 1.3-2.915 2.91-2.915 1.6 0 2.91 1.305 2.91 2.915s-1.31 2.915-2.91 2.915c-1.61 0-2.91-1.305-2.91-2.915ZM2447.21 272.911c0-1.61 1.3-2.915 2.91-2.915 1.6 0 2.91 1.305 2.91 2.915 0 1.609-1.31 2.914-2.91 2.914-1.61 0-2.91-1.305-2.91-2.914ZM2528.69 232.103c0-1.61 1.3-2.915 2.91-2.915s2.91 1.305 2.91 2.915-1.3 2.915-2.91 2.915-2.91-1.305-2.91-2.915ZM2528.69 252.508c0-1.61 1.3-2.915 2.91-2.915s2.91 1.305 2.91 2.915-1.3 2.915-2.91 2.915-2.91-1.305-2.91-2.915ZM2528.69 272.911c0-1.61 1.3-2.915 2.91-2.915s2.91 1.305 2.91 2.915c0 1.609-1.3 2.914-2.91 2.914s-2.91-1.305-2.91-2.914ZM2528.69 293.315c0-1.61 1.3-2.915 2.91-2.915s2.91 1.305 2.91 2.915-1.3 2.915-2.91 2.915-2.91-1.305-2.91-2.915ZM2549.06 232.103c0-1.61 1.3-2.915 2.91-2.915 1.6 0 2.91 1.305 2.91 2.915s-1.31 2.915-2.91 2.915c-1.61 0-2.91-1.305-2.91-2.915ZM2549.06 252.508c0-1.61 1.3-2.915 2.91-2.915 1.6 0 2.91 1.305 2.91 2.915s-1.31 2.915-2.91 2.915c-1.61 0-2.91-1.305-2.91-2.915ZM2589.8 185.466c0-1.61 1.3-2.915 2.91-2.915s2.91 1.305 2.91 2.915-1.3 2.915-2.91 2.915-2.91-1.305-2.91-2.915ZM2589.8 144.659c0-1.61 1.3-2.915 2.91-2.915s2.91 1.305 2.91 2.915-1.3 2.915-2.91 2.915-2.91-1.305-2.91-2.915ZM2569.43 165.063c0-1.61 1.3-2.915 2.91-2.915s2.91 1.305 2.91 2.915-1.3 2.915-2.91 2.915-2.91-1.305-2.91-2.915ZM2549.06 272.911c0-1.61 1.3-2.915 2.91-2.915 1.6 0 2.91 1.305 2.91 2.915 0 1.609-1.31 2.914-2.91 2.914-1.61 0-2.91-1.305-2.91-2.914ZM2569.43 232.103c0-1.61 1.3-2.915 2.91-2.915s2.91 1.305 2.91 2.915-1.3 2.915-2.91 2.915-2.91-1.305-2.91-2.915ZM2569.43 252.508c0-1.61 1.3-2.915 2.91-2.915s2.91 1.305 2.91 2.915-1.3 2.915-2.91 2.915-2.91-1.305-2.91-2.915ZM2589.8 232.103c0-1.609 1.3-2.914 2.91-2.914s2.91 1.305 2.91 2.914c0 1.61-1.3 2.915-2.91 2.915s-2.91-1.305-2.91-2.915ZM2589.8 252.507c0-1.61 1.3-2.915 2.91-2.915s2.91 1.305 2.91 2.915-1.3 2.915-2.91 2.915-2.91-1.305-2.91-2.915ZM2528.69 313.211c0-1.61 1.3-2.915 2.91-2.915s2.91 1.305 2.91 2.915c0 1.609-1.3 2.914-2.91 2.914s-2.91-1.305-2.91-2.914ZM2528.69 333.614c0-1.609 1.3-2.914 2.91-2.914s2.91 1.305 2.91 2.914c0 1.61-1.3 2.915-2.91 2.915s-2.91-1.305-2.91-2.915ZM2549.06 292.807c0-1.61 1.3-2.915 2.91-2.915 1.6 0 2.91 1.305 2.91 2.915s-1.31 2.915-2.91 2.915c-1.61 0-2.91-1.305-2.91-2.915ZM2549.06 313.211c0-1.61 1.3-2.915 2.91-2.915 1.6 0 2.91 1.305 2.91 2.915 0 1.609-1.31 2.914-2.91 2.914-1.61 0-2.91-1.305-2.91-2.914ZM2549.06 333.614c0-1.609 1.3-2.914 2.91-2.914 1.6 0 2.91 1.305 2.91 2.914 0 1.61-1.31 2.915-2.91 2.915-1.61 0-2.91-1.305-2.91-2.915ZM2569.43 292.807c0-1.61 1.3-2.915 2.91-2.915s2.91 1.305 2.91 2.915-1.3 2.915-2.91 2.915-2.91-1.305-2.91-2.915ZM2569.43 313.211c0-1.61 1.3-2.915 2.91-2.915s2.91 1.305 2.91 2.915c0 1.609-1.3 2.914-2.91 2.914s-2.91-1.305-2.91-2.914ZM2589.8 292.807c0-1.61 1.3-2.915 2.91-2.915s2.91 1.305 2.91 2.915-1.3 2.915-2.91 2.915-2.91-1.305-2.91-2.915ZM2589.8 313.211c0-1.61 1.3-2.915 2.91-2.915s2.91 1.305 2.91 2.915c0 1.609-1.3 2.914-2.91 2.914s-2.91-1.305-2.91-2.914ZM2509.11 350.416c0-1.61 1.3-2.915 2.91-2.915s2.91 1.305 2.91 2.915-1.3 2.915-2.91 2.915-2.91-1.305-2.91-2.915ZM2509.11 370.82c0-1.61 1.3-2.915 2.91-2.915s2.91 1.305 2.91 2.915-1.3 2.915-2.91 2.915-2.91-1.305-2.91-2.915ZM2509.11 391.224c0-1.61 1.3-2.915 2.91-2.915s2.91 1.305 2.91 2.915-1.3 2.915-2.91 2.915-2.91-1.305-2.91-2.915ZM2529.47 350.416c0-1.61 1.31-2.915 2.91-2.915 1.61 0 2.91 1.305 2.91 2.915s-1.3 2.915-2.91 2.915c-1.6 0-2.91-1.305-2.91-2.915ZM2529.47 370.82c0-1.61 1.31-2.915 2.91-2.915 1.61 0 2.91 1.305 2.91 2.915s-1.3 2.915-2.91 2.915c-1.6 0-2.91-1.305-2.91-2.915ZM2529.47 391.224c0-1.61 1.31-2.915 2.91-2.915 1.61 0 2.91 1.305 2.91 2.915s-1.3 2.915-2.91 2.915c-1.6 0-2.91-1.305-2.91-2.915ZM2549.85 350.416c0-1.61 1.3-2.915 2.91-2.915s2.91 1.305 2.91 2.915-1.3 2.915-2.91 2.915-2.91-1.305-2.91-2.915ZM2549.85 370.82c0-1.61 1.3-2.915 2.91-2.915s2.91 1.305 2.91 2.915-1.3 2.915-2.91 2.915-2.91-1.305-2.91-2.915ZM2570.22 350.416c0-1.61 1.3-2.915 2.91-2.915s2.91 1.305 2.91 2.915-1.3 2.915-2.91 2.915-2.91-1.305-2.91-2.915ZM2570.22 370.82c0-1.61 1.3-2.915 2.91-2.915s2.91 1.305 2.91 2.915-1.3 2.915-2.91 2.915-2.91-1.305-2.91-2.915ZM2426.84 293.315c0-1.61 1.31-2.915 2.91-2.915 1.61 0 2.91 1.305 2.91 2.915s-1.3 2.915-2.91 2.915c-1.6 0-2.91-1.305-2.91-2.915ZM2426.84 272.911c0-1.61 1.31-2.915 2.91-2.915 1.61 0 2.91 1.305 2.91 2.915 0 1.609-1.3 2.914-2.91 2.914-1.6 0-2.91-1.305-2.91-2.914ZM2426.84 252.508c0-1.61 1.31-2.915 2.91-2.915 1.61 0 2.91 1.305 2.91 2.915s-1.3 2.915-2.91 2.915c-1.6 0-2.91-1.305-2.91-2.915ZM2406.47 252.508c0-1.61 1.31-2.915 2.91-2.915 1.61 0 2.91 1.305 2.91 2.915s-1.3 2.915-2.91 2.915c-1.6 0-2.91-1.305-2.91-2.915ZM2406.47 232.103c0-1.61 1.31-2.915 2.91-2.915 1.61 0 2.91 1.305 2.91 2.915s-1.3 2.915-2.91 2.915c-1.6 0-2.91-1.305-2.91-2.915ZM2386.1 252.508c0-1.61 1.31-2.915 2.91-2.915 1.61 0 2.91 1.305 2.91 2.915s-1.3 2.915-2.91 2.915c-1.6 0-2.91-1.305-2.91-2.915ZM2365.73 191.297c0-1.61 1.3-2.915 2.91-2.915s2.91 1.305 2.91 2.915c0 1.609-1.3 2.914-2.91 2.914s-2.91-1.305-2.91-2.914ZM2365.73 135.915c0-1.61 1.3-2.915 2.91-2.915s2.91 1.305 2.91 2.915-1.3 2.915-2.91 2.915-2.91-1.305-2.91-2.915ZM2365.73 211.7c0-1.609 1.3-2.914 2.91-2.914s2.91 1.305 2.91 2.914c0 1.61-1.3 2.915-2.91 2.915s-2.91-1.305-2.91-2.915ZM2085.62 572.181c0-1.61 1.3-2.915 2.91-2.915 1.6 0 2.91 1.305 2.91 2.915s-1.31 2.915-2.91 2.915c-1.61 0-2.91-1.305-2.91-2.915ZM2085.62 551.777c0-1.61 1.3-2.915 2.91-2.915 1.6 0 2.91 1.305 2.91 2.915s-1.31 2.915-2.91 2.915c-1.61 0-2.91-1.305-2.91-2.915ZM2085.62 531.374c0-1.61 1.3-2.915 2.91-2.915 1.6 0 2.91 1.305 2.91 2.915s-1.31 2.915-2.91 2.915c-1.61 0-2.91-1.305-2.91-2.915ZM2085.62 510.97c0-1.61 1.3-2.915 2.91-2.915 1.6 0 2.91 1.305 2.91 2.915s-1.31 2.915-2.91 2.915c-1.61 0-2.91-1.305-2.91-2.915ZM2065.24 572.181c0-1.61 1.31-2.915 2.91-2.915 1.61 0 2.91 1.305 2.91 2.915s-1.3 2.915-2.91 2.915c-1.6 0-2.91-1.305-2.91-2.915ZM2065.24 551.777c0-1.61 1.31-2.915 2.91-2.915 1.61 0 2.91 1.305 2.91 2.915s-1.3 2.915-2.91 2.915c-1.6 0-2.91-1.305-2.91-2.915ZM2065.24 531.374c0-1.61 1.31-2.915 2.91-2.915 1.61 0 2.91 1.305 2.91 2.915s-1.3 2.915-2.91 2.915c-1.6 0-2.91-1.305-2.91-2.915ZM2044.87 572.181c0-1.61 1.31-2.915 2.91-2.915 1.61 0 2.91 1.305 2.91 2.915s-1.3 2.915-2.91 2.915c-1.6 0-2.91-1.305-2.91-2.915ZM2044.87 551.777c0-1.61 1.31-2.915 2.91-2.915 1.61 0 2.91 1.305 2.91 2.915s-1.3 2.915-2.91 2.915c-1.6 0-2.91-1.305-2.91-2.915ZM2024.5 572.181c0-1.61 1.3-2.915 2.91-2.915s2.91 1.305 2.91 2.915-1.3 2.915-2.91 2.915-2.91-1.305-2.91-2.915ZM2024.5 551.777c0-1.61 1.3-2.915 2.91-2.915s2.91 1.305 2.91 2.915-1.3 2.915-2.91 2.915-2.91-1.305-2.91-2.915ZM2105.99 510.97c0-1.61 1.3-2.915 2.91-2.915 1.6 0 2.91 1.305 2.91 2.915s-1.31 2.915-2.91 2.915c-1.61 0-2.91-1.305-2.91-2.915ZM2105.99 531.374c0-1.61 1.3-2.915 2.91-2.915 1.6 0 2.91 1.305 2.91 2.915s-1.31 2.915-2.91 2.915c-1.61 0-2.91-1.305-2.91-2.915ZM2105.99 551.777c0-1.61 1.3-2.915 2.91-2.915 1.6 0 2.91 1.305 2.91 2.915s-1.31 2.915-2.91 2.915c-1.61 0-2.91-1.305-2.91-2.915ZM2105.99 572.181c0-1.61 1.3-2.915 2.91-2.915 1.6 0 2.91 1.305 2.91 2.915s-1.31 2.915-2.91 2.915c-1.61 0-2.91-1.305-2.91-2.915ZM2126.35 510.97c0-1.61 1.3-2.915 2.91-2.915s2.91 1.305 2.91 2.915-1.3 2.915-2.91 2.915-2.91-1.305-2.91-2.915ZM2126.35 531.374c0-1.61 1.3-2.915 2.91-2.915s2.91 1.305 2.91 2.915-1.3 2.915-2.91 2.915-2.91-1.305-2.91-2.915ZM2167.09 464.333c0-1.61 1.31-2.915 2.91-2.915 1.61 0 2.91 1.305 2.91 2.915s-1.3 2.915-2.91 2.915c-1.6 0-2.91-1.305-2.91-2.915ZM2167.09 423.525c0-1.609 1.31-2.914 2.91-2.914 1.61 0 2.91 1.305 2.91 2.914 0 1.61-1.3 2.915-2.91 2.915-1.6 0-2.91-1.305-2.91-2.915ZM2146.72 443.929c0-1.61 1.31-2.915 2.91-2.915 1.61 0 2.91 1.305 2.91 2.915s-1.3 2.915-2.91 2.915c-1.6 0-2.91-1.305-2.91-2.915ZM2126.35 551.777c0-1.61 1.3-2.915 2.91-2.915s2.91 1.305 2.91 2.915-1.3 2.915-2.91 2.915-2.91-1.305-2.91-2.915ZM2146.72 510.97c0-1.61 1.31-2.915 2.91-2.915 1.61 0 2.91 1.305 2.91 2.915s-1.3 2.915-2.91 2.915c-1.6 0-2.91-1.305-2.91-2.915ZM2146.72 531.374c0-1.61 1.31-2.915 2.91-2.915 1.61 0 2.91 1.305 2.91 2.915s-1.3 2.915-2.91 2.915c-1.6 0-2.91-1.305-2.91-2.915ZM2167.09 510.97c0-1.61 1.31-2.915 2.91-2.915 1.61 0 2.91 1.305 2.91 2.915s-1.3 2.915-2.91 2.915c-1.6 0-2.91-1.305-2.91-2.915ZM2167.09 531.374c0-1.61 1.31-2.915 2.91-2.915 1.61 0 2.91 1.305 2.91 2.915s-1.3 2.915-2.91 2.915c-1.6 0-2.91-1.305-2.91-2.915Z" fill="#250854" fill-opacity=".8"/><path fill-rule="evenodd" clip-rule="evenodd" d="M2105.99 571.673c0-1.609 1.3-2.914 2.91-2.914 1.6 0 2.91 1.305 2.91 2.914 0 1.61-1.31 2.915-2.91 2.915-1.61 0-2.91-1.305-2.91-2.915ZM2126.35 571.673c0-1.609 1.3-2.914 2.91-2.914s2.91 1.305 2.91 2.914c0 1.61-1.3 2.915-2.91 2.915s-2.91-1.305-2.91-2.915ZM2146.72 571.673c0-1.609 1.31-2.914 2.91-2.914 1.61 0 2.91 1.305 2.91 2.914 0 1.61-1.3 2.915-2.91 2.915-1.6 0-2.91-1.305-2.91-2.915ZM2167.09 571.673c0-1.609 1.31-2.914 2.91-2.914 1.61 0 2.91 1.305 2.91 2.914 0 1.61-1.3 2.915-2.91 2.915-1.6 0-2.91-1.305-2.91-2.915ZM2004.14 572.181c0-1.61 1.3-2.915 2.91-2.915 1.6 0 2.91 1.305 2.91 2.915s-1.31 2.915-2.91 2.915c-1.61 0-2.91-1.305-2.91-2.915ZM2004.14 551.777c0-1.61 1.3-2.915 2.91-2.915 1.6 0 2.91 1.305 2.91 2.915s-1.31 2.915-2.91 2.915c-1.61 0-2.91-1.305-2.91-2.915ZM2004.14 531.374c0-1.61 1.3-2.915 2.91-2.915 1.6 0 2.91 1.305 2.91 2.915s-1.31 2.915-2.91 2.915c-1.61 0-2.91-1.305-2.91-2.915ZM1983.77 531.374c0-1.61 1.3-2.915 2.91-2.915 1.6 0 2.91 1.305 2.91 2.915s-1.31 2.915-2.91 2.915c-1.61 0-2.91-1.305-2.91-2.915ZM1983.77 510.97c0-1.61 1.3-2.915 2.91-2.915 1.6 0 2.91 1.305 2.91 2.915s-1.31 2.915-2.91 2.915c-1.61 0-2.91-1.305-2.91-2.915ZM1963.4 531.374c0-1.61 1.3-2.915 2.91-2.915 1.6 0 2.91 1.305 2.91 2.915s-1.31 2.915-2.91 2.915c-1.61 0-2.91-1.305-2.91-2.915ZM1943.02 470.163c0-1.61 1.31-2.915 2.91-2.915 1.61 0 2.91 1.305 2.91 2.915s-1.3 2.915-2.91 2.915c-1.6 0-2.91-1.305-2.91-2.915ZM1943.02 490.566c0-1.609 1.31-2.914 2.91-2.914 1.61 0 2.91 1.305 2.91 2.914 0 1.61-1.3 2.915-2.91 2.915-1.6 0-2.91-1.305-2.91-2.915Z" fill="#250854" fill-opacity=".8"/></g><defs><radialGradient id="bg-f" cx="0" cy="0" r="1" gradientUnits="userSpaceOnUse" gradientTransform="matrix(0 317.273 -317.053 0 2628.05 286.273)"><stop stop-color="#9C62E2"/><stop offset="1" stop-color="#753BBC" stop-opacity="0"/></radialGradient><radialGradient id="bg-g" cx="0" cy="0" r="1" gradientUnits="userSpaceOnUse" gradientTransform="matrix(0 814.671 -814.105 0 2521.11 716.671)"><stop stop-color="#9C62E2"/><stop offset="1" stop-color="#753BBC" stop-opacity="0"/></radialGradient><radialGradient id="bg-h" cx="0" cy="0" r="1" gradientUnits="userSpaceOnUse" gradientTransform="matrix(0 501.5 -501 0 1342 852.5)"><stop stop-color="#9C62E2"/><stop offset="1" stop-color="#753BBC" stop-opacity="0"/></radialGradient><radialGradient id="bg-i" cx="0" cy="0" r="1" gradientUnits="userSpaceOnUse" gradientTransform="matrix(0 631 -630.5 0 3463.5 453)"><stop stop-color="#9C62E2"/><stop offset="1" stop-color="#753BBC" stop-opacity="0"/></radialGradient><linearGradient id="bg-b" x1="2268.5" y1="529.002" x2="1727.68" y2="247.962" gradientUnits="userSpaceOnUse"><stop offset=".15506" stop-color="#8C53D1"/><stop offset=".99261" stop-color="#5B2F92"/></linearGradient><linearGradient id="bg-c" x1="1860.68" y1="337.068" x2="2202.63" y2="722.364" gradientUnits="userSpaceOnUse"><stop stop-color="#753BBC" stop-opacity=".3"/><stop offset=".778773" stop-color="#5B2F92"/></linearGradient><linearGradient id="bg-d" x1="1634.58" y1="313.052" x2="1350.74" y2="700.923" gradientUnits="userSpaceOnUse"><stop stop-color="#753BBC" stop-opacity="0"/><stop offset="1" stop-color="#401E6A" stop-opacity=".3"/></linearGradient><linearGradient id="bg-e" x1="2422.79" y1="533.218" x2="2962.38" y2="886.804" gradientUnits="userSpaceOnUse"><stop offset=".354167" stop-color="#8C55D0"/><stop offset="1" stop-color="#57298F"/></linearGradient></defs></svg>