<svg width="53" height="62" viewBox="0 0 53 62" fill="none" xmlns="http://www.w3.org/2000/svg">
<path fill-rule="evenodd" clip-rule="evenodd" d="M14.0097 13.8073C13.9468 14.8356 13.8838 15.8637 13.8209 16.892C14.2256 16.7754 16.8001 16.0179 16.6411 16.786C16.527 17.3368 15.8032 17.9327 15.4344 18.3162C15.095 18.6693 14.7455 19.0132 14.3871 19.3471C15.0458 19.0949 15.71 18.8561 16.379 18.6327C16.8852 18.4637 17.3951 18.2987 17.9137 18.172C18.1063 18.125 18.6262 17.933 18.808 18.0639C19.286 18.4079 16.6927 20.9413 16.3375 21.2985C16.8398 21.0649 17.3541 20.8527 17.8772 20.6706C18.2549 20.5391 19.4217 20.0367 19.7559 20.4657C20.1137 20.9248 19.2274 21.9789 18.9817 22.3131C18.6295 22.7919 18.2479 23.2513 17.8474 23.6906C19.5117 25.1855 21.4675 26.516 23.5489 27.343C25.075 27.9493 26.5742 28.1037 28.1846 27.771C29.839 27.4291 31.4256 26.7734 32.9339 26.0238C33.8196 25.5835 34.6938 25.1071 35.5265 24.5719C35.1832 24.1543 34.8499 23.7281 34.526 23.2953C34.0638 22.6773 33.4958 22.0021 33.2322 21.2665C32.9743 20.5465 33.942 20.6871 34.4061 20.7262C35.0783 20.7828 35.7485 20.903 36.4072 21.0467C35.9415 20.7228 35.4842 20.3859 35.0361 20.038C34.4521 19.5847 33.673 19.0721 33.2908 18.42C32.9546 17.8465 33.6924 17.9914 34.0336 18.0665C34.8469 18.2457 35.6383 18.551 36.4141 18.8488C36.9822 19.0669 37.5468 19.2954 38.106 19.5359C37.7589 19.2342 37.4235 18.918 37.1011 18.5902C36.6677 18.1496 36.0834 17.6116 35.8891 17.0048C35.4935 15.7692 38.1549 16.7013 38.6093 16.892C38.5253 15.612 38.4415 14.332 38.3576 13.052C34.8336 13.9897 31.3095 14.9275 27.7853 15.8653C27.4046 15.9667 26.9279 16.1874 26.5307 16.1991C26.1709 16.2099 25.7364 16.0479 25.3856 15.9809L19.0084 14.7625C17.3422 14.4441 15.6759 14.1257 14.0097 13.8073Z" fill="#1A73E8"/>
<path fill-rule="evenodd" clip-rule="evenodd" d="M51.8858 57.8329C51.5054 58.0506 51.0597 58.2187 50.6371 58.3315C50.3888 58.3978 49.9786 58.6024 49.7606 58.4149C49.6559 58.3248 49.6319 58.1203 49.5701 58.0018C49.4724 57.8141 49.3334 57.6521 49.2032 57.4862C48.8876 57.0843 48.5593 56.6966 48.2157 56.3184C48.0529 56.1392 47.7555 55.7209 47.4687 55.7485C47.1111 55.7828 47.1197 56.2777 47.2093 56.5305C47.4946 57.3355 48.3582 58.0373 48.9224 58.6437C48.7789 58.8645 47.9912 58.8381 47.7725 58.7865C47.4385 58.7077 47.4047 58.4699 47.2523 58.1978C46.8958 57.5622 46.1726 57.2065 45.5781 56.8328C45.3613 56.6964 44.9007 56.3187 44.6182 56.4138C44.3505 56.5039 44.3621 56.8458 44.4474 57.0691C44.5762 57.4066 44.9426 57.6407 45.2135 57.854C45.5748 58.1383 45.9051 58.4477 46.2062 58.7957C45.7723 58.8311 45.3399 58.8923 44.907 58.9279C44.3835 58.9711 43.9472 58.6839 43.4653 58.5211C43.0175 58.3697 42.5713 58.2419 42.131 58.0675C41.6366 57.8717 41.1188 57.8036 40.6201 57.6318C38.663 56.9577 36.7453 56.1099 34.8594 55.2554C33.9607 54.8481 33.0805 54.4407 32.1442 54.122C31.4618 53.8897 30.3894 53.4268 30.2262 52.6139C30.1401 52.1844 30.4539 51.7226 30.5001 51.2935C30.5544 50.7886 30.5117 50.2332 30.3579 49.7489C30.2223 49.3221 29.9977 48.927 29.8207 48.5174C29.6145 48.0399 29.7991 48.0477 30.1998 47.9934C30.6793 47.9283 31.2389 47.6584 31.6896 47.4826C32.2089 47.2799 32.7236 46.9968 33.1991 46.7058C33.6293 46.4425 34.0036 46.1032 34.346 45.7347C34.6943 45.3598 34.9198 44.9155 35.2566 44.5314C36.4995 46.06 37.6809 47.6119 39.0016 49.0744C39.6249 49.7647 40.3028 50.3355 41.0709 50.8604C41.3916 51.0797 41.7099 51.33 42.0593 51.5033C42.4963 51.7202 42.9848 51.8547 43.434 52.0527C45.1562 52.8115 46.7997 53.641 48.4064 54.6201C49.1837 55.0937 49.836 55.6367 50.5204 56.2309C50.7334 56.4158 52.4785 57.4938 51.8858 57.8329ZM31.6836 45.3103C31.4053 45.4364 31.14 45.6001 30.8431 45.681C30.9272 45.1689 31.4052 44.3963 32.018 44.4813C32.2521 44.5137 32.4287 44.6955 32.3258 44.9462C32.2323 45.174 31.8818 45.2206 31.6836 45.3103ZM12.3118 31.4187C11.9963 31.5929 11.7023 31.6944 11.5173 31.3205C11.6544 31.293 12.2768 31.21 12.3118 31.4187ZM11.7865 30.3617C11.5427 30.2877 11.7377 30.21 11.8216 30.1208C11.8869 30.0514 12.1033 29.8077 12.1791 29.7675C12.5135 29.5904 12.772 30.2496 12.9319 30.4635C12.5533 30.4299 12.1551 30.4734 11.7865 30.3617ZM14.3935 32.6442C13.9313 32.7225 13.9826 32.1443 13.9964 31.8513C14.0939 31.9703 14.7538 32.5831 14.3935 32.6442ZM15.925 31.6455C15.3616 31.7405 14.9893 30.7671 15.0903 30.3413C15.1792 29.9662 15.6158 29.7568 15.9634 29.7015C16.3004 29.6478 16.7694 29.721 16.8695 30.1095C16.9579 30.453 16.3005 31.5821 15.925 31.6455ZM29.262 46.3404C28.8571 46.4649 28.4604 46.4805 28.0534 46.6027C27.5917 46.7413 27.1644 46.729 26.7017 46.8233C26.5135 46.8616 26.0057 47.1358 25.8221 47.0746C25.6402 47.0139 25.377 46.4495 25.2725 46.3027C26.0911 45.9624 26.7894 45.5231 27.3289 44.8062C27.758 44.236 28.218 43.3819 27.9481 42.646C27.6437 41.8164 26.5944 41.6363 25.8948 41.9828C25.5638 42.1466 25.2357 42.3504 24.9628 42.6001C24.6508 42.8856 24.5281 43.1974 24.326 43.5495C24.1216 43.9057 23.9781 43.7076 23.7739 43.4051C23.5994 43.1466 23.6221 42.8855 23.404 42.6304C23.2927 42.5003 23.1204 42.3748 23.0623 42.2067C23.0255 42.1001 23.1031 41.9112 23.0333 41.8272C22.935 41.7094 22.8156 41.8479 22.7333 41.7426C22.6735 41.6662 22.6931 41.4919 22.6313 41.3963C22.5778 41.3419 22.5183 41.2954 22.4524 41.2569C22.3725 41.2174 22.358 41.168 22.4086 41.1087C22.3451 40.9911 22.4063 40.9515 22.2703 40.8084C22.0583 40.5855 21.865 40.3718 21.714 40.1086C21.645 39.9881 21.6519 39.8095 21.5662 39.7052C21.4486 39.5621 21.2527 39.5836 21.1515 39.4064C21.0615 39.2485 21.1217 38.9724 20.9732 38.829C20.8949 38.8067 20.8166 38.7847 20.7381 38.763C20.6791 38.7058 20.6448 38.6363 20.635 38.5545C20.5525 38.4274 20.5361 38.2782 20.4319 38.144C20.2326 37.8875 19.9644 37.6503 19.7883 37.3798C19.6032 37.0954 19.7014 37.0475 20.023 36.9457C20.313 36.8538 20.5778 36.7685 20.8466 36.6121C22.0893 35.8889 23.2675 33.9705 21.295 33.3844C20.5629 33.1669 19.9616 32.582 19.1499 32.8119C18.7981 32.9116 18.4643 33.1238 18.2018 33.3756C18.0204 33.5497 17.8525 34.0152 17.6298 34.1045C17.2294 34.2648 17.3987 33.8642 17.2851 33.6802C17.2308 33.5923 17.0124 33.4911 16.9315 33.4112C16.8365 33.3175 16.7446 33.1991 16.6787 33.0832C16.5563 32.8681 16.4814 32.7481 16.3048 32.5729C16.2382 32.5068 15.9059 32.165 16.2056 32.2097C16.0843 31.8398 16.2614 31.7842 16.5062 31.5139C16.7937 31.1965 17.0905 30.7555 17.0922 30.3108C17.0955 29.457 16.0838 29.0745 15.4484 29.5813C15.3192 29.6844 14.5545 30.6799 14.711 30.0451C14.7953 29.7027 15.5764 28.8088 15.9385 29.0401C15.5327 28.4486 14.6005 29.8847 14.3829 30.1786C14.1976 29.8375 14.1845 29.5706 13.8779 29.3065C13.6284 29.7068 13.7601 29.2694 13.7051 29.1804C13.5863 28.9884 13.6515 29.208 13.5871 29.1398C13.5068 29.0549 13.3804 28.9879 13.2951 28.8754C13.1488 29.0738 13.2072 28.8603 13.1624 28.7861C13.0576 28.6128 13.0981 28.5123 12.9185 28.3615C12.7878 28.2519 12.5303 28.0817 12.3543 28.0661C12.1515 28.0482 12.0953 28.1259 11.8886 28.0684C11.6257 27.9952 11.2947 27.8829 11.4221 28.3227C11.5145 28.6423 11.8902 28.8239 11.9725 29.1505C12.0554 29.4792 11.7304 29.8104 11.5727 30.0799C11.3702 30.4256 11.2046 30.3974 10.8378 30.4753C10.6034 30.5251 10.2905 30.6317 10.4915 30.9161C10.6351 31.1193 10.9716 31.0765 11.1611 31.1969C11.4269 31.3656 11.4232 31.7817 11.7624 31.854C12.136 31.9337 12.3501 31.5178 12.6651 31.4173C12.8891 31.3459 13.5829 31.3538 13.7592 31.522C13.9995 31.7512 13.7919 32.189 13.8524 32.4737C13.9423 32.8959 14.2279 32.9216 14.5891 32.9351C15.0338 32.9517 15.1901 33.3787 15.4293 33.7174C15.9894 34.5107 16.4763 35.3564 17.0501 36.1391C17.304 36.4856 17.6756 36.7939 17.8836 37.1701C18.1404 37.6346 17.7838 37.9025 17.4762 38.2359C17.0741 38.6716 16.774 39.1673 16.4253 39.6435C16.1154 40.0667 15.7303 39.9614 15.2351 39.9614C15.3455 39.7339 15.4783 39.592 15.7497 39.6196C15.4658 39.273 15.2388 39.6695 15.0547 39.8891C14.7883 40.2067 14.441 40.2834 14.0987 40.4922C13.9776 40.5661 13.3182 41.0451 13.5186 41.2086C13.5414 41.2271 14.6329 40.5091 14.7573 40.4432C14.7573 40.7083 14.6993 40.9837 14.7364 41.2473C14.7636 41.4406 14.8996 41.6423 14.8706 41.8433C14.8157 42.2226 14.3254 42.5215 14.115 42.8171C13.9565 43.0396 13.9948 43.2151 13.9141 43.4539C13.8406 43.6717 13.8792 43.6058 13.696 43.6731C13.3228 43.8101 12.6949 43.7362 12.357 43.5413C12.1473 43.4204 11.9865 43.2292 11.8161 43.0608C11.6878 42.9337 11.365 42.7168 11.3294 42.5391C11.2682 42.2331 11.8757 41.6645 11.9959 41.3489C12.3355 40.4581 11.7532 39.7657 10.8471 39.7152C11.1263 39.4997 11.4725 39.6621 11.7669 39.7443C11.2636 39.047 10.4042 39.6207 9.97736 40.0946C9.6857 39.3574 9.54506 38.5797 9.36692 37.8107C9.24553 37.2873 8.7836 36.3529 8.98961 35.8138C9.08924 35.5533 9.37043 35.408 9.56497 35.2273C9.78598 35.0219 9.97523 34.7765 10.1368 34.5223C10.5175 33.9236 10.7373 33.1678 10.2132 32.5778C10.3724 32.5516 10.5318 32.5255 10.6911 32.4993C10.432 32.2558 10.0233 32.3744 9.68709 32.3023C9.47376 32.2565 8.85998 32.2861 8.71758 32.1654C8.54629 32.0203 8.6561 31.3524 8.66221 31.1547C8.67628 30.6928 8.71489 30.2486 8.76591 29.7895C8.81424 29.3557 8.80452 28.8871 8.89415 28.461C8.96692 28.1152 9.19942 28.0098 9.46775 27.806C10.109 27.3187 10.6316 26.726 10.4126 25.8863C10.4902 25.874 10.5678 25.8617 10.6454 25.8493C10.3945 25.6679 10.0698 25.7339 9.7907 25.638C10.047 24.9166 10.6138 23.6485 11.5342 23.5802C11.5658 23.9027 11.5442 24.2862 11.7618 24.5532C12.0094 24.857 12.4442 24.8877 12.7798 24.7269C13.0842 24.5809 13.3701 24.2715 13.5104 23.9658C13.6053 23.7588 13.5882 23.4089 13.7549 23.2449C13.9784 23.025 15.5193 23.1576 15.472 23.5289C15.4443 23.7473 15.0322 24.1142 14.9171 24.3077C14.7063 24.6618 14.5376 25.0447 14.4602 25.4514C14.3427 26.069 14.4108 26.8842 15.0379 27.2089C15.7511 27.5783 16.6204 27.1086 17.2052 26.703C17.5264 26.4802 17.8375 26.2344 18.131 25.9762C18.2873 25.8389 18.4443 25.6973 18.5821 25.541C18.6837 25.4257 18.765 25.2397 18.8902 25.1533C19.1859 24.9493 19.4758 25.2955 19.7261 25.4703C20.1338 25.7552 20.5394 26.0257 20.977 26.2627C21.865 26.7437 22.6769 27.3809 23.462 28.0135C24.2517 28.6499 25.0659 29.3046 25.7056 30.0974C25.3181 30.3357 25.3873 30.3976 25.2149 30.8228C25.0926 31.1245 24.924 31.3813 24.9046 31.7165C24.871 32.295 25.2424 32.7881 25.8061 32.9161C26.1213 32.9878 26.4217 32.9304 26.7137 32.8015C26.9407 32.7014 27.167 32.4548 27.4041 32.3935C27.8449 32.2798 28.1977 33.1126 28.4448 33.406C29.5423 34.7088 30.7023 35.9601 31.7357 37.3162C31.8502 37.4664 32.1902 37.7598 32.2178 37.9586C32.2575 38.2442 31.8082 38.5163 31.6219 38.68C31.5241 38.7659 30.4865 39.7419 30.8349 39.8971C30.9342 39.9413 31.2249 39.3425 31.2976 39.2912C31.5697 39.0995 31.3639 39.4753 31.3477 39.6653C31.3071 40.1375 31.6315 40.3948 32.0874 40.335C32.574 40.2711 33.0071 39.887 33.3082 39.5243C33.6855 39.9613 34.2753 40.6219 34.3844 41.2056C34.4541 41.5786 34.1314 42.4914 34.7338 42.5674C34.8258 42.579 35.1585 42.3322 35.2206 42.4723C35.2723 42.5893 34.9126 42.7893 34.8607 42.828C34.639 42.9935 34.5051 43.1708 34.3261 43.3712C34.1161 43.6065 33.8289 43.8047 33.5925 44.0301C33.3435 44.2676 32.8509 44.9127 32.5223 44.601C32.3571 44.4444 32.4005 44.2396 32.136 44.1477C31.8951 44.064 31.5899 44.1701 31.366 44.263C31.114 44.3674 30.2839 44.7487 30.1918 45.0627C30.0648 45.4956 30.7509 44.9751 30.8728 44.899C30.7337 45.2522 30.6568 45.7634 30.3025 45.9694C30.0082 46.1405 29.5849 46.2412 29.262 46.3404ZM24.5567 43.6696C24.7923 42.9124 26.1815 41.5624 27.0596 41.9847C26.0362 42.1991 25.2242 42.8994 24.5567 43.6696ZM25.0763 45.8378C24.7339 45.647 24.7523 45.0927 24.6328 44.7685C24.5641 44.5824 24.4269 44.4465 24.4673 44.24C24.5145 43.998 24.8232 43.7289 24.9876 43.5543C25.5048 43.0048 26.4149 42.254 27.2474 42.3799C28.307 42.5403 27.5887 43.9629 27.2279 44.4527C26.9204 44.8703 25.7354 46.2052 25.0763 45.8378ZM22.6044 44.9118C21.4585 44.8353 20.3165 44.7329 19.1862 44.5225C18.7855 44.448 18.4498 44.459 18.679 43.9983C18.7547 43.8462 19.2112 42.8931 19.3143 42.9205C19.3754 42.9367 19.3614 43.5917 19.3794 43.6668C19.4603 44.004 19.6875 44.3182 20.0705 44.2968C20.6973 44.2619 21.1013 43.4515 21.4313 43.0166C21.6956 43.372 21.887 43.7669 22.1527 44.1164C22.2798 44.2835 22.722 44.6721 22.6044 44.9118ZM15.8863 40.4137C15.6941 40.8549 15.3074 41.2745 15.0385 41.6742C14.8865 41.3523 14.7796 40.6135 15.1402 40.3756C15.2767 40.2856 16.0079 40.1348 15.8863 40.4137ZM19.8606 41.7274C19.9134 41.5576 19.972 41.3891 20.0374 41.2237C20.1495 41.5766 20.2068 41.5871 19.8606 41.7274ZM20.8415 42.0888C20.9805 42.3246 21.2124 42.5564 21.176 42.8525C21.1484 43.0768 20.9456 43.3067 20.8008 43.463C20.5612 43.7217 20.0303 44.2181 19.6831 43.8746C19.393 43.5878 19.494 42.799 19.6289 42.4763C19.8216 42.0151 20.5099 41.5272 20.8415 42.0888ZM20.1609 41.6057C20.2406 41.574 20.0731 41.0594 20.2286 41.0082C20.3642 41.3173 20.4919 41.401 20.1609 41.6057ZM17.9713 34.6807C17.9197 34.4909 17.8013 34.4988 17.8439 34.2641C17.8719 34.1102 17.994 33.9459 18.0867 33.824C18.2713 33.5809 18.5149 33.3806 18.7784 33.2289C19.3345 32.9088 20.0981 32.7759 20.596 33.277C20.1305 33.3505 18.7036 33.8099 18.6946 34.4466C19.2121 34.3469 19.6192 33.8269 20.1383 33.6631C20.5644 33.5286 21.0265 33.538 21.4504 33.6801C22.6108 34.0687 22.1283 35.0716 21.4734 35.723C21.0846 36.1098 20.6184 36.3985 20.1088 36.5978C19.873 36.69 19.7282 36.7002 19.4964 36.6538C19.453 36.6451 19.4022 36.5646 19.3502 36.5474C19.2208 36.5045 19.2583 36.6497 19.1518 36.5844C19.0588 36.5276 18.8605 36.1607 18.7972 36.0556C18.6966 35.8884 18.6497 35.7258 18.5261 35.5732C18.4024 35.4205 18.3423 35.2158 18.2278 35.0776C18.1729 35.0111 18.0224 35.0138 17.9819 34.9489C17.9212 34.8514 17.9985 34.7804 17.9713 34.6807ZM16.1893 42.1602C16.453 41.702 16.9042 41.313 17.2533 40.9125C17.2748 41.5707 16.8028 42.0215 16.1893 42.1602ZM16.5457 42.3718C17.0903 42.1802 17.3904 41.7217 17.446 41.1658C17.5164 40.4617 17.9586 40.0921 18.2248 39.4595C18.3268 39.2171 18.4458 38.4193 18.8414 38.6477C18.9772 38.726 19.0576 39.0205 19.1284 39.1536C19.2995 39.4755 19.494 39.7876 19.6755 40.1037C19.8232 40.3611 20.0447 40.6198 19.9795 40.9297C19.9227 41.1998 19.7397 41.4876 19.6326 41.7424C19.3796 42.344 19.0473 42.8982 18.7697 43.4866C18.6576 43.724 18.525 44.286 18.183 44.2831C17.9123 44.2808 17.9425 43.9848 17.7643 43.8834C17.5393 43.7553 17.2835 43.999 17.0987 44.1C17.3114 43.7406 17.6836 43.5372 18.1018 43.6048C17.601 43.1061 17.2627 43.779 16.8328 43.9288C16.4256 44.0709 15.7032 43.4011 15.3603 43.2114C15.4915 42.9892 15.61 42.7175 15.8356 42.5714C16.0495 42.4327 16.3121 42.454 16.5457 42.3718ZM12.1179 46.9294C12.1775 46.6422 12.346 46.4725 12.4529 46.2117C12.5767 46.5279 12.2867 46.7144 12.1179 46.9294ZM20.7708 48.6915C20.7416 49.6585 20.6626 50.623 20.6341 51.5903C20.6209 52.0364 20.5419 52.4619 20.4895 52.9028C20.4452 53.2756 20.4678 53.6418 20.233 53.9604C19.863 54.4627 19.1435 54.607 18.5849 54.7931C18.1748 54.9297 17.7599 55.0537 17.3548 55.2055C16.9903 55.342 16.6966 55.549 16.35 55.7113C16.04 55.8566 15.7053 55.9427 15.3967 56.0974C15.0775 56.2576 14.8252 56.4526 14.4973 56.5951C14.1049 56.7657 13.7814 57.0693 13.4324 57.3102C13.1251 57.5223 12.8 57.6862 12.5356 57.9528C12.2878 58.2031 11.974 58.3128 11.6931 58.5351C11.396 58.7702 11.0851 58.923 10.757 59.1073C10.0848 59.4851 9.17785 60.1302 8.36888 59.7633C8.60027 59.4678 9.07377 59.1838 9.10979 58.7766C9.15664 58.2462 8.69499 58.4415 8.42768 58.6108C8.02278 58.8673 7.7988 59.177 7.49057 59.519C7.13021 59.9186 6.67503 59.6497 6.23412 59.5373C6.53559 59.2659 6.83466 58.992 7.13558 58.7201C7.38965 58.4907 7.77834 58.2425 7.93306 57.9252C8.04361 57.6983 8.03824 57.3873 7.7714 57.2695C7.47289 57.1379 7.1353 57.4156 6.9142 57.581C6.32727 58.0201 5.9407 58.577 5.55534 59.1881C5.35034 59.5131 5.2559 59.4882 4.87878 59.4232C4.47916 59.3544 4.07945 59.281 3.67649 59.2327C4.21028 58.6845 4.80684 58.0906 5.2284 57.4492C5.36497 57.2414 5.54312 56.6936 5.12702 56.6432C4.95554 56.6225 4.61416 56.9731 4.48185 57.0676C3.9038 57.4808 3.34808 58.002 2.96494 58.6052C2.83846 58.8043 2.79874 59.0258 2.55384 59.0423C2.23366 59.064 1.63867 58.7584 1.32979 58.6639C1.92015 57.9198 2.50634 57.1702 3.19604 56.514C3.82973 55.9109 4.46185 55.4728 5.20294 55.0103C5.99727 54.5145 6.73716 53.9437 7.4664 53.358C8.16444 52.7973 8.89369 52.2685 9.53626 51.6424C10.8198 50.392 11.963 48.9538 12.9097 47.4331C13.1312 47.0773 13.3397 46.7122 13.52 46.3336C13.6892 45.978 13.7673 45.5528 13.9958 45.2294C14.0748 45.1176 14.186 45.0346 14.2563 44.918C14.3227 44.8082 14.3002 44.6755 14.4014 44.5783C14.6355 44.3536 15.0617 44.4891 15.2805 44.6466C15.6323 44.8999 15.9169 45.2073 16.3036 45.4193C16.6926 45.6326 17.1133 45.7876 17.5439 45.8924C18.5505 46.1371 19.5483 46.3379 20.5738 46.4866C20.4682 46.878 20.7274 46.9396 20.8132 47.2917C20.9175 47.719 20.7839 48.2563 20.7708 48.6915ZM11.0789 42.166C10.8507 41.827 10.6471 41.4724 10.4227 41.1311C10.2862 40.9233 10.1168 40.7001 10.2336 40.4459C10.4302 40.0173 11.124 39.9411 11.5005 40.1279C12.3564 40.5526 11.5613 41.7671 11.0789 42.166ZM8.81341 34.4114C8.73462 33.7486 8.98804 33.2785 9.58756 32.931C10.0149 32.6833 10.3589 33.0218 10.3006 33.4732C10.2118 34.1611 9.47682 34.9261 8.91591 35.285C8.87924 34.9941 8.84813 34.7025 8.81341 34.4114ZM8.72202 32.5152C8.89887 32.3748 9.37247 32.5539 9.57737 32.5662C9.29562 32.8124 9.01378 33.0586 8.73193 33.3048C8.7135 33.1359 8.55888 32.6447 8.72202 32.5152ZM9.67293 26.115C11.0989 25.9296 9.45738 27.4599 9.04415 27.6997C9.11137 27.3741 9.27655 26.1666 9.67293 26.115ZM13.4691 23.4358C13.2777 24.2201 11.7891 25.0758 11.7735 23.791C11.7678 23.3123 12.0367 23.351 12.4292 23.3051C12.653 23.2789 13.5786 22.9874 13.4691 23.4358ZM8.3275 24.6505C8.16037 25.089 8.02639 25.539 7.8626 25.9781C7.79001 26.1725 7.70464 26.3062 7.56946 26.4603C7.45631 26.5891 7.32169 26.6216 7.32613 26.8252C7.46789 26.7978 7.57881 26.7133 7.69334 26.6319C7.66557 27.0355 7.52288 27.4699 7.45381 27.8723C7.37104 28.3548 7.30215 28.8375 7.27659 29.3267C7.22113 30.3906 7.22067 31.4507 7.244 32.5152C7.25595 33.0576 7.26132 33.6004 7.29058 34.1422C7.3052 34.4117 7.32169 34.6824 7.35502 34.9503C7.36854 35.0584 7.44705 35.2887 7.39854 35.3901C7.20808 35.788 6.36439 34.695 5.99801 34.8554C6.0507 34.5526 5.92913 34.6188 5.72608 34.4699C5.62774 34.3977 5.56376 34.275 5.46117 34.2107C5.43016 34.1772 5.39599 34.1475 5.35877 34.1213C5.31636 34.0635 5.27164 34.0697 5.22461 34.1398C4.81184 33.893 4.70517 33.3671 4.4836 33.0133C4.36963 32.8315 4.25954 32.8031 4.24009 32.5516C4.22324 32.3325 4.2562 32.1091 4.24731 31.8891C4.23722 31.6408 4.22269 31.3671 4.15306 31.1267C4.07223 30.8476 3.96102 30.8704 3.74446 30.7217C3.81121 30.6925 3.85519 30.6435 3.87649 30.5746C3.80732 30.587 3.59714 30.6727 3.54492 30.611C3.44224 30.49 3.68455 30.4739 3.74825 30.4256C3.4765 30.305 3.53502 30.2058 3.63307 29.9847C3.66085 29.9222 3.68733 29.8287 3.71094 29.776C3.76251 29.6607 3.79214 29.7337 3.80918 29.5905C3.82538 29.454 3.70436 29.1856 3.66872 29.0402C3.6089 28.7962 3.57585 28.5854 3.62955 28.3312C3.67307 28.1254 3.7901 27.9391 3.79825 27.7274C3.80057 27.668 3.71001 27.6483 3.70881 27.591C3.70705 27.5071 3.78529 27.4702 3.80566 27.3927C3.8576 27.1944 3.83418 26.9847 3.92306 26.7965C4.00306 26.6275 4.16463 26.4088 4.27898 26.2613C4.35824 26.1591 4.55268 26.0439 4.57397 25.909C4.58805 25.8196 4.44888 25.8299 4.45509 25.7625C4.46351 25.6713 4.53999 25.6418 4.56101 25.574C4.61888 25.3881 4.63342 25.2093 4.78295 25.0668C4.97128 24.8874 5.05313 24.9625 5.06091 24.6667C5.0647 24.5223 4.94924 24.5001 5.01109 24.3336C5.0447 24.2433 5.14387 24.1899 5.20729 24.1259C5.39562 23.9359 5.52256 23.7672 5.65663 23.5325C5.77524 23.3251 5.9644 23.2044 6.08588 23.0253C6.24412 22.7919 6.00755 22.6762 6.32865 22.6103C6.28301 22.4654 6.23449 22.3482 6.35458 22.2255C6.43032 22.1482 6.62254 22.1955 6.68957 22.106C6.76642 22.0032 6.65281 21.7597 6.76864 21.693C6.86281 21.6389 7.00382 21.8059 7.15178 21.7232C7.26456 21.6602 7.43483 21.3122 7.39854 21.1844C7.6901 21.3484 7.61742 21.2354 7.75695 21.025C7.78825 20.9778 7.88306 20.9674 7.91001 20.9197C7.96389 20.8246 7.95158 20.7275 8.02917 20.6502C8.15852 20.5214 8.37009 20.5544 8.5124 20.4624C8.62999 20.3864 8.62378 20.3045 8.71758 20.2328C8.79776 20.1716 8.92943 20.1598 9.00739 20.0963C9.16007 19.972 9.16155 19.8407 9.35256 19.7335C9.57876 19.6068 9.77913 19.4989 9.98486 19.3308C10.119 19.2213 10.2463 19.0271 10.4033 18.9548C10.6203 18.8548 10.7894 18.8478 11.0017 18.7052C11.1551 18.602 11.3002 18.4319 11.4508 18.345C11.5645 18.2796 11.6442 18.2936 11.7874 18.2531C12.0452 18.1799 12.108 17.9371 12.3182 17.8382C12.4626 17.7703 12.6728 17.8325 12.8313 17.7968C13.3246 17.686 13.8119 17.4472 14.3069 17.3148C14.9111 17.1534 15.5196 17.012 16.1285 16.8693C15.569 17.6277 14.8563 18.3119 14.1336 18.9142C13.8963 19.112 12.5963 20.0133 13.297 20.3982C13.5783 20.5527 14.1894 20.0537 14.4165 19.9317C14.8738 19.6861 15.3475 19.4895 15.8265 19.2908C16.601 18.9695 17.6097 18.3982 18.4704 18.4441C17.9464 19.0869 17.2924 19.603 16.6931 20.1708C16.1424 20.6927 15.3126 21.1821 15.5723 22.0363C14.7987 21.8395 14.1039 21.6069 13.2997 21.6584C12.9394 21.6815 12.579 21.6381 12.2204 21.6886C11.8304 21.7438 11.4632 21.8743 11.0884 21.9888C10.792 22.0793 10.4644 22.0865 10.1916 22.237C10.0598 22.3099 9.89681 22.4138 9.77839 22.5042C9.62052 22.6246 9.5846 22.7044 9.46062 22.8632C9.01831 23.4295 8.59036 23.9605 8.3275 24.6505ZM5.90811 35.37C5.88394 35.2719 5.862 35.1825 5.83431 35.0706C6.08051 35.2222 6.08051 35.2222 5.90811 35.37ZM4.0475 32.2479C4.01713 32.2899 3.88964 32.3034 3.8526 32.2671C3.80649 32.2221 3.92769 32.0468 3.94714 32.0095C3.99519 32.0464 4.10574 32.1671 4.0475 32.2479ZM3.52039 31.1117C3.55298 30.992 3.58566 30.8724 3.61826 30.7526C3.65825 30.8636 3.83871 30.9862 3.84269 31.092C3.84519 31.162 3.55603 31.1272 3.52039 31.1117ZM3.62501 31.2759C3.90751 31.4619 3.93704 31.6813 3.94547 32.0023C3.60742 31.8904 3.65594 31.5631 3.62501 31.2759ZM8.53768 18.6089C8.50916 18.6861 8.38814 18.9265 8.29944 18.7583C8.27111 18.7045 8.4787 18.631 8.53768 18.6089ZM8.45657 18.3467C8.52638 18.2838 8.66712 18.3621 8.7461 18.3112C8.80147 18.2756 8.78313 18.2394 8.80915 18.2183C8.81434 18.214 8.88961 18.0617 8.92044 18.0271C8.97489 17.9664 9.09368 17.9285 9.15988 17.8736C9.34488 17.7202 9.44932 17.5186 9.56571 17.3135C9.70459 17.0686 9.74885 17.0403 9.97283 16.9281C10.1273 16.8509 10.247 16.7563 10.3726 16.6249C10.5174 16.4735 10.5068 16.3652 10.6257 16.1998C10.6844 16.1182 10.7689 16.1081 10.8373 16.0423C10.9194 15.9635 10.961 15.8533 11.0369 15.7738C11.0697 15.7395 11.1748 15.7396 11.1946 15.7101C11.2199 15.6728 11.2396 15.5238 11.2634 15.4964C11.3086 15.5576 11.354 15.6187 11.3992 15.6799C11.5777 15.3659 11.708 15.1066 12.0065 14.8976C12.32 14.6782 12.5906 14.3572 12.9147 14.1607C12.9875 14.1166 13.1359 14.098 13.1915 14.033C13.2856 13.9229 13.2041 13.8249 13.2727 13.7314C13.3506 13.6254 13.5014 13.7112 13.6004 13.6656C13.7257 13.6077 13.7615 13.4388 13.9228 13.4574C13.3925 14.0849 13.3991 15.0611 13.371 15.8447C13.3588 16.1824 13.5714 16.3526 13.2575 16.6004C12.9904 16.8112 12.6139 16.7487 12.2981 16.8874C11.9017 17.0616 11.4776 17.1542 11.0731 17.3061C10.6547 17.4631 10.3182 17.738 9.91551 17.9199C9.56043 18.0802 9.31793 18.3082 8.99313 18.5061C8.87239 18.5797 8.68536 18.6865 8.54138 18.5986C8.4512 18.5435 8.33888 18.4529 8.45657 18.3467ZM14.4463 13.0859C14.4694 12.9968 14.9221 12.7625 15.0334 12.6861C15.2006 12.5712 15.448 12.2906 15.6345 12.4021C15.6992 12.1432 15.9514 11.8551 16.1743 11.8002C16.4215 11.7393 16.8456 11.5272 17.0889 11.3422C17.1599 11.2882 17.1833 11.2091 17.2669 11.1584C17.4125 11.0701 17.5569 11.1183 17.6971 10.998C17.7186 10.9796 17.9125 10.6593 17.9202 10.6623C17.9301 10.6967 17.9392 10.7315 17.9471 10.7664C18.0943 10.6847 18.2254 10.6198 18.3172 10.5156C18.338 10.492 18.2031 10.4306 18.2457 10.3838C18.2978 10.3265 18.4142 10.3905 18.4669 10.3361C18.303 11.1497 18.425 12.1969 19.2504 12.6094C18.2688 12.7155 17.3102 12.4203 16.3165 12.6016C15.8408 12.6884 15.3573 12.8308 14.9247 13.0496C14.6596 13.1837 14.3206 13.6639 14.0567 13.4307C14.1614 13.2911 14.3212 13.2044 14.4463 13.0859ZM19.209 10.7454C19.576 10.2964 20.1328 10.1188 20.6935 10.2795C21.35 10.4678 21.0731 10.9265 20.974 11.4358C20.7845 11.1581 20.3742 10.8826 20.0247 10.8742C19.5294 10.8625 19.7166 11.2752 20.0141 11.4231C20.2845 11.5575 20.7483 11.5949 20.9419 11.8392C21.1303 12.077 21.0581 12.4658 21.0885 12.7462C20.942 12.7245 20.7955 12.7027 20.649 12.6809C20.7719 12.0265 20.2308 11.9948 19.7263 11.8103C19.2164 11.624 18.7913 11.2563 19.209 10.7454ZM20.8531 9.13393V9.74125C20.6491 9.62486 20.4449 9.50857 20.2407 9.39218C20.4449 9.3061 20.6491 9.22002 20.8531 9.13393ZM22.4938 13.9866C23.1754 14.1713 23.8522 14.3667 24.5074 14.6216C24.7453 14.7141 25.006 14.7468 25.2391 14.8514C25.4612 14.9508 25.4945 14.9404 25.4155 15.135C25.1943 15.6802 24.6703 15.586 24.2111 15.5026C23.4924 15.372 22.7886 15.1911 22.0789 15.0208C21.3852 14.8544 20.6769 14.7454 19.9937 14.5369C19.2926 14.323 18.6094 14.1204 17.8882 13.9792C17.6777 13.938 16.0129 13.7853 16.0255 13.6113C17.074 13.475 18.1536 13.6092 19.2068 13.6234C20.3014 13.6381 21.4322 13.6988 22.4938 13.9866ZM21.5687 11.8779C21.5817 11.5031 21.5869 11.127 21.6335 10.7544C21.9454 11.1395 22.227 11.2547 22.6202 10.8938C22.9967 10.5483 23.0807 10.3682 23.558 10.693C23.9718 10.9747 24.3632 10.9617 24.8027 10.7151C25.0707 10.5648 25.5014 9.95021 25.7832 10.0767C25.9174 10.137 26.0159 10.3801 26.1514 10.4695C26.3215 10.5815 26.5831 10.6593 26.7813 10.7027C27.2495 10.8053 27.5285 10.5041 27.8224 10.182C28.2486 9.71493 28.2361 9.98625 28.6313 10.3101C29.072 10.6714 29.4405 10.4949 29.8396 10.1866C30.0827 10.8989 30.1736 11.6768 30.2423 12.4236C30.2655 12.6757 30.3521 13.0338 30.1256 13.2121C29.966 13.3378 29.6272 13.3427 29.4349 13.4122C28.7478 13.6606 28.0877 14.013 27.5131 14.4642C27.2892 14.64 27.094 14.8553 26.7881 14.8152C26.4965 14.7771 26.2132 14.533 25.9787 14.3718C25.7242 14.1971 25.4667 13.9986 25.1693 13.9012C24.9952 13.8441 24.7162 13.8648 24.5638 13.7602C24.2805 13.5657 24.6139 13.0555 24.5433 12.713C24.4899 12.453 24.3403 11.9108 23.9821 12.0632C23.4492 12.29 23.7594 13.1752 24.0524 13.4515C23.4529 13.345 22.7891 13.1895 22.2109 12.992C21.7642 12.8394 21.5526 12.3351 21.5687 11.8779ZM31.6237 13.7035C32.8544 13.358 34.0061 13.125 35.2869 13.062C35.8538 13.0341 36.4027 13.0517 36.9633 13.0568C37.2861 13.0598 37.532 12.7995 37.2741 12.5001C36.9173 12.0855 35.8288 12.2434 35.3465 12.2247C34.0537 12.1748 32.8684 12.3217 31.6441 12.7479C31.7735 12.5094 32.0845 12.4784 32.2978 12.3551C32.5592 12.2037 32.737 11.9543 32.8488 11.6775C33.1394 10.9577 32.8468 10.2794 32.5428 9.6219C33.1401 9.78258 33.7579 10.1344 34.3584 10.2237C34.4843 10.2425 34.565 10.2304 34.6764 10.2763C34.7447 10.3044 34.7663 10.4016 34.851 10.4228C34.892 10.4331 34.9903 10.3406 35.0366 10.3537C35.2194 10.4054 35.0748 10.4191 35.1905 10.494C35.2822 10.5534 35.2748 10.6298 35.4431 10.6017C35.5178 10.5894 35.5987 10.4739 35.6381 10.4708C35.6881 10.4667 35.6766 10.4057 35.7532 10.4235C35.8927 10.456 35.8804 10.6356 35.9268 10.724C35.9765 10.8182 35.906 10.9434 36.0565 10.9949C36.169 11.0334 36.1972 10.9146 36.2928 10.9232C36.3509 10.9284 36.4715 11.012 36.5228 11.063C36.688 11.2272 36.9143 11.4085 37.1365 11.5154C37.1147 11.4934 37.2413 11.4405 37.211 11.4281C37.1906 11.4199 37.3236 11.4519 37.3215 11.4514C37.4499 11.4806 37.5176 11.6776 37.5824 11.7495C37.7017 11.8811 37.887 12.0201 38.0541 12.0782C38.3431 12.1788 38.3343 12.0586 38.4397 12.402C38.6452 12.079 38.724 12.6199 38.9788 12.6795C39.1107 12.7104 39.0954 12.6539 39.2153 12.7229C39.2976 12.7702 39.3525 12.9153 39.4145 12.9852C39.4412 12.8843 39.4678 12.7833 39.4943 12.6825C39.6779 13.0302 40.074 13.5815 40.5084 13.4818C40.5084 13.5767 40.4693 13.6901 40.5428 13.7711C40.594 13.8277 40.6771 13.7634 40.7173 13.7963C40.7523 13.825 40.8361 13.9394 40.8629 13.9582C40.9158 13.9953 41.0118 14.0223 41.0577 14.0593C41.0982 14.0918 41.1182 14.2472 41.1631 14.3034C41.2475 14.4089 41.3933 14.4298 41.4623 14.5564C41.478 14.4316 41.4937 14.3067 41.5094 14.1819C41.6462 14.2876 41.658 14.3697 41.6916 14.5244C41.7395 14.7446 41.676 14.693 41.8279 14.7859C41.9772 14.8774 42.055 14.8671 42.1919 15.0258C42.326 15.1813 42.3272 15.2771 42.5209 15.1151C42.5569 15.2349 42.5684 15.3899 42.6646 15.4818C42.7371 15.5512 43.0378 15.5541 43.0665 15.7181C42.5017 15.2415 42.8733 15.9653 43.0668 15.7193C43.1076 15.9826 43.3004 16.0677 43.5205 16.2552C43.7257 16.43 43.7593 16.4173 43.8294 16.7109C43.8279 16.7045 43.9326 16.7694 43.9402 16.7824C43.7402 16.8109 44.0503 17.0344 44.1027 17.0753C44.1409 17.1051 44.1907 17.0339 44.2542 17.0822C44.3269 17.1374 44.3861 17.2629 44.4452 17.3386C44.6055 17.5439 44.7241 17.7202 44.8928 17.8871C45.0749 18.0673 45.1634 18.2949 45.3382 18.5055C45.5321 18.7393 45.637 19.0081 45.7991 19.2619C45.9533 19.5033 46.158 19.697 46.3365 19.918C46.621 20.2698 46.7178 21.0445 47.2482 21.0648C47.2171 21.097 47.2604 21.3371 47.2655 21.3814C47.2906 21.5994 47.2739 21.8092 47.4029 22.0067C47.4324 21.7814 47.5503 21.8682 47.6527 21.9866C47.8229 22.1835 47.6734 22.1339 47.6824 22.3334C47.6933 22.5753 47.7208 22.3882 47.8129 22.5993C47.8851 22.7648 47.9246 22.8721 47.9633 23.0556C47.6637 23.0793 47.5265 22.8345 47.4157 22.5973C47.3694 22.4981 47.3534 22.335 47.2715 22.2574C47.1843 22.1749 47.0644 22.1684 46.9748 22.0763C46.8028 21.8993 46.7283 21.6233 46.5255 21.4511C46.2964 21.2565 46.2457 21.1645 46.0563 20.9319C45.8469 20.6745 45.5576 20.4938 45.3379 20.2449C45.1178 19.9956 45.1357 20.1317 44.8592 20.0415C44.5652 19.9454 44.0899 19.021 43.7195 19.3771C43.7342 19.1442 43.3854 18.9251 43.2091 18.8407C43.1329 18.8043 43.0442 18.8373 42.9679 18.7826C42.8852 18.7233 42.8793 18.609 42.7958 18.5378C42.7959 18.5379 42.668 18.5688 42.6421 18.5558C42.5892 18.529 42.5888 18.4343 42.5421 18.4032C42.4131 18.3169 42.2592 18.2265 42.1222 18.153C41.7893 17.9744 41.495 17.7545 41.1738 17.5395C40.8986 17.3553 40.5654 17.0227 40.2473 16.9256C39.9694 16.8408 39.7947 16.8839 39.5672 16.7141C39.4432 16.6216 39.4797 16.5906 39.2806 16.533C39.0909 16.4783 38.9845 16.5064 38.884 16.3054C38.7083 15.9535 38.8192 15.2668 38.7852 14.8722C38.7491 14.4535 38.7062 14.0243 38.5971 13.6172C38.4679 13.136 38.2973 12.8844 37.7811 12.9977C36.7584 13.2225 35.748 13.4364 34.7207 13.6338C32.6734 14.027 30.6613 14.6688 28.6591 15.2386C28.5066 15.2821 27.6557 15.4769 27.8295 15.0369C27.9096 14.8339 28.4481 14.7583 28.6284 14.6946C29.618 14.3443 30.6122 13.9875 31.6237 13.7035ZM31.2797 12.808C31.1302 12.865 30.9808 12.922 30.8312 12.9791V12.5633C30.9808 12.6449 31.1302 12.7264 31.2797 12.808ZM30.6584 10.6096C30.7883 10.7158 31.0524 10.4602 31.1629 10.4084C31.3516 10.32 31.5919 10.2441 31.8027 10.2623C32.1915 10.2959 32.4758 10.6787 32.4046 11.0668C32.2841 11.7234 31.3485 12.0339 30.8327 12.2906C30.8161 12.0579 30.7409 11.7782 30.904 11.5769C31.0457 11.4022 31.3204 11.4148 31.4511 11.229C31.7801 10.7618 30.8885 10.7194 30.6893 11.0909C30.6107 10.8535 30.5321 10.6161 30.4535 10.3787C30.6432 10.3473 30.5598 10.5292 30.6584 10.6096ZM31.5785 9.32435C31.3929 9.44435 31.2072 9.56435 31.0217 9.68435C30.9296 9.26894 31.2432 9.21427 31.5785 9.32435ZM48.4925 23.7828C48.2493 23.8989 48.1886 23.6218 48.0138 23.6098C48.2203 23.4829 48.2203 23.4829 48.4925 23.7828ZM49.4811 29.8323C49.5113 30.2305 49.4876 30.6333 49.5407 31.0299C49.5811 31.3316 49.7033 31.6124 49.7163 31.9175C49.7448 32.5858 49.5192 33.2663 49.0635 33.7562C48.6324 34.2196 48.0155 34.6185 47.4336 34.8133C47.1714 34.901 46.8977 35.0955 46.643 35.1674C46.3612 35.247 46.0935 35.0738 45.8611 35.3844C45.7061 34.0521 45.8194 32.6599 45.8072 31.3192C45.7949 29.9756 45.8094 28.6315 45.5821 27.3023C45.3797 26.1185 44.9806 24.787 44.2451 23.8186C43.9463 23.4253 43.5784 23.1033 43.1905 22.8017C42.9892 22.6453 42.7878 22.478 42.5636 22.3545C42.2185 22.1644 41.9247 22.1907 41.5494 22.1365C41.0123 22.0589 40.513 21.9934 39.974 22.1446C39.4721 22.2855 38.9195 22.4459 38.4699 22.6905C38.0222 22.9343 37.5022 23.0348 37.0374 23.2531C36.7212 23.4016 36.0643 23.8978 35.7135 23.8085C35.3739 23.722 34.8712 23.1456 34.6544 22.8874C34.3772 22.5575 34.148 22.175 33.9022 21.82C33.8159 21.6954 33.6399 21.5028 33.6175 21.3427C33.5785 21.0649 33.6898 21.1557 33.9551 21.1868C34.6375 21.2668 35.2793 21.3934 35.9332 21.6082C36.2587 21.7151 36.8951 22.1474 37.2205 21.8883C37.7174 21.4928 36.9624 20.8129 36.6858 20.5845C36.2146 20.1953 35.6668 19.9063 35.1645 19.5604C34.6309 19.1929 33.9252 18.8017 33.5818 18.2358C34.5847 18.5319 35.5865 18.8709 36.5601 19.2526C37.0055 19.4272 37.4458 19.6117 37.8641 19.8439C38.0991 19.9743 38.5739 20.327 38.8569 20.158C39.472 19.7908 38.0592 18.7243 37.8553 18.5064C37.5386 18.1677 37.2282 17.8323 36.8801 17.525C36.6452 17.3177 36.2762 17.1719 36.167 16.8662C36.5568 17.0073 36.872 17.2837 37.2371 17.4715C37.4282 17.5699 37.6025 17.6266 37.8136 17.6567C38.0386 17.6889 38.0655 17.7248 38.2428 17.8142C38.3809 17.884 38.5227 17.9772 38.6777 18.0246C38.7882 18.0585 38.9811 18.0643 39.0777 18.1269C39.127 18.1974 39.178 18.2666 39.2307 18.3346C39.2895 18.3519 39.3475 18.3718 39.4046 18.3945C39.4903 18.4709 39.541 18.5762 39.6243 18.6549C40.229 19.2267 41.0376 19.6359 41.7155 20.1149C42.3568 20.568 43.0373 20.9779 43.6532 21.4725C44.362 22.0417 45.0976 22.6535 45.7005 23.336C46.0412 23.7218 46.3213 24.1592 46.6075 24.5857C46.8147 24.8945 47.1161 25.1507 47.2952 25.4692C47.6857 26.1636 48.0099 26.9141 48.4302 27.5973C48.8587 28.2933 49.4167 28.985 49.4811 29.8323ZM43.7195 33.8609C43.8363 33.3791 44.4952 32.8164 44.9163 32.604C44.7041 33.129 44.1387 33.487 43.7195 33.8609ZM44.8061 35.5419C44.4469 36.2871 42.8676 36.3723 43.0819 35.2695C43.1869 34.7292 43.6325 34.3977 44.015 34.044C44.1918 33.8807 44.6249 33.2962 44.8987 33.3903C44.8858 33.8105 44.8611 34.2326 44.862 34.6529C44.8626 34.9335 44.9332 35.2781 44.8061 35.5419ZM44.3496 26.9529C44.4953 27.2802 44.6405 27.5527 44.3702 27.8455C44.2482 27.9776 43.8506 28.2667 43.6708 28.2025C43.0935 27.9966 44.1941 27.1001 44.3496 26.9529ZM40.8579 24.0408C40.997 24.0332 41.132 24.0539 41.2694 24.0455C41.4062 24.0369 41.4207 24.0127 41.5475 24.03C41.561 24.0494 41.5743 24.0689 41.5877 24.0884C41.605 24.2189 41.6736 24.2331 41.7934 24.131C41.9599 24.168 42.0683 24.1928 42.2275 24.2828C41.7977 24.5927 41.2745 24.9531 40.7475 25.0572C39.9145 25.2215 40.1446 24.0801 40.8579 24.0408ZM28.0883 31.0112C28.0019 31.1849 27.7535 30.7508 27.692 30.6699C27.8067 30.6695 28.1756 30.8358 28.0883 31.0112ZM34.7811 26.4374C35.4283 26.0598 36.1969 25.7281 36.892 25.447C37.0142 26.0359 36.4181 26.7961 36.051 27.199C35.7542 27.5249 35.3962 27.8628 34.9937 28.0504C34.5585 28.2531 34.0829 28.1641 34.104 27.5951C34.1118 27.3872 34.1591 27.0527 34.2437 26.8626C34.3529 26.6176 34.5592 26.5667 34.7811 26.4374ZM26.0329 15.7258C26.1292 15.7202 27.1756 15.5849 27.17 15.7151C27.1535 16.1064 26.1379 15.7991 26.0329 15.7258ZM18.6336 23.2816C19.1863 22.5997 20.0785 21.8637 20.0916 20.9106C20.1108 19.5083 18.5545 20.208 17.772 20.2663C18.1858 19.8597 20.2649 18.1543 19.0351 17.5485C18.6816 17.3744 18.1792 17.5445 17.8245 17.6357C17.1952 17.7976 16.61 18.0779 15.9918 18.273C16.4335 17.8027 17.1968 17.2682 17.1718 16.556C17.1413 15.689 16.4296 15.8987 15.8143 16.0259C15.5778 16.0748 14.5214 16.495 14.323 16.2097C14.2503 16.1052 14.3679 15.9724 14.3928 15.8794C14.4368 15.7147 14.4232 15.6573 14.4247 15.4891C14.4277 15.1497 14.6532 14.714 14.4693 14.3984C14.4273 14.4702 14.3912 14.5447 14.3613 14.6223C14.3007 14.4386 14.3414 14.2439 14.2808 14.0602C15.817 14.4531 17.3799 14.6682 18.9258 15.0035C19.7083 15.1733 20.4449 15.4656 21.2382 15.5972C22.0383 15.7298 22.8245 15.9328 23.626 16.0593C24.3574 16.1747 25.058 16.3668 25.7823 16.5141C26.4883 16.6578 27.2123 16.343 27.9014 16.1836C29.4448 15.8267 30.9876 15.461 32.533 15.1146C34.3164 14.7148 36.1716 14.3729 37.8786 13.7061C37.9116 14.5949 37.9827 15.4819 38.0913 16.3646C37.3375 16.0082 36.2187 15.5435 35.4566 16.1812C35.1516 16.4363 35.0576 16.8768 35.1782 17.2515C35.3094 17.6593 35.7113 17.8487 35.9765 18.1557C35.1694 17.9487 33.0873 16.4899 32.7166 17.9645C32.4549 19.0059 33.7317 19.6787 34.356 20.2649C33.7361 20.1435 32.9058 19.6478 32.5417 20.4445C32.2271 21.1331 32.6061 21.8825 32.9942 22.4505C33.2046 22.7583 33.4412 23.0479 33.6648 23.3461C33.783 23.5038 33.8985 23.6638 34.0227 23.8169C34.1473 23.9704 34.3824 24.1312 34.4697 24.2964C34.6456 24.6296 34.2908 24.65 34.0148 24.7704C33.6703 24.9207 33.3745 25.1731 33.0594 25.3743C32.3379 25.8349 31.7074 26.2627 30.8548 26.41C29.9771 26.5615 29.1319 26.7197 28.2657 26.9311C27.4022 27.1418 26.6973 27.3443 25.8147 27.0719C25.4123 26.9478 25.0845 26.8374 24.6577 26.8608C24.2093 26.8853 23.9472 26.8621 23.5786 26.5843C21.9924 25.3897 20.2707 24.4094 18.6336 23.2816ZM15.7741 22.0823C16.3871 21.7747 17.0042 21.4656 17.6375 21.2013C18.1616 20.9825 18.9575 20.7275 19.5313 20.8234C19.3695 21.239 19.0744 21.5799 18.7578 21.8858C18.4778 22.1564 18.128 22.5648 17.7892 22.7536C17.4815 22.9251 17.1236 22.6536 16.8202 22.5398C16.4867 22.4149 16.028 22.3566 15.7741 22.0823ZM15.9281 23.634C16.2336 23.5071 16.8902 23.9331 17.168 24.0438C17.714 24.2615 18.2631 24.4889 18.7443 24.8324C18.1567 25.5115 17.4913 26.1323 16.7005 26.5685C16.1803 26.8555 15.3034 27.1846 14.8127 26.6636C14.1962 26.0088 14.9373 24.6746 15.3738 24.1136C15.3883 24.2096 15.4028 24.3055 15.4173 24.4015C15.5566 24.1785 15.6629 23.7443 15.9281 23.634ZM27.1432 29.4459C26.7621 29.5261 26.6325 29.4537 26.381 29.1614C26.2109 28.9639 26.0437 28.7587 25.852 28.5811C25.6563 28.3998 25.1729 27.9627 25.7887 28.2144C26.35 28.4437 26.8309 28.5585 27.4484 28.4686C28.1545 28.3659 28.8128 28.0673 29.509 27.9162C29.1274 28.2502 28.7485 28.5875 28.3661 28.9205C27.9621 29.2723 27.6565 29.3378 27.1432 29.4459ZM27.2303 32.1318C26.3951 32.7604 24.7137 32.6924 25.2796 31.3094C25.3656 31.0994 25.4859 30.9017 25.625 30.7228C25.6714 30.663 25.754 30.5392 25.8201 30.4991C26.0049 30.3871 25.9537 30.3735 26.1312 30.5604C26.2845 30.7215 27.4819 32.0382 27.2303 32.1318ZM26.9827 29.7289C27.0592 29.7041 27.3816 29.5172 27.455 29.6206C27.5294 29.7253 26.8973 30.0875 26.9827 29.7289ZM33.0629 39.3147C32.8752 39.764 31.3722 40.4145 31.6522 39.5087C31.7762 39.1075 31.8931 38.8037 32.361 38.7732C32.631 38.7557 33.2283 38.919 33.0629 39.3147ZM35.7589 33.2255C36.0063 32.8652 36.8233 32.378 37.1722 32.9153C37.3402 33.1741 36.9324 33.3067 36.6857 33.2402C36.5533 33.2043 36.445 33.1252 36.301 33.1193C36.1159 33.1117 35.935 33.2569 35.7589 33.2255ZM36.4148 33.583C36.2466 33.7534 35.2319 34.6072 35.0675 34.4755C35.3989 34.0018 35.7793 33.4728 36.4148 33.583ZM34.7576 42.2231C34.4053 42.243 34.5812 41.7121 34.6153 41.4998C34.7006 41.6477 35.1491 42.2009 34.7576 42.2231ZM35.6529 41.2714C35.5389 41.0686 35.2318 40.7667 35.3012 40.5058C35.3544 40.3063 35.8337 40.038 36.0344 40.1524C36.301 40.3046 35.9145 41.3051 35.6529 41.2714ZM44.0133 39.1446C43.8626 39.6639 43.7064 39.5299 43.2338 39.6306C42.7596 39.7315 42.4319 40.1341 42.0145 40.35C42.1595 40.0435 42.2494 39.6699 42.4921 39.4212C42.5483 39.3638 42.8923 39.2504 42.6963 39.1173C42.5249 39.001 42.2785 39.3784 42.205 39.4813C41.8435 39.9875 41.5906 40.6057 41.3818 41.1881C41.2791 41.4742 41.1969 41.7656 41.1483 42.066C41.105 42.3337 41.1517 42.6139 41.1076 42.8746C41.0364 43.2946 40.4661 43.2967 40.123 43.405C39.8125 43.503 39.5033 43.6093 39.181 43.6621C38.9016 43.7078 38.6116 43.6244 38.3408 43.6795C38.0475 43.7391 37.9158 43.9131 37.5824 43.8737C37.3107 43.8417 37.0564 43.7167 36.781 43.7042C36.5232 43.6926 36.2661 43.7818 36.0099 43.7092C35.7513 43.6359 35.7638 43.6076 35.8226 43.3535C35.8593 43.4221 35.8962 43.4906 35.933 43.5591C36.0361 43.4783 36.1074 43.2319 36.1705 43.1162C36.2685 42.937 36.3483 42.875 36.312 42.6518C36.2585 42.3221 35.9613 42.0875 35.8939 41.774C35.8235 41.4468 36.0654 41.1792 36.2084 40.9061C36.4039 40.5322 36.4013 40.2549 36.2375 39.8682C36.361 39.9009 36.4845 39.9335 36.6081 39.9662C36.4388 39.5986 35.8645 39.7476 35.5766 39.8565C35.4319 39.9111 35.2025 40.1262 35.0468 40.1207C34.8328 40.1132 34.7212 39.8319 34.6293 39.677C34.3632 39.2288 34.0594 38.7861 33.7446 38.37C33.658 38.2555 33.5446 38.1819 33.5745 38.0515C33.6 37.9408 33.8481 37.7839 33.9286 37.7157C34.2306 37.4604 34.6148 37.3189 34.8984 37.0501C35.327 36.6441 35.8213 36.3531 36.2594 35.9551C36.716 35.5404 37.1863 35.1595 37.6621 34.7677C38.1439 34.3708 38.5613 33.9031 39.0396 33.5022C39.1636 33.7268 39.4037 34.531 39.6783 34.5933C39.9985 34.6657 39.989 34.2869 39.973 34.059C39.9504 33.7341 39.77 33.4185 39.7499 33.1084C39.7283 32.7768 40.0474 32.6285 40.2882 32.4367C40.6602 32.1404 41.4834 31.4654 41.0409 30.9099C40.6597 30.4314 39.4201 31.3488 39.0784 31.6247C38.7881 31.8591 38.5637 32.0711 38.2368 32.2561C38.0069 32.386 37.6212 32.8858 37.3488 32.8397C37.0246 32.7848 36.8979 32.4309 36.5015 32.4425C36.114 32.4538 35.7848 32.7329 35.5445 33.0132C35.0013 33.6465 34.8146 34.494 34.3197 35.1542C34.0756 35.4798 33.759 35.7485 33.4943 36.0565C33.2036 36.3946 33.1418 36.784 32.8552 37.1148C32.0348 36.022 31.141 34.9872 30.276 33.9302C29.8439 33.4024 29.4209 32.8682 28.9981 32.333C28.8397 32.1324 28.661 31.9442 28.5159 31.7335C28.3172 31.4449 28.3529 31.2132 28.2749 30.8914C28.2404 30.7487 28.0784 30.5779 28.1217 30.4416C28.1801 30.2584 28.5896 30.1146 28.7373 30.0397C29.3403 29.7335 29.8874 29.3509 30.4497 28.9769C31.491 28.2844 32.5444 27.6351 33.6519 27.0436C33.6328 27.2984 33.467 27.5625 33.5784 27.8182C33.6302 27.6711 33.7124 27.0159 33.9087 26.9877C33.8711 26.9931 33.9021 27.828 33.9324 27.9472C34.0231 28.3029 34.286 28.5461 34.6623 28.5437C35.3789 28.5391 36.0212 27.7596 36.419 27.2432C36.6882 26.8936 36.9469 26.487 37.0417 26.0494C37.127 25.6565 37.0332 25.3832 37.4416 25.1837C38.2797 24.7744 39.1244 24.4409 40.0206 24.2239C39.9804 24.6101 39.8685 25.0856 40.2195 25.3634C40.607 25.67 41.114 25.3968 41.4788 25.1939C41.8402 24.993 42.3974 24.4411 42.8219 24.6014C43.2394 24.7592 43.5299 25.2827 43.7636 25.6304C43.9695 25.9368 44.1937 26.1578 43.9552 26.4994C43.6879 26.8822 43.5139 27.2558 43.2997 27.6716C43.2174 27.8314 43.1389 27.9357 43.197 28.0994C43.2159 28.1526 43.4306 28.469 43.4888 28.5143C43.8606 28.8037 44.3628 28.2533 44.6282 28.0444C44.7218 28.9441 44.7427 29.8399 44.7805 30.7424C44.8082 31.4035 45.0641 32.0543 44.5216 32.5375C43.9793 33.0206 43.5267 33.5165 43.1961 34.1706C43.0195 34.5201 42.8612 34.8787 42.6702 35.2209C42.5426 35.4495 42.2734 35.7847 42.4382 36.0538C42.612 35.8889 42.6637 35.6381 42.8085 35.4522C42.8953 35.8381 42.9826 36.2663 43.3908 36.4299C43.8605 36.6181 44.3274 36.2924 44.7434 36.1112C44.5942 37.143 44.3033 38.1456 44.0133 39.1446ZM43.5331 40.3306C43.2108 41.0196 42.9196 41.8503 42.3244 42.3576C42.1936 42.469 41.6383 42.9039 41.4269 42.8311C41.2475 42.7692 41.3462 42.4067 41.3775 42.2514C41.5362 41.4629 41.8105 40.9668 42.4498 40.4638C42.7145 40.2556 43.0542 39.9894 43.3954 39.9381C43.7627 39.8828 43.6569 40.0659 43.5331 40.3306ZM52.6259 56.6844C51.7901 55.5479 50.6088 54.6646 49.4924 53.8108C48.9868 53.424 48.4296 53.134 47.9187 52.7471C47.3411 52.3097 46.7545 51.8878 46.1075 51.5582C44.8809 50.9332 43.5428 50.4975 42.3852 49.7584C41.8207 49.3979 41.2031 49.0496 40.6724 48.645C40.4392 48.4671 40.2333 48.2398 40.0227 48.0363C39.8269 47.847 39.4067 47.5724 39.3288 47.2955C39.6545 47.2422 39.8398 46.9261 40.1305 46.8939C40.2263 46.8832 40.8264 47.042 40.7443 46.7509C40.962 46.7455 40.9874 46.7422 41.1698 46.6946C41.2453 46.6748 41.3349 46.7057 41.4112 46.6786C41.5281 46.6374 41.6076 46.5182 41.7257 46.4726C41.8096 46.4401 42.1211 46.4764 42.1684 46.436C42.2973 46.3258 42.1603 46.3355 42.0834 46.1979C42.334 46.1915 42.5061 46.3182 42.7574 46.1835C42.8339 46.1425 42.8986 46.048 42.9728 45.999C43.1043 45.9121 43.1518 46.0469 43.2419 45.8664C43.3261 46.1153 43.3238 46.0465 43.5269 45.9733C43.7292 45.9004 43.8754 45.8477 44.1058 45.8295C44.6563 45.7859 45.2088 45.8527 45.7567 45.8136C45.9572 45.7993 46.1285 45.7538 46.3276 45.78C46.503 45.8031 46.4501 45.925 46.5959 45.7607C46.6298 45.7225 46.5203 45.618 46.5728 45.5632C46.5959 45.5389 46.6714 45.5559 46.7 45.5435C46.9562 45.4317 46.9573 45.5879 47.0028 45.7915C47.1531 45.7563 47.3063 45.7244 47.4368 45.6363C47.3709 45.5774 47.2606 45.5125 47.3243 45.405C47.5409 45.4871 47.6826 45.4492 47.5743 45.687C47.7923 45.759 47.833 45.6652 48.0289 45.6446C48.1447 45.6325 48.3064 45.7044 48.4028 45.6119C48.5082 45.5109 48.342 45.4012 48.5355 45.3144C48.5752 45.3346 48.6046 45.365 48.6239 45.4057C48.7284 45.4373 48.7096 45.4785 48.5675 45.5292C48.9481 45.7264 48.8587 45.5059 49.0185 45.2726C49.0554 45.2188 49.2208 45.0517 49.2961 45.1325C49.4103 45.2548 49.1771 45.2937 49.2271 45.4154C49.3137 45.6263 49.6161 45.356 49.7089 45.2491C49.7792 45.1684 49.8078 45.0137 49.8835 44.9533C49.9886 44.8696 50.1399 44.999 50.2716 44.9759C50.873 44.8704 51.4409 44.0618 50.9879 43.5206C50.8661 43.3751 50.7631 43.404 50.618 43.3122C50.4746 43.2215 50.3941 43.0645 50.279 42.9348C50.0162 42.639 49.6945 42.4173 49.3271 42.2756C48.4749 41.9469 47.5567 41.7071 46.6618 41.5306C46.2473 41.4489 45.8061 41.3239 45.3818 41.3248C45.1318 41.3253 44.7553 41.5197 44.5216 41.4266C44.0673 41.2455 44.7343 40.3187 44.8444 40.0193C45.1677 39.1398 45.4117 38.2021 45.5717 37.2787C45.603 37.0981 45.591 36.864 45.6561 36.6918C45.7308 36.4939 45.7468 36.5219 45.9067 36.5058C46.1956 36.4766 46.5115 36.6281 46.8123 36.5757C47.1457 36.5177 47.5061 36.5447 47.8427 36.4415C47.9974 36.3942 48.1408 36.3427 48.2427 36.2121C48.2748 36.1711 48.239 36.1355 48.2593 36.1068C48.2656 36.0978 48.3807 35.9737 48.3844 35.9665C48.3833 35.9023 48.3889 35.8386 48.4012 35.7755C48.5178 35.8723 48.4603 36.0754 48.6569 36.0801C48.692 35.8636 48.6924 35.8199 48.8345 35.6981C48.8237 35.7075 48.9415 35.6073 48.9264 35.6179C48.9336 35.5794 48.9477 35.5433 48.9688 35.51C49.0353 35.4779 49.1055 35.4609 49.1794 35.4589C49.333 35.3009 49.2692 35.2167 49.2692 35.004C49.3932 35.0684 49.5172 35.1328 49.6411 35.1972C49.6711 34.5672 50.0547 34.2222 50.3096 33.7117C50.4183 33.4941 50.5289 33.3241 50.5548 33.0616C50.5698 32.9102 50.5308 32.7767 50.5934 32.634C50.6503 32.5045 50.7775 32.4348 50.8307 32.2937C50.9353 32.0162 50.8572 31.6619 50.863 31.3738C50.8709 30.9741 50.9108 30.5757 50.9239 30.1763C50.9495 29.3921 50.8707 28.5862 50.7533 27.811C50.6972 27.4403 50.6033 27.0806 50.5296 26.7137C50.469 26.4122 50.3239 26.1294 50.2721 25.8489C50.2505 25.7323 50.2838 25.6277 50.2486 25.4988C50.2023 25.3293 50.1249 25.1627 50.0673 24.9963C49.9329 24.6076 49.7999 24.2194 49.6487 23.8367C49.3557 23.095 49.0126 22.3756 48.6867 21.6482C48.3732 20.9486 48.1136 20.2274 47.7075 19.5743C47.3075 18.9309 46.8769 18.2984 46.436 17.6825C45.9769 17.0412 45.3963 16.4901 44.9511 15.8429C44.115 14.6276 42.9488 13.6262 41.7287 12.7992C39.2111 11.0927 36.4904 9.38894 33.4715 8.80386C33.0165 8.71574 32.5557 8.65458 32.092 8.64318C31.8043 8.63605 31.3276 8.77514 31.0552 8.67775C30.7501 8.56868 30.778 8.22601 30.7017 7.9572C30.6034 7.61165 30.3819 7.38528 30.1303 7.14101C29.8655 6.88387 29.6251 6.58355 29.2949 6.40869C28.9602 6.23161 28.5653 6.16536 28.1945 6.1118C27.8634 6.06389 27.3687 6.10865 27.0662 5.96437C26.7908 5.83288 26.9268 5.69602 27.1847 5.8086C27.2036 5.69481 27.2189 5.62133 27.2919 5.53339C27.3284 5.48919 27.5014 5.4272 27.5056 5.38596C27.5105 5.33769 27.3654 5.20017 27.3446 5.1379C27.3 5.00382 27.3254 4.81812 27.3783 4.69229C27.6384 4.92348 27.7138 5.02587 28.0042 4.80487C28.1268 4.71156 28.1644 4.67042 28.3065 4.62334C28.345 4.61056 28.4314 4.65003 28.465 4.62788C28.5933 4.54337 28.4753 4.5633 28.5363 4.46341C28.5209 4.48861 28.6287 4.22313 28.6236 4.27863C28.6366 4.13723 28.6785 4.18069 28.5931 4.00694C28.4259 3.66705 28.0001 3.65316 28.2171 3.26527C28.3025 3.11265 28.3777 3.12784 28.4017 2.90656C28.4146 2.78758 28.3986 2.65118 28.398 2.53016C28.397 2.28266 28.4436 2.10938 28.2117 1.98336C27.9888 1.86215 27.7831 1.99512 27.6927 1.69452C27.5979 1.3791 27.6933 0.974713 27.3517 0.758714C27.102 0.600908 26.7414 0.735826 26.4655 0.658637C26.189 0.581355 25.9348 0.298453 25.6541 0.515657C25.4548 0.670035 25.3489 1.04958 24.9733 0.844335C24.8038 0.751764 24.7104 0.44097 24.6035 0.26667C24.4331 -0.0111358 24.2966 -0.111491 24.0344 0.159087C23.8729 0.325975 23.5321 0.732212 23.5113 0.963222C23.4884 1.21823 23.7109 1.3248 23.4316 1.47565C23.1537 1.62577 22.9978 1.51568 22.7722 1.82036C22.5485 2.12263 22.7217 2.28961 22.4625 2.57881C22.1386 2.94029 21.9662 3.09634 21.9707 3.58338C21.9738 3.91743 21.6787 4.20599 21.8509 4.5229C22.0438 4.87808 22.607 5.02578 22.9484 5.17034C22.8345 5.38096 22.6781 5.51597 22.8111 5.73281C22.9317 5.92916 23.2724 5.96993 23.4836 5.93426C23.6257 5.91035 23.6307 5.93185 23.7426 5.83196C23.8158 5.76653 23.7154 5.6849 23.8662 5.64867C24.0268 5.60993 24.2831 5.92462 24.3874 6.00329C24.1544 6.30565 23.5145 6.36218 23.176 6.51544C22.9697 6.60894 22.7801 6.74719 22.57 6.83078C22.3795 6.90658 22.1475 6.88897 21.9748 7.00628C21.6763 7.20884 21.5522 7.71071 21.3693 8.00575C21.1623 8.33971 20.9615 8.49483 20.5643 8.56414C20.0688 8.6506 19.6697 8.68535 19.2076 8.90116C18.6433 9.1647 18.087 9.44296 17.5327 9.72707C16.6387 10.1853 15.8082 10.6557 14.9781 11.2099C14.1096 11.7898 13.2648 12.395 12.4268 13.001C11.598 13.6002 10.9021 14.3375 10.1821 15.0622C9.60006 15.648 9.08933 16.2803 8.50953 16.866C7.8251 17.5575 7.32169 18.4303 6.68707 19.1639C6.33986 19.5653 6.00764 19.9599 5.78978 20.4327C5.61321 20.8159 5.30618 21.192 5.10118 21.594C4.83924 22.1081 4.59138 22.614 4.29731 23.111C4.17667 23.315 4.03325 23.49 3.90593 23.6847C3.74279 23.9341 3.75242 24.1749 3.70853 24.4624C3.6627 24.3922 3.61696 24.3221 3.57113 24.252C3.48807 24.4334 3.38761 24.6119 3.31567 24.7977C3.26974 24.9162 3.27697 25.0845 3.23086 25.1882C3.17299 25.3184 3.10253 25.301 3.0304 25.4095C2.95327 25.5254 2.92846 25.6812 2.84716 25.8055C2.49578 26.343 2.3606 27.025 2.18005 27.6382C1.93783 28.461 1.97607 29.4066 1.98922 30.2549C2.0032 31.151 2.05218 32.0471 2.1869 32.9337C2.30893 33.7366 2.56985 34.5067 2.97836 35.2108C3.33428 35.8242 3.8251 36.1817 4.45379 36.4959C4.74249 36.6402 5.01044 36.5956 5.31349 36.6187C5.64543 36.6439 5.87181 36.7341 6.22301 36.6548C6.39152 36.6167 6.47124 36.494 6.60513 36.4531C6.688 36.4278 6.73263 36.4691 6.81216 36.4595C6.92595 36.4457 7.16262 36.3899 7.28604 36.4034C7.67001 36.4452 7.60557 37.0258 7.64334 37.3221C7.70149 37.7788 7.74408 38.2402 7.82251 38.6939C7.98741 39.6482 8.34342 40.5396 8.55379 41.4773C7.57862 41.5963 6.74216 41.7783 5.8282 42.1474C4.91128 42.5176 3.98426 42.6432 3.01929 42.8273C2.11653 42.9994 1.24822 43.3212 0.525643 43.904C0.186948 44.1771 -0.164896 44.4967 0.0838018 44.9464C0.242872 45.234 0.529532 45.3071 0.777026 45.4743C0.827025 45.411 0.682399 45.2769 0.655918 45.2398C0.863969 45.2825 0.85758 45.3796 1.00952 45.4641C1.1423 45.538 1.251 45.5354 1.39636 45.5875C1.75126 45.715 1.92561 46.0331 2.27644 46.1225C2.3868 46.1506 2.53115 46.2177 2.64402 46.2368C2.77957 46.2597 2.88105 46.2004 3.01845 46.2255C3.09262 46.2744 3.1728 46.3093 3.259 46.3302C3.31548 46.304 3.37132 46.2763 3.42632 46.2471C3.62372 46.2676 3.74566 46.3918 3.90603 46.4938C3.91677 46.3653 3.9013 46.2317 4.02297 46.1479C4.07047 46.2729 3.99371 46.352 4.12334 46.438C4.28759 46.5471 4.50333 46.4109 4.65036 46.342C4.69193 46.7574 5.65376 46.7329 5.95866 46.727C6.38087 46.7189 6.80262 46.5513 7.22854 46.6448C7.44585 46.6924 7.67779 46.7422 7.89408 46.8041C8.15454 46.8785 8.46944 46.945 8.72582 47.0389C8.82776 47.0763 8.95267 47.1959 9.06118 47.1878C9.14757 47.1813 9.17072 47.0539 9.27127 47.0575C9.38506 47.0617 9.4233 47.1885 9.52182 47.2267C9.66922 47.2836 9.80478 47.1752 9.94486 47.23C9.99523 47.2496 10.0635 47.3341 10.1279 47.3616C10.2258 47.4033 10.4194 47.4038 10.5283 47.4239C10.6826 47.4526 10.8209 47.4333 10.9531 47.4427C11.0597 47.4504 11.0574 47.5222 11.1084 47.5268C11.167 47.5321 11.2689 47.3308 11.3475 47.3013C11.4621 47.2583 11.6699 47.3607 11.7867 47.3787C10.9406 48.5256 9.92042 49.5393 8.81461 50.4268C7.62177 51.3843 6.40032 52.3405 5.12118 53.1803C3.95982 53.9428 2.83559 54.6023 1.93515 55.6787C1.17591 56.5863 -0.0326769 57.5574 0.153615 58.873C0.339814 60.1874 1.7671 60.7224 2.91077 60.9733C4.34916 61.2889 5.82987 61.1619 7.27215 61.3393C7.88723 61.415 8.57064 61.3746 9.18979 61.3101C9.92107 61.234 10.5478 60.7567 11.1765 60.4117C12.3073 59.7909 13.2741 58.9604 14.388 58.3203C15.7826 57.5187 17.1626 56.6695 18.6915 56.1326C19.4028 55.8829 20.1351 55.5979 20.7089 55.0843C20.7942 55.0078 20.8578 54.8924 20.9543 54.8294C21.1183 54.7224 21.1623 54.8309 21.2575 54.7985C21.3307 54.7736 21.4016 54.6944 21.465 54.6707C21.6254 54.6106 21.697 54.6354 21.8766 54.6354C21.7225 54.5465 21.5813 54.3174 21.7413 54.1307C22.0153 53.8108 22.0625 54.3219 22.1655 54.4403C22.2527 54.3282 22.2193 54.2284 22.197 54.101C22.2707 54.1496 22.3445 54.1983 22.4183 54.247C22.3674 54.0005 22.4158 53.7733 22.5464 53.5585C22.6669 53.3604 22.6966 53.3883 22.7298 53.1139C23.104 53.4554 23.1771 52.6263 23.2108 52.3241C23.2434 52.031 23.2112 51.8205 23.404 51.5642C23.6109 51.289 23.9256 51.1151 24.1883 50.9013C24.6033 50.5635 25.0599 50.1368 25.6338 50.4608C26.0868 50.7166 26.3333 51.3437 26.7584 51.6659C27.0161 51.8614 27.2883 51.8811 27.4526 52.1843C27.5855 52.4293 27.6286 52.7225 27.7541 52.9741C28.058 53.5839 28.4954 54.2818 28.9945 54.7496C29.459 55.185 30.0554 55.1828 30.599 55.4528C31.1371 55.7202 31.6963 56.0099 32.266 56.2036C32.8881 56.4153 33.559 56.5053 34.1648 56.7617C34.4763 56.8936 34.7549 57.0922 35.0693 57.2185C35.4082 57.3546 35.7654 57.4506 36.1089 57.5753C37.4699 58.0697 38.8018 58.6759 40.2316 58.9499C40.8657 59.0714 41.4528 59.4015 42.0916 59.471C42.3656 59.5009 42.5891 59.5386 42.8572 59.6072C43.2779 59.7147 43.1888 59.7718 43.3438 60.1226C43.5987 60.6999 44.2213 60.358 44.7012 60.3725C45.4693 60.3956 46.2258 60.2715 46.9927 60.2655C48.334 60.2553 49.6254 60.1041 50.9229 59.6638C52.2254 59.2217 53.7085 58.1563 52.6259 56.6844ZM37.1221 11.5716C37.1404 11.59 37.1835 11.6011 37.1221 11.5716Z" fill="#202124"/>
<path fill-rule="evenodd" clip-rule="evenodd" d="M13.4965 36.1636C13.7878 35.8684 15.0272 35.9281 15.1209 36.4562C15.2254 37.0456 14.1179 37.9359 13.7126 38.1855C13.191 38.5067 12.5543 38.5669 12.6468 37.7604C12.7167 37.1512 13.0817 36.584 13.4965 36.1636ZM14.5201 35.5559C14.5579 35.7192 14.2793 35.6637 14.2026 35.6249C14.1664 35.5507 14.4823 35.392 14.5201 35.5559ZM12.3827 36.6369C12.6299 36.659 12.9131 36.2625 13.0997 36.1274C13.1821 36.2548 12.6385 36.9552 12.5787 37.115C12.4293 37.5143 12.3462 38.0188 12.5498 38.417C13.145 39.5809 14.668 37.9189 15.0489 37.3384C15.3154 36.9323 15.4999 36.4288 15.1235 36.0309C14.9894 35.8892 14.768 35.8499 14.6435 35.7152C14.4796 35.538 14.6086 35.3093 14.2791 35.348C14.0518 35.3747 13.7788 35.5798 13.5577 35.654C13.2913 35.7434 13.0518 35.8361 12.8193 36.0018C12.7669 36.0392 12.0773 36.6094 12.3827 36.6369ZM29.8547 37.0275C29.6994 37.8272 28.907 38.6474 28.0732 38.6793C27.2429 38.711 26.9741 37.8411 27.1207 37.1477C27.2457 36.5563 27.7568 35.529 28.486 35.6422C29.0592 35.731 29.9879 36.3421 29.8547 37.0275ZM29.326 35.691C28.7996 35.2836 28.0722 35.0952 27.462 35.4184C27.262 35.5243 26.4634 35.9917 26.7064 36.3081C27.0341 36.0543 27.3169 35.7019 27.7427 35.6174C27.6711 35.9475 27.2622 36.2444 27.1181 36.5658C26.9497 36.9413 26.8575 37.3711 26.8851 37.7838C26.9342 38.5182 27.4261 39.0889 28.1877 38.9879C28.885 38.8955 29.4945 38.361 29.8272 37.7603C30.2713 36.958 30.021 36.2288 29.326 35.691ZM24.4371 38.8452C24.0623 39.4003 23.4907 39.9223 22.8299 40.0937C21.9744 40.3156 22.2148 39.6086 22.4704 39.1012C22.6965 38.6527 23.0843 37.881 23.6748 37.8851C23.8752 37.8865 24.2485 37.9834 24.4241 38.0906C24.7704 38.3019 24.6345 38.5532 24.4371 38.8452ZM23.6387 37.6255C23.7732 37.4756 24.3688 36.8333 24.4487 37.334C24.6197 37.1357 24.4848 36.9711 24.2658 36.9502C24.0017 36.9249 23.7129 37.2191 23.5222 37.3652C23.1299 37.6659 22.8279 37.9738 22.5678 38.3954C22.2812 38.8601 21.5503 39.9105 22.19 40.3716C22.8814 40.8701 23.8878 39.9495 24.3207 39.4748C24.5976 39.1711 24.9643 38.7252 24.859 38.2798C24.7297 37.7329 24.0935 37.6754 23.6387 37.6255ZM20.6885 28.681C20.3016 29.1225 19.5157 29.7657 18.8681 29.6899C18.2774 29.6208 18.508 28.9578 18.7171 28.637C19.0311 28.1548 19.4517 27.7021 20.0596 27.6757C20.322 27.6643 20.6621 27.6697 20.8654 27.8684C21.1429 28.1398 20.8929 28.4479 20.6885 28.681ZM20.6474 27.4546C20.1942 27.2979 20.0161 27.2383 19.5756 27.4872C19.2219 27.6871 18.9082 27.9697 18.6655 28.2905C18.3022 28.7708 17.9358 29.8511 18.8686 29.9862C19.8918 30.1344 22.3256 28.0348 20.6474 27.4546ZM22.0419 30.2107C21.7476 30.5114 21.3802 30.7567 20.9607 30.8404C21.1382 30.4445 21.5344 29.5796 22.0041 29.4591C22.2205 29.4035 22.4672 29.4763 22.4494 29.7228C22.4366 29.9011 22.1581 30.092 22.0419 30.2107ZM22.4209 29.1642C22.1772 29.0421 22.254 28.9586 21.9704 29.0544C21.747 29.1299 21.4652 29.2608 21.2791 29.4118C21.1776 29.4941 20.8615 29.7861 20.9002 29.9346C20.9703 30.2046 21.206 29.7909 21.268 29.7114C21.3742 29.7979 20.8311 30.575 20.7988 30.7029C20.6784 31.1792 21.0522 31.2296 21.4186 31.0737C21.9127 30.8637 23.3758 29.6427 22.4209 29.1642ZM29.6651 41.9802C29.7016 41.6645 29.7534 41.3306 30.0432 41.1533C30.3043 40.9934 30.5747 41.0166 30.6134 41.3444C30.6493 41.6488 30.3511 42.1895 30.1098 42.3555C29.7739 42.5868 29.7091 42.2985 29.6651 41.9802ZM30.0967 42.6987C30.7864 42.2951 31.2211 40.4442 29.9498 40.963C29.2273 41.2577 29.493 43.0519 30.0967 42.6987ZM24.2064 35.0236C24.3151 34.8007 24.4395 34.7268 24.6601 34.6292C24.513 34.768 24.3628 34.8963 24.2064 35.0236ZM24.3654 34.4743C24.2093 34.631 23.8513 34.87 23.9014 35.1392C23.9472 35.3849 24.1349 35.3708 24.3051 35.2942C24.6621 35.1338 24.8608 34.4312 25.2341 34.3654C24.82 34.1029 24.7233 34.1151 24.3654 34.4743ZM24.4203 20.5213C24.4402 21.2695 24.4577 22.0176 24.4742 22.7659C24.48 23.0288 24.4172 23.4037 24.4961 23.6555C24.531 23.7665 24.8461 24.2474 24.9579 24.2786C25.3491 24.3874 25.2093 23.4067 25.2121 23.1652C25.2216 22.3505 25.2096 21.5349 25.2063 20.7201C25.2045 20.3003 25.323 16.7798 24.7783 16.7969C24.6844 16.8 24.4532 17.2025 24.4184 17.2831C24.309 17.5366 24.3492 17.9123 24.3518 18.1824C24.3592 18.9617 24.3996 19.7421 24.4203 20.5213ZM27.7189 22.7024C27.7495 22.9092 27.7334 23.2542 27.9663 23.3614C28.1689 23.4547 28.2466 23.3437 28.3224 23.1704C28.4966 22.7716 28.4337 22.162 28.4305 21.7497C28.4241 20.9326 28.3321 20.1189 28.2685 19.3049C28.2405 18.9477 28.2986 18.589 28.2539 18.2152C28.2343 18.0512 28.2148 17.3914 27.9108 17.4221C27.6359 17.4499 27.6606 18.1414 27.6457 18.3196C27.521 19.8027 27.4994 21.2218 27.7189 22.7024ZM40.6945 39.7341C40.5779 40.3298 38.677 42.4041 38.1983 41.244C37.9143 40.5557 38.5299 39.8064 39.0099 39.4079C39.307 39.1613 39.6781 38.9194 40.083 38.9941C40.4268 39.0575 40.7684 39.3558 40.6945 39.7341ZM39.7128 38.6657C39.5785 38.6974 38.4562 39.4855 38.446 39.4751C38.3485 39.3773 39.0564 38.3222 39.1292 38.2299C39.7293 37.4696 40.1276 38.0453 40.5029 38.6429C40.423 38.286 40.2031 37.7678 39.8357 37.6168C39.3718 37.4262 39.0099 37.8966 38.7867 38.2348C38.4712 38.7129 38.2973 39.2319 38.122 39.7713C38.0385 40.0286 37.9432 40.2618 37.8017 40.4937C37.6619 40.7226 37.4175 40.975 37.4536 41.2645C37.6522 41.1541 37.7577 40.938 37.8829 40.7599C38.0224 40.8164 37.9745 41.2616 38.0028 41.3749C38.0741 41.6597 38.2686 41.8824 38.5695 41.9314C39.1303 42.0227 39.7356 41.5038 40.1105 41.1515C40.5056 40.7802 40.9309 40.2712 40.9275 39.6997C40.9239 39.1027 40.3367 38.518 39.7128 38.6657ZM41.2331 29.0942C40.9149 29.5811 40.3566 30.1649 39.7659 30.278C39.3323 30.361 39.0463 30.0397 39.2205 29.6058C39.3676 29.2392 39.8689 29.0076 40.1975 28.8464C40.4581 28.7183 41.6734 28.4204 41.2331 29.0942ZM40.999 28.2977C40.3473 28.2732 39.8216 28.7443 39.3356 29.1204C39.4454 28.6884 39.6936 28.2185 40.0432 27.9373C40.519 27.5546 40.97 27.7922 41.4708 27.9836C41.3472 27.5936 40.7926 27.4534 40.4393 27.5085C39.9925 27.5782 39.6713 27.9595 39.4454 28.3285C39.1759 28.7687 39.0837 29.2874 38.7665 29.7002C38.6213 29.8892 37.7221 30.5963 37.9257 30.8853C38.2616 30.5287 38.5975 30.1722 38.9334 29.8157C39.0205 30.2371 39.1165 30.7169 39.6545 30.6759C40.0842 30.6431 40.5742 30.2779 40.8885 29.9987C41.2942 29.6382 42.0928 28.3391 40.999 28.2977ZM31.8694 32.4556C31.5933 32.5825 30.9856 32.7551 30.8312 32.3737C30.6168 31.8439 31.3068 30.9148 31.6352 30.5618C31.8373 30.3447 31.9743 30.2323 32.256 30.3729C32.4808 30.4851 32.8112 30.804 32.8975 31.0492C33.0827 31.5755 32.3012 32.257 31.8694 32.4556ZM32.5028 29.9115C32.7277 29.9621 32.7552 30.2477 32.4741 30.138C32.2634 30.0559 32.2145 29.8465 32.5028 29.9115ZM32.7851 30.3136C32.7011 30.0575 32.8719 29.6558 32.4585 29.6373C32.2242 29.6269 31.795 29.865 31.5905 29.9619C31.307 30.096 31.0402 30.3008 30.8921 30.5893C30.755 30.8565 30.8529 30.927 31.0619 30.7052C31.0875 30.7225 30.5891 32.0078 30.5848 32.1366C30.5653 32.7251 30.9819 33.1127 31.5671 33.0083C32.1048 32.9125 32.5894 32.4727 32.8854 32.0289C33.0351 31.8042 33.158 31.547 33.1692 31.2719C33.1865 30.8498 32.9051 30.6801 32.7851 30.3136ZM35.3645 30.0977C35.1376 29.6607 35.6633 28.9254 36.134 29.1405C37.1141 29.5884 35.6621 30.6706 35.3645 30.0977ZM36.2449 29.5273C36.1398 29.5316 35.4748 29.7884 35.5727 29.9625C35.707 30.2014 36.1923 29.6234 36.2449 29.5273ZM4.09676 28.7197C4.07048 28.5336 3.65333 28.8038 3.65577 28.9236C3.72475 28.7856 4.1515 29.1075 4.09676 28.7197ZM26.911 14.6565C27.4421 14.6175 26.7654 11.9381 26.3784 12.1751C25.9589 12.4319 26.4237 14.6923 26.911 14.6565ZM27.9028 13.4054C28.4004 13.4767 28.3213 12.3341 28.0537 12.1297C27.5597 11.7522 27.2988 13.3189 27.9028 13.4054Z" fill="#202124"/>
</svg>
