<svg  viewBox="0 0 53 60" fill="none" xmlns="http://www.w3.org/2000/svg">
<path d="M9.11809 25.5848C9.06002 25.5015 9.00785 25.4131 8.96111 25.3198C8.2895 23.9755 9.04657 22.0932 9.07914 22.0137C9.11007 21.938 9.19576 21.9021 9.27059 21.9335C9.34519 21.9651 9.3806 22.052 9.34967 22.1276C9.34212 22.1458 8.61197 23.9645 9.22291 25.1861C9.47762 25.6964 9.93842 26.0364 10.5916 26.1976C12.839 26.7529 14.3599 24.916 15.8309 23.1398C16.4307 22.4152 16.9975 21.7311 17.5943 21.2395C18.3207 20.6414 18.4717 20.7501 19.0652 21.3626C19.6575 21.9737 20.7599 23.1111 23.6142 24.735C23.685 24.775 23.7101 24.8655 23.6704 24.9374C23.6307 25.009 23.5415 25.0343 23.4709 24.9943C20.5801 23.3496 19.4585 22.1925 18.8563 21.5709C18.3237 21.0214 18.3237 21.0214 17.7789 21.4701C17.2038 21.9437 16.6458 22.6176 16.0551 23.3309C14.5979 25.0906 12.9464 27.085 10.5222 26.4861C9.89853 26.3324 9.42758 26.0297 9.11809 25.5848Z" fill="#77C6EE"/>
<path d="M28.2236 59.106C34.1313 59.106 38.9205 58.8552 38.9205 58.5459C38.9205 58.2366 34.1313 57.9858 28.2236 57.9858C22.3159 57.9858 17.5267 58.2366 17.5267 58.5459C17.5267 58.8552 22.3159 59.106 28.2236 59.106Z" fill="#EEEDF7"/>
<path d="M20.9528 41.4525C20.9528 41.4525 21.7021 41.4585 21.7002 42.6665C21.6981 43.8745 20.6927 47.3674 19.789 47.0805C18.8853 46.7934 19.1766 44.2768 19.4188 43.5058C19.6606 42.735 19.9913 41.6481 20.9528 41.4525Z" fill="#2B4C54"/>
<path d="M20.8365 41.5602C21.0377 41.5578 21.4442 41.8394 21.4779 42.0533C21.5615 42.5834 21.4557 43.0709 21.095 43.2711C20.9062 43.376 20.4702 43.1037 20.3878 42.9227C19.9619 41.9867 20.4827 41.5643 20.8365 41.5602Z" fill="#FDAE88"/>
<path d="M19.9702 46.4003C19.3604 46.2559 19.3066 45.5284 19.567 44.3056C19.8274 43.0827 20.8254 43.2031 21.0502 44.0216C21.2744 44.84 20.4591 46.5162 19.9702 46.4003Z" fill="#395B64"/>
<path d="M27.9071 31.7579C27.9071 31.7579 21.1875 47.1332 15.7775 44.9638C10.6119 42.8923 20.3379 30.9873 20.3379 30.9873L27.9071 31.7579Z" fill="#395B64"/>
<path d="M34.5608 55.3993C34.5608 55.3993 34.9722 55.1678 35.3396 55.7635C35.7069 56.3593 36.2225 58.3941 35.641 58.5354C35.0596 58.6767 34.4512 57.3458 34.3483 56.8904C34.2456 56.4349 34.095 55.7963 34.5608 55.3993Z" fill="#2B4C54"/>
<path d="M33.7229 54.8598C33.7229 54.8598 34.7536 54.056 34.7741 54.2049C34.8792 54.9666 35.0307 55.5147 35.0236 56.0348C35.0215 56.1861 34.5602 56.1933 34.4802 56.0813C33.946 55.3335 33.7229 54.8598 33.7229 54.8598Z" fill="#FDCEA3"/>
<path d="M35.6228 58.3026C35.2456 58.4221 34.9942 58.0807 34.7635 57.397C34.5329 56.7132 35.1153 56.4603 35.4875 56.7931C35.8601 57.126 35.9254 58.2066 35.6228 58.3026Z" fill="#395B64"/>
<path opacity="0.2" d="M35.6533 57.33C35.6288 57.2067 35.5858 57.1114 35.5311 57.0391C35.4916 57.0742 35.4541 57.1114 35.4187 57.1504C35.4857 57.2344 35.5459 57.352 35.5492 57.506C35.5563 57.8601 35.5455 57.8711 35.5455 57.8711C35.5455 57.8711 35.7112 57.62 35.6533 57.33ZM35.3864 56.9459C35.3446 56.9279 35.2969 56.9517 35.2877 56.9967C35.2818 57.0252 35.2931 57.0544 35.3167 57.0707C35.3363 57.0841 35.3618 57.1035 35.3892 57.1286C35.4246 57.0898 35.4619 57.0527 35.5008 57.0175C35.4652 56.9876 35.427 56.9634 35.3864 56.9459Z" fill="white"/>
<path d="M30.2371 31.3606C30.2371 31.3606 31.5886 38.8056 35.0391 54.753C35.118 55.1167 33.7778 55.6378 33.6029 55.3344C29.188 47.6782 20.6589 31.22 20.6589 31.22L30.2371 31.3606Z" fill="#395B64"/>
<path opacity="0.25" d="M29.1329 46.939C29.1256 46.7032 29.0708 46.4968 28.9955 46.2738C28.8355 45.8004 28.6114 45.2466 28.8253 44.7514C28.9056 44.5656 29.0531 44.4566 29.1929 44.3209C29.3126 44.2045 29.3992 44.0441 29.4547 43.8863C29.5418 43.6384 29.5264 43.3736 29.4315 43.1303C29.1992 42.5348 28.6738 42.0765 28.221 41.6532C27.7701 41.2317 27.2519 40.8115 26.9552 40.2555C26.8386 40.0366 26.7697 39.7826 26.8133 39.5338C26.836 39.4047 26.8839 39.2797 26.954 39.1693C27.0657 38.9933 27.259 38.9318 27.4467 38.8738C27.6655 38.8063 27.8749 38.7436 27.8822 38.4759C27.8884 38.246 27.784 38.0166 27.6858 37.815C27.5185 37.4704 27.3152 37.1455 27.1358 36.8076C26.8077 36.1898 26.362 35.2646 26.7345 34.5738C26.9493 34.1756 27.4054 33.9989 27.836 34.0638C28.3754 34.1449 28.81 34.4854 29.2982 34.7007C29.8366 34.9382 30.3895 35.0486 30.9492 35.0805C30.4582 32.578 30.2372 31.3608 30.2372 31.3608L22.9581 31.2541L20.3378 30.9873C20.3378 30.9873 19.9554 31.4559 19.3831 32.2214C19.9197 33.0784 20.7419 33.7403 21.7044 34.0338C22.0967 34.1533 22.4983 34.1564 22.8963 34.2393C23.2334 34.3094 23.5327 34.4718 23.6168 34.8358C23.7279 35.3175 23.5079 35.8225 23.1666 36.1491C22.8089 36.4916 22.384 36.7147 21.9492 36.9341C21.6694 37.0751 21.1152 37.3311 21.2533 37.7393C21.35 38.0252 21.6532 38.2257 21.8411 38.4471C22.0693 38.7163 22.1923 39.0384 22.0774 39.3889C21.9397 39.8094 21.5996 40.1185 21.2221 40.3192C20.825 40.5304 20.3805 40.641 19.9462 40.742C19.7377 40.7907 19.5283 40.8354 19.3215 40.891C19.211 40.9209 18.9226 40.9731 18.882 41.1012C18.8636 41.1592 18.9662 41.3196 19.0059 41.3924C19.0982 41.5617 19.1825 41.7317 19.237 41.918C19.3522 42.3128 19.2996 42.7094 19.0935 43.063C18.6721 43.7857 17.8043 44.2126 17.0574 44.493C16.5749 44.6741 16.0749 44.7998 15.5669 44.8692C15.6344 44.9025 15.7041 44.9346 15.7775 44.964C18.6875 46.1311 21.9761 42.2216 24.3944 38.3593C25.8202 41.0648 27.4965 44.2239 29.1308 47.2513C29.1348 47.1469 29.1362 47.0429 29.1329 46.939Z" fill="#2B4C54"/>
<path d="M15.6515 11.1289L21.086 15.9496L18.7229 18.278C18.7229 18.278 13.72 13.5567 13.3734 11.8356C13.0269 10.1144 15.6515 11.1289 15.6515 11.1289Z" fill="#FDAE88"/>
<path d="M13.1123 4.34195C12.6949 4.46072 12.5904 4.45377 12.1914 4.6269C12.3066 6.31263 12.8819 13.8268 14.909 13.1542C17.2397 12.3808 13.4643 6.33681 13.1123 4.34195Z" fill="#FDAE88"/>
<path d="M11.6961 4.07496C11.7405 4.15973 11.7927 4.23611 11.8462 4.30316C12.0115 4.5098 12.1911 4.6269 12.1911 4.6269L12.2405 5.33304C12.6203 5.3146 13.243 5.09981 13.1961 4.88C13.1961 4.88 13.0096 4.54955 13.1463 4.23563C13.1467 4.23276 13.1486 4.22941 13.15 4.22701C13.2062 4.17146 13.2438 4.04743 13.2598 3.90495C13.2707 3.80678 13.2716 3.69974 13.2624 3.59989C13.2395 3.35589 13.7487 2.92656 13.6451 2.81761C13.541 2.7089 13.1791 2.87699 13.1042 3.06616C13.0294 3.2546 12.8635 3.18445 12.8106 2.99815C12.7291 2.71057 12.6375 1.29422 12.4345 1.32032C12.2315 1.34642 12.3273 2.74912 12.3273 2.74912C12.3273 2.74912 11.9555 1.17761 11.7724 1.30739C11.5899 1.43717 11.9685 2.8722 11.9685 2.8722C11.9685 2.8722 11.6059 1.75253 11.3994 1.76666C11.1926 1.78007 11.5795 3.07861 11.5795 3.07861C11.5795 3.07861 11.2174 2.32051 11.0328 2.34661C10.8479 2.37295 11.5157 3.728 11.6961 4.07496Z" fill="#FDAE88"/>
<path opacity="0.1" d="M12.9624 4.46024C12.8737 4.56632 12.7379 4.61876 12.6048 4.63744C12.4728 4.65587 12.33 4.6427 12.211 4.57829C12.1759 4.55914 12.1454 4.53519 12.1173 4.50837C12.1369 4.51819 12.1563 4.52705 12.1756 4.53375C12.4122 4.61637 12.6062 4.41642 12.6062 4.41642C12.6614 4.43558 12.8836 4.38266 13.0561 4.29071C13.0297 4.34985 13.0044 4.4102 12.9624 4.46024Z" fill="#231F20"/>
<path opacity="0.2" d="M11.6961 4.07496C11.7405 4.15972 11.7927 4.23611 11.8462 4.30315C11.9402 4.39486 12.0613 4.494 12.1756 4.5335C12.4121 4.61611 12.6061 4.41617 12.6061 4.41617C12.6718 4.43916 12.9725 4.36038 13.1463 4.23539C13.1467 4.23251 13.1486 4.22916 13.15 4.22677C13.2062 4.17122 13.2438 4.04718 13.2598 3.90471C13.2707 3.80653 13.2716 3.6995 13.2624 3.59965C13.2395 3.35565 13.7487 2.92631 13.6451 2.81736C13.541 2.70865 13.1791 2.87675 13.1042 3.06591C13.0294 3.25436 12.8635 3.1842 12.8106 2.99791C12.7291 2.71033 12.6375 1.29398 12.4345 1.32008C12.2315 1.34618 12.3273 2.74888 12.3273 2.74888C12.3273 2.74888 11.9555 1.17737 11.7724 1.30715C11.5899 1.43693 11.9685 2.87196 11.9685 2.87196C11.9685 2.87196 11.6059 1.75229 11.3994 1.76641C11.1926 1.77982 11.5795 3.07836 11.5795 3.07836C11.5795 3.07836 11.2174 2.32026 11.0328 2.34636C10.8479 2.37294 11.5157 3.72799 11.6961 4.07496Z" fill="white"/>
<path d="M11.5099 3.17008C11.5783 3.1186 11.6473 3.06879 11.7188 3.02306C11.7901 2.9778 11.863 2.93398 11.9412 2.90501C12.0193 2.87436 12.101 2.85042 12.1824 2.82863C12.2641 2.80732 12.347 2.78936 12.4317 2.7805C12.3463 2.77595 12.2608 2.78768 12.177 2.8042C12.093 2.82096 12.0111 2.84563 11.9299 2.87436C11.8489 2.90669 11.7748 2.9517 11.7049 3.00175C11.6352 3.05275 11.5694 3.10806 11.5099 3.17008Z" fill="#FA9C70"/>
<path d="M36.3317 21.9837L29.8919 18.674L28.6469 21.7677C28.6469 21.7677 34.3809 24.8739 36.0841 24.5564C37.7871 24.2389 36.3317 21.9837 36.3317 21.9837Z" fill="#FDAE88"/>
<path d="M41.6931 18.0613C41.9688 18.4003 42.0585 18.4552 42.2887 18.8287C41.2453 20.1459 36.5431 25.9816 35.2574 24.2554C33.7792 22.2703 40.2812 19.4951 41.6931 18.0613Z" fill="#FDAE88"/>
<path d="M43.0058 18.6623C42.9215 18.7062 42.8358 18.7387 42.7539 18.7627C42.502 18.8366 42.2884 18.8287 42.2884 18.8287L41.8502 19.3797C41.5488 19.1446 41.1583 18.6077 41.3207 18.4542C41.3207 18.4542 41.6597 18.2909 41.7244 17.9543C41.7256 17.9516 41.7261 17.9478 41.7263 17.9449C41.7114 17.8666 41.7504 17.7433 41.8174 17.6171C41.8637 17.5302 41.9232 17.4419 41.9871 17.3652C42.1434 17.1782 41.9671 16.5307 42.1134 16.5013C42.2603 16.4723 42.4626 16.82 42.4175 17.0185C42.3729 17.2168 42.5485 17.2551 42.6968 17.1327C42.9255 16.9438 43.798 15.8342 43.95 15.9733C44.1021 16.1124 43.2338 17.2084 43.2338 17.2084C43.2338 17.2084 44.4236 16.1335 44.501 16.3464C44.578 16.5585 43.4592 17.5175 43.4592 17.5175C43.4592 17.5175 44.3872 16.8085 44.5489 16.9395C44.7111 17.0702 43.6625 17.9121 43.6625 17.9121C43.6625 17.9121 44.3865 17.4993 44.5234 17.6279C44.6601 17.7562 43.3492 18.482 43.0058 18.6623Z" fill="#FDAE88"/>
<path opacity="0.1" d="M41.7493 18.2452C41.7625 18.3836 41.8444 18.5053 41.9431 18.5977C42.041 18.6894 42.1657 18.7612 42.2995 18.7773C42.3392 18.7821 42.3777 18.7799 42.4159 18.7742C42.3944 18.7708 42.3734 18.7667 42.3538 18.7612C42.113 18.692 42.0663 18.4157 42.0663 18.4157C42.0101 18.3994 41.8576 18.2275 41.7677 18.052C41.7561 18.1157 41.7431 18.1796 41.7493 18.2452Z" fill="#231F20"/>
<path opacity="0.2" d="M43.0059 18.6623C42.9216 18.7061 42.8359 18.7387 42.754 18.7626C42.6254 18.7837 42.47 18.7947 42.3539 18.761C42.1131 18.6918 42.0664 18.4154 42.0664 18.4154C41.9996 18.3963 41.797 18.1573 41.7248 17.954C41.726 17.9514 41.7264 17.9475 41.7267 17.9447C41.7118 17.8664 41.7507 17.743 41.8178 17.6169C41.8641 17.5299 41.9235 17.4416 41.9875 17.365C42.1438 17.1779 41.9674 16.5305 42.1138 16.501C42.2606 16.472 42.463 16.8197 42.4179 17.0182C42.3732 17.2165 42.5489 17.2548 42.6971 17.1324C42.9259 16.9435 43.7984 15.8339 43.9504 15.973C44.1024 16.1121 43.2342 17.2081 43.2342 17.2081C43.2342 17.2081 44.424 16.1332 44.5014 16.3461C44.5783 16.5582 43.4596 17.5172 43.4596 17.5172C43.4596 17.5172 44.3876 16.8082 44.5493 16.9392C44.7115 17.07 43.6629 17.9119 43.6629 17.9119C43.6629 17.9119 44.3869 17.499 44.5238 17.6276C44.6603 17.7562 43.3494 18.482 43.0059 18.6623Z" fill="white"/>
<path d="M43.668 18.0273C43.6406 17.9454 43.6121 17.8645 43.5793 17.7857C43.5462 17.7071 43.5108 17.6291 43.4631 17.5601C43.4161 17.4897 43.3625 17.4227 43.308 17.3575C43.253 17.2927 43.1952 17.2299 43.1305 17.1736C43.2032 17.2194 43.2667 17.2785 43.3262 17.3408C43.3859 17.4033 43.439 17.4708 43.4898 17.5414C43.5382 17.615 43.5736 17.6949 43.6029 17.7763C43.6312 17.8582 43.6541 17.9418 43.668 18.0273Z" fill="#FA9C70"/>
<path d="M34.2336 20.558C28.9098 16.1301 29.1107 17.8 25.6856 16.8454C25.6856 16.8454 22.1434 16.6318 19.801 14.555C18.9263 13.7794 17.9287 18.1432 17.9287 18.1432C17.9287 18.1432 19.3992 20.3887 21.0885 21.4873C20.4888 25.9076 18.1652 31.4353 19.3831 32.2214C20.7374 33.0954 28.9377 33.31 30.2917 32.327C31.1465 31.7064 30.6317 26.5508 30.0687 23.4152C30.3812 23.4559 31.3592 24.0468 32.7789 24.3612C34.1616 23.6869 34.2336 20.558 34.2336 20.558Z" fill="#8CD2FE"/>
<path opacity="0.1" d="M30.4459 26.6228C30.4086 27.2964 30.334 27.9676 30.1801 28.6304C29.9362 29.6804 29.4681 30.7819 28.5413 31.5428C27.4951 32.402 26.0869 32.4769 24.7203 32.611C23.3122 32.7489 19.9841 32.4676 20.1975 32.52C21.3073 32.7932 27.4049 33.5164 30.2917 32.3268C31.0849 31.9999 30.8318 29.2527 30.4459 26.6228Z" fill="#231F20"/>
<path d="M28.581 34.4538C28.581 34.4538 29.899 35.482 30.6423 35.5963V35.9619C30.6423 35.9619 29.2904 35.5508 28.581 34.751V34.4538ZM20.0245 33.1505C19.6771 33.7441 18.7304 34.2249 18.7304 34.2249L18.7292 34.5302C19.4941 34.3121 20.2538 33.3349 20.2538 33.3349L20.0245 33.1505Z" fill="#2B4C54"/>
<path d="M44.7815 20.2573L50.3064 21.0999L49.5887 22.9149L44.7815 20.2573Z" fill="#EEEDF7"/>
<path d="M19.1109 5.70898L16.9224 0.695116L19.0047 0.309601L19.1109 5.70898Z" fill="#BDE0FB"/>
<path d="M42.431 11.1234L45.4163 6.55185L46.8585 8.1236L42.431 11.1234Z" fill="#BDE0FB"/>
<path d="M11.9115 17.6061L7.14625 20.1958L6.61133 18.1183L11.9115 17.6061Z" fill="#BDE0FB"/>
<path d="M23.3048 0.560076C23.3048 0.869446 23.0576 1.12015 22.7526 1.12015C22.4476 1.12015 22.2004 0.869446 22.2004 0.560076C22.2004 0.250705 22.4476 0 22.7526 0C23.0576 0.000239451 23.3048 0.250945 23.3048 0.560076Z" fill="#EEEDF7"/>
<path d="M38.5671 7.27641C38.5671 7.58578 38.3199 7.83649 38.0149 7.83649C37.7099 7.83649 37.4628 7.58578 37.4628 7.27641C37.4628 6.96704 37.7099 6.71634 38.0149 6.71634C38.3199 6.71634 38.5671 6.96704 38.5671 7.27641Z" fill="#BDE0FB"/>
<path d="M38.0152 14.8438C38.0152 15.1532 37.768 15.4039 37.463 15.4039C37.1581 15.4039 36.9109 15.1532 36.9109 14.8438C36.9109 14.5344 37.1581 14.2837 37.463 14.2837C37.768 14.284 38.0152 14.5347 38.0152 14.8438Z" fill="#EEEDF7"/>
<path d="M27.8543 3.51778C27.8543 3.82715 27.6072 4.07785 27.3022 4.07785C26.9972 4.07785 26.75 3.82715 26.75 3.51778C26.75 3.20841 26.9972 2.9577 27.3022 2.9577C27.6072 2.9577 27.8543 3.20841 27.8543 3.51778Z" fill="#BDE0FB"/>
<path d="M18.7228 8.34461C18.7228 8.56706 18.5451 8.74761 18.3255 8.74761C18.1062 8.74761 17.9282 8.5673 17.9282 8.34461C17.9282 8.12216 18.106 7.94162 18.3255 7.94162C18.5451 7.94162 18.7228 8.12193 18.7228 8.34461Z" fill="#EEEDF7"/>
<path d="M37.8789 26.7158C37.6898 26.7158 37.4755 26.5747 37.165 26.3594C37.1362 26.3396 37.1289 26.2996 37.1485 26.2704C37.1684 26.2412 37.2078 26.234 37.2363 26.2536C37.5975 26.5038 37.7845 26.6171 37.9349 26.5807C38.1438 26.5295 38.344 26.1559 38.7424 25.4115L38.9202 25.0803C39.249 24.4702 39.5918 24.1658 39.9296 24.1675C40.356 24.173 40.609 24.6625 40.6196 24.6833C40.6357 24.7147 40.6234 24.7535 40.5925 24.7695C40.5616 24.7855 40.5236 24.7733 40.5073 24.742C40.5051 24.7376 40.2781 24.2999 39.9275 24.2959C39.6364 24.293 39.3312 24.5851 39.0309 25.1418L38.8534 25.4728C38.411 26.2989 38.2281 26.6408 37.9644 26.7055C37.9365 26.7124 37.9082 26.7158 37.8789 26.7158ZM14.5974 45.2368C14.5962 45.2368 14.5948 45.2368 14.5936 45.2368C14.0898 45.2071 13.6847 45.0151 13.3894 44.6657C12.7327 43.8894 12.8431 42.6196 12.8481 42.566C12.8514 42.5308 12.8849 42.5051 12.917 42.5082C12.9517 42.5116 12.9772 42.543 12.9739 42.5779C12.9727 42.5906 12.8639 43.848 13.4855 44.5826C13.7577 44.9042 14.133 45.0811 14.6009 45.1089C14.6356 45.1111 14.6623 45.1412 14.6601 45.1767C14.6583 45.2104 14.6306 45.2368 14.5974 45.2368ZM13.9224 15.7312C13.9165 15.7312 13.9104 15.7305 13.9045 15.7286C13.871 15.7185 13.8519 15.6828 13.8618 15.6488C13.9859 15.2236 14.0355 15.0083 13.9545 14.874C13.8424 14.6879 13.4307 14.6094 12.6101 14.453L12.2445 14.3828C11.5712 14.2523 11.1789 14.0186 11.0785 13.688C10.953 13.2747 11.3344 12.8803 11.351 12.8638C11.3755 12.8389 11.4154 12.8386 11.4402 12.8638C11.465 12.8887 11.465 12.9291 11.4404 12.9543C11.4369 12.9579 11.096 13.3113 11.1994 13.6508C11.2839 13.9281 11.6536 14.1379 12.2681 14.2569L12.6333 14.3271C13.544 14.5007 13.921 14.5727 14.0622 14.8071C14.1755 14.9951 14.1056 15.2633 13.9826 15.6852C13.9748 15.7132 13.9496 15.7312 13.9224 15.7312Z" fill="#77C6EE"/>
<path d="M34.6496 34.5753C30.2991 34.5755 26.6294 32.5768 23.7494 31.0084C21.7436 29.916 19.6693 28.7868 18.8983 29.3152C9.28236 35.9004 0.374637 32.8948 0 32.7636L1.44378 28.5224L0.72189 30.643L1.43245 28.5184C1.45063 28.5246 3.28226 29.1313 6.04377 29.0653C9.69807 28.9771 13.1902 27.8101 16.4229 25.5963C19.4082 23.5519 22.6789 25.3327 25.8417 27.0551C29.3506 28.9659 33.3276 31.132 37.975 29.5106C41.6348 28.2339 43.5367 27.2564 44.7954 26.6094C47.4507 25.2448 48.3851 25.0327 52.2509 25.8897L51.3066 30.2733C48.6148 29.6768 48.615 29.6766 46.7947 30.6121C45.4276 31.3147 43.362 32.3764 39.4136 33.7537C37.7474 34.3351 36.1573 34.5753 34.6496 34.5753Z" fill="#D3C848"/>
<g opacity="0.2">
<path opacity="0.2" d="M50.4591 27.7976C49.3846 28.168 48.3338 28.0801 47.2232 27.9975C46.1736 27.9195 44.8653 27.7763 43.9463 28.4175C43.4527 28.7621 43.2785 29.2364 43.0918 29.7917C42.9159 30.3147 42.7081 30.7572 42.3127 31.1465C41.4435 32.0019 40.1624 31.9738 39.0711 32.4238C27.163 37.3332 25.5046 28.7578 18.4597 28.8294C17.3322 28.8409 16.4564 27.5811 16.3868 27.9827C16.3108 28.4223 16.2447 28.8658 16.0886 29.2858C15.867 29.8832 15.4656 30.2996 14.8599 30.4876C14.4775 30.6063 14.0747 30.6463 13.6774 30.6751C13.1208 30.715 12.5528 30.7536 11.9957 30.7141C10.6723 30.6197 9.38481 30.1909 8.05363 30.1806C7.40705 30.1756 6.82656 30.3164 6.32421 30.7457C5.94013 31.074 5.64269 31.4947 5.24799 31.8105C4.50249 32.407 3.42154 32.5535 2.50112 32.4784C1.73957 32.4161 0.99856 32.1982 0.297207 31.891L0 32.7638C0.374637 32.895 9.28212 35.9006 18.8983 29.3155C19.6693 28.787 21.7436 29.9165 23.7494 31.0086C26.6294 32.577 30.2991 34.5757 34.6496 34.5755C36.1573 34.5755 37.7475 34.3353 39.4141 33.7539C43.3625 32.3766 45.4281 31.3149 46.7952 30.6123C48.6155 29.6768 48.6152 29.677 51.3071 30.2735L52.0252 26.9391C51.5545 27.3093 51.025 27.6027 50.4591 27.7976Z" fill="#395B64"/>
</g>
<path d="M28.045 12.7759C28.045 12.7759 28.5983 12.5436 28.4153 11.7659C28.4153 11.7659 28.9141 11.3787 28.587 10.6534C28.2598 9.92786 27.5171 10.3045 27.5171 10.3045C27.5171 10.3045 27.1078 9.20233 26.3429 9.16042C25.5778 9.11852 25.8255 9.53636 25.8255 9.53636C25.8255 9.53636 24.5311 8.82543 23.906 9.39748C23.2809 9.96953 23.9898 10.7647 23.9898 10.7647C23.9898 10.7647 23.6307 10.9755 23.5668 11.4903C23.4643 12.3133 23.9516 12.4284 23.9516 12.4284C23.9516 12.4284 23.88 13.2634 24.2988 13.4456C24.7176 13.6279 28.1167 15.2039 28.045 12.7759Z" fill="#2B4C54"/>
<path d="M26.9868 17.1844C26.9868 17.1844 26.4476 17.8111 25.9479 17.8111C25.4479 17.8111 24.8414 17.3097 24.8414 17.3097C24.8414 17.3097 25.1308 16.6734 25.1464 16.2925C25.1556 16.0394 25.1639 15.8181 25.1639 15.7805H26.7429L26.7493 16.4342L26.9868 17.1844Z" fill="#FDAE88"/>
<path opacity="0.1" d="M26.7494 16.4345C26.5008 16.6447 26.2319 16.7809 26.0246 16.7809C25.7732 16.7809 25.4326 16.581 25.1462 16.2925C25.1554 16.0394 25.1637 15.8181 25.1637 15.7805H26.7427L26.7494 16.4345Z" fill="#513F3C"/>
<path d="M28.5282 13.2694C28.3603 12.9375 28.0558 13.0326 27.8832 13.1231C27.8757 12.4124 27.7928 11.8703 27.7928 11.8703C27.7869 11.8322 27.7751 11.7961 27.7572 11.7618C27.4087 11.1232 24.8632 11.0993 24.3465 11.6876C24.2969 11.7417 24.2674 11.804 24.2575 11.8703C24.2575 11.8703 24.1798 12.4153 24.1782 13.1286C24.0075 13.0364 23.6942 12.931 23.5233 13.2694C23.2847 13.7416 23.8212 14.4444 24.2745 14.425C24.4501 15.468 24.913 16.434 26.0254 16.434C27.1592 16.434 27.624 15.4685 27.7952 14.4257C28.2442 14.4267 28.7638 13.7354 28.5282 13.2694Z" fill="#FDAE88"/>
<path d="M26.0512 15.9402C25.8553 15.9402 25.741 15.8246 25.7391 15.8229C25.7212 15.8042 25.7216 15.7743 25.7401 15.7561C25.7585 15.7379 25.7877 15.7384 25.8057 15.7568C25.8139 15.7652 26.0111 15.9594 26.3449 15.7499C26.3668 15.7362 26.3954 15.7429 26.4088 15.7652C26.4223 15.7872 26.4157 15.8164 26.3937 15.8301C26.2625 15.9125 26.147 15.9402 26.0512 15.9402Z" fill="#FA9C70"/>
<path opacity="0.1" d="M24.3249 12.0274C24.4646 11.9907 24.5838 11.8988 24.7097 11.831C24.8633 11.7482 25.0331 11.6782 25.2075 11.66C25.2878 11.6517 25.3709 11.655 25.4476 11.6828C25.5269 11.7115 25.5892 11.7687 25.6542 11.8212C25.6863 11.8473 25.72 11.8715 25.7578 11.8882C25.8036 11.9086 25.851 11.9158 25.9006 11.9177C26.0059 11.9215 26.1112 11.9021 26.2125 11.8741C26.3118 11.8466 26.4115 11.8111 26.5042 11.7661C26.5932 11.7228 26.6877 11.6883 26.7859 11.6739C26.8822 11.66 26.9875 11.6634 27.0802 11.695C27.1574 11.7213 27.2207 11.7743 27.2842 11.8241C27.3571 11.881 27.4329 11.9251 27.5248 11.9414C27.6168 11.9579 27.7101 11.9498 27.8028 11.9445C27.7965 11.8961 27.7925 11.8698 27.7925 11.8698C27.7866 11.8317 27.7747 11.7956 27.7568 11.7613C27.4084 11.1227 24.8629 11.0988 24.3461 11.6871C24.2965 11.7412 24.267 11.8035 24.2571 11.8698C24.2571 11.8698 24.2484 11.9306 24.2371 12.0377C24.2663 12.0396 24.2963 12.035 24.3249 12.0274Z" fill="#FA9C70"/>
<path d="M25.9386 14.3716C25.8767 14.2301 25.9676 14.0692 25.9716 14.0622C25.9898 14.0309 26.0297 14.0201 26.0609 14.0385C26.0923 14.0567 26.1027 14.0972 26.0847 14.129C26.067 14.1602 26.0304 14.255 26.0597 14.3216C26.0828 14.3697 26.1423 14.4011 26.237 14.4152C26.2726 14.4205 26.2974 14.454 26.2922 14.4904C26.287 14.5265 26.2537 14.5517 26.2181 14.5464C26.0776 14.5256 25.9846 14.4693 25.9417 14.3788C25.9407 14.3762 25.9395 14.3738 25.9386 14.3716ZM25.7429 15.3474C25.7504 15.452 25.8831 15.5277 26.0392 15.5159C26.1952 15.5044 26.3158 15.4101 26.3083 15.3055C26.3007 15.2008 26.168 15.1254 26.012 15.1369C25.856 15.1484 25.7353 15.2427 25.7429 15.3474Z" fill="#2B4C54"/>
<path d="M28.3891 13.68C28.4019 13.68 28.4139 13.6724 28.4189 13.6597C28.5275 13.3781 28.2496 13.2117 28.2468 13.21C28.2314 13.2009 28.2121 13.2064 28.2033 13.2217C28.1946 13.2371 28.1998 13.2569 28.2149 13.2658C28.2246 13.2715 28.4481 13.4066 28.3596 13.636C28.3532 13.6525 28.3613 13.6714 28.3776 13.6779C28.3813 13.6793 28.3851 13.68 28.3891 13.68Z" fill="#2B4C54"/>
<path d="M27.2597 13.2847C27.264 13.2644 27.2557 13.2426 27.2375 13.2306C26.835 12.9641 26.4845 13.3542 26.4809 13.3583C26.4618 13.3798 26.4642 13.4126 26.485 13.4318C26.506 13.4509 26.5383 13.449 26.5574 13.4277C26.5695 13.4143 26.8535 13.1006 27.1814 13.3178C27.2052 13.3336 27.2368 13.3266 27.2524 13.3027C27.256 13.297 27.2583 13.291 27.2597 13.2847Z" fill="#2B4C54"/>
<path d="M25.6292 13.2069C25.6335 13.1865 25.6252 13.1648 25.607 13.1528C25.2045 12.8863 24.854 13.2763 24.8505 13.2804C24.8313 13.302 24.8337 13.3348 24.8545 13.3539C24.8755 13.3731 24.9078 13.3712 24.9269 13.3498C24.939 13.3364 25.223 13.0228 25.5509 13.2399C25.5747 13.2557 25.6063 13.2488 25.6219 13.2249C25.6255 13.2191 25.628 13.2131 25.6292 13.2069Z" fill="#2B4C54"/>
<path d="M24.8117 12.8484C24.8117 12.8484 25.5438 12.9222 25.6276 12.8609C25.7114 12.7994 25.5067 12.6116 25.1743 12.6449C24.842 12.6782 24.7291 12.8334 24.8117 12.8484ZM27.2765 12.8484C27.2765 12.8484 26.5445 12.9222 26.4607 12.8609C26.3769 12.7994 26.5815 12.6116 26.9139 12.6449C27.2463 12.6782 27.3591 12.8334 27.2765 12.8484Z" fill="#2B4C54"/>
<path d="M23.6214 13.6829C23.6087 13.6829 23.5966 13.6753 23.5917 13.6626C23.4831 13.381 23.7609 13.2145 23.7638 13.2129C23.7791 13.2038 23.7985 13.2093 23.8072 13.2246C23.816 13.2399 23.8108 13.2598 23.7957 13.2687C23.7862 13.2744 23.5624 13.4095 23.6509 13.6389C23.6573 13.6554 23.6493 13.6743 23.633 13.6808C23.629 13.6822 23.6252 13.6829 23.6214 13.6829Z" fill="#2B4C54"/>
<path d="M20.5014 26.2826L20.9931 26.3848L20.0814 27.9484L19.4908 27.8258L19.2566 26.024L19.7507 26.1267L19.8817 27.4197L20.5014 26.2826ZM21.7846 26.7188L22.2221 26.8948L21.5979 28.4905L21.1607 28.3145L21.7846 26.7188ZM23.7045 27.5421C24.0896 27.7248 24.2598 28.0801 24.1729 28.4692L23.714 28.2513C23.7135 28.1086 23.6408 27.9961 23.5148 27.936C23.3191 27.8431 23.1193 27.9367 23.0093 28.1749C22.8984 28.4156 22.9555 28.6309 23.1512 28.724C23.2773 28.7839 23.4092 28.7685 23.5176 28.6773L23.9765 28.8952C23.7374 29.212 23.3594 29.3071 22.9744 29.1241C22.5131 28.9053 22.3616 28.435 22.5764 27.9695C22.7903 27.5062 23.2433 27.323 23.7045 27.5421ZM25.0027 28.1941L26.2295 28.8109L26.0631 29.1514L25.6585 28.9479L25.073 30.1466L24.6512 29.9344L25.2366 28.736L24.8363 28.5348L25.0027 28.1941ZM26.7826 31.0227C26.3511 30.8091 26.1594 30.3077 26.3825 29.8437C26.6058 29.3796 27.1122 29.2264 27.5437 29.44C27.9776 29.6547 28.166 30.1516 27.9426 30.6159C27.7196 31.08 27.2141 31.2363 26.7826 31.0227ZM26.9743 30.6245C27.1922 30.7323 27.3985 30.642 27.5135 30.4035C27.6303 30.1607 27.5725 29.9421 27.3544 29.8343C27.1344 29.7254 26.9311 29.8145 26.8143 30.0575C26.6993 30.296 26.7541 30.5153 26.9743 30.6245ZM29.5507 30.4241C29.9346 30.5979 30.0295 30.908 29.906 31.1882C29.8158 31.3927 29.6279 31.521 29.3664 31.488L29.4457 32.2576L28.9655 32.0399L28.9134 31.3225L28.8673 31.3017L28.6126 31.88L28.1827 31.685L28.8735 30.1171L29.5507 30.4241ZM29.355 30.773L29.1423 30.6765L28.9983 31.0036L29.211 31.1001C29.3272 31.1527 29.4119 31.1216 29.4589 31.0148C29.5019 30.9171 29.4712 30.8259 29.355 30.773ZM30.5984 30.8929L31.1038 31.0802L31.1595 31.8064L31.6633 31.2876L32.1619 31.4722L31.2063 32.366L31.0219 32.8787L30.5774 32.714L30.7618 32.2013L30.5984 30.8929Z" fill="#E2D661"/>
<path d="M33.6059 28.6048C33.6037 28.6065 33.6016 28.6079 33.5995 28.6096C33.0917 28.9788 32.3054 28.8296 31.0641 28.5554C30.9851 28.538 30.935 28.4589 30.9522 28.3787C30.9692 28.2985 31.0474 28.2475 31.1267 28.2652C32.4008 28.5466 33.0433 28.6486 33.4288 28.3682C33.4302 28.3672 33.4317 28.366 33.4331 28.3651C33.9602 27.9755 34.0997 26.7217 34.3771 24.2305C34.4153 23.8864 34.4564 23.5179 34.5017 23.1233C34.6748 21.6104 35.2597 20.5738 36.2397 20.0442C38.3817 18.8852 41.6161 20.547 41.7528 20.6184C41.8248 20.656 41.8528 20.7455 41.816 20.8186C41.7787 20.8916 41.6907 20.9203 41.6187 20.8827C41.5866 20.8662 38.3831 19.2207 36.3771 20.3069C35.4873 20.7884 34.954 21.7479 34.7928 23.1575C34.7477 23.5519 34.7066 23.9202 34.6684 24.264C34.3724 26.9205 34.2366 28.1383 33.6059 28.6048Z" fill="#77C6EE"/>
</svg>
