<svg viewBox="0 0 55 53" fill="none" xmlns="http://www.w3.org/2000/svg">
<path d="M17.6791 10.3325L15.3186 3.38385C15.0801 2.68178 14.3162 2.30551 13.6124 2.54342L6.54454 4.93257C5.84073 5.17048 5.46352 5.93249 5.70202 6.63456L8.06255 13.5832C8.30105 14.2853 9.06494 14.6616 9.76876 14.4237L16.8366 12.0345C17.5404 11.7966 17.9176 11.0346 17.6791 10.3325Z" fill="#FFEDC5"/>
<path d="M18.7607 10.9076L15.8269 2.27121C15.5884 1.56914 14.8245 1.19287 14.1207 1.43078L5.46282 4.35741C4.75901 4.59532 4.3818 5.35733 4.6203 6.0594L7.55419 14.6958C7.79269 15.3979 8.55658 15.7742 9.2604 15.5363L17.9182 12.6096C18.622 12.3717 18.9992 11.6097 18.7607 10.9076Z" stroke="#FFCD52" stroke-linecap="round" stroke-linejoin="round"/>
<path d="M23.7957 34.1339C23.659 34.5056 24.5626 35.408 25.0015 35.8457C25.3296 36.1751 25.6287 36.4126 25.6949 36.8297C25.7612 37.2468 25.5666 37.5658 25.4755 37.7414C24.8007 39.0423 24.958 40.9472 25.6225 42.0406C25.6805 42.1376 26.1721 42.9358 26.5716 42.8428C26.9712 42.7499 27.0695 41.8176 27.0829 41.6772C27.1368 41.1114 26.9794 40.908 26.9743 40.4382C26.968 39.7247 27.3262 39.2415 27.558 38.8348C28.1107 37.8642 28.7183 35.9686 28.1066 34.8989C27.2496 33.4008 24.014 33.535 23.7957 34.1339Z" fill="#A8BED3"/>
<path d="M27.0943 41.4252C26.5095 41.9755 25.8657 41.8547 25.4207 41.6472C25.4792 41.7826 25.5466 41.9141 25.6225 42.0406C25.6804 42.1366 26.1731 42.9357 26.5716 42.8418C26.9701 42.7478 27.0705 41.8165 27.084 41.6761C27.0917 41.5927 27.0952 41.509 27.0943 41.4252V41.4252Z" fill="#FFCCD8"/>
<path d="M25.9961 41.8145C26.0644 41.9879 26.112 42.1614 26.1679 42.3307C26.2179 42.5033 26.2831 42.6712 26.3625 42.8325C26.2877 42.7746 26.2256 42.7018 26.1804 42.6188C26.1346 42.5372 26.0974 42.451 26.0696 42.3617C26.0421 42.2733 26.0216 42.1828 26.0085 42.0912C25.9936 41.9998 25.9895 41.9069 25.9961 41.8145V41.8145ZM26.6699 41.7123C26.6637 41.8981 26.6554 42.0767 26.6565 42.2554C26.6565 42.3452 26.6565 42.435 26.6616 42.5248C26.6668 42.6147 26.671 42.7055 26.6699 42.7995C26.5904 42.6292 26.5504 42.4432 26.553 42.2554C26.5526 42.1621 26.5616 42.0691 26.5799 41.9776C26.5967 41.8853 26.6271 41.7959 26.6699 41.7123V41.7123Z" fill="#63717C"/>
<path d="M28.1065 34.899C27.2495 33.4008 24.014 33.535 23.7956 34.1339C23.6921 34.4209 24.2034 35.0229 24.6443 35.4844H28.3136C28.2771 35.2793 28.2072 35.0815 28.1065 34.899V34.899Z" fill="#88A4B7"/>
<path d="M16.7202 33.9047C16.4096 34.2206 16.3817 34.5685 16.9034 38.1688C17.1491 39.6184 17.5914 41.0279 18.2179 42.3586C18.3027 42.5351 18.5015 42.9244 18.9124 43.0875C19.1287 43.1742 19.4982 43.2341 19.7155 43.0514C19.9909 42.8201 19.8915 42.3162 19.789 41.7391C19.6483 40.941 19.5613 40.1336 19.4237 39.3345C19.2933 38.5735 19.0759 37.3077 19.2415 35.8364C19.3792 34.6119 19.669 34.2495 19.3874 33.8685C18.9269 33.2459 17.4105 33.2108 16.7202 33.9047Z" fill="#A8BED3"/>
<path d="M19.8066 41.8372C19.1856 42.4143 18.4994 42.2368 18.0564 42.0075C18.1071 42.1242 18.1599 42.2419 18.2179 42.3586C18.3027 42.5351 18.5015 42.9244 18.9124 43.0875C19.1287 43.1742 19.4972 43.2341 19.7156 43.0514C19.9754 42.8335 19.9008 42.373 19.8066 41.8372Z" fill="#FFCCD8"/>
<path d="M19.0613 43.134C19.0023 43.0754 18.9522 43.0086 18.9122 42.9357C18.8701 42.8641 18.837 42.7874 18.8139 42.7076C18.788 42.6266 18.7775 42.5415 18.7829 42.4567C18.7867 42.369 18.8236 42.2859 18.8864 42.2244C18.8638 42.2993 18.8578 42.3782 18.8688 42.4556C18.8783 42.5314 18.8949 42.606 18.9185 42.6787C18.9505 42.8284 19.0085 42.975 19.0613 43.134ZM19.6482 43.0968C19.5754 43.0434 19.5132 42.9769 19.465 42.9006C19.415 42.8253 19.376 42.7432 19.349 42.657C19.3222 42.5697 19.3096 42.4787 19.3118 42.3875C19.3123 42.2971 19.3317 42.2078 19.3687 42.1252C19.3722 42.2113 19.3801 42.2971 19.3925 42.3823C19.4041 42.465 19.4228 42.5465 19.4484 42.626C19.5002 42.7888 19.5671 42.9464 19.6482 43.0968V43.0968Z" fill="#63717C"/>
<path d="M16.7201 33.9047C16.5131 34.1112 16.4334 34.3342 16.5493 35.4843H19.288C19.4329 34.5386 19.6399 34.2103 19.3915 33.8685C18.9268 33.2459 17.4105 33.2108 16.7201 33.9047Z" fill="#88A4B7"/>
<path d="M46.377 34.8649H44.6237V52.4954H46.377V34.8649Z" fill="#FFCD52"/>
<path d="M46.377 37.0217C46.2466 37.1508 46.1058 37.3015 45.9454 37.476C45.6639 37.7796 45.4279 38.0893 44.7034 39.225L44.6237 39.35V47.2525L44.8855 47.0574C45.4339 46.6481 45.9342 46.1785 46.377 45.6574V37.0217Z" fill="#FDA01F"/>
<path d="M53.9938 31.5785H1V34.8639H53.9938V31.5785Z" fill="#FFCD52"/>
<path d="M10.3577 34.8649H8.60437V52.4954H10.3577V34.8649Z" fill="#FFCD52"/>
<path d="M10.3577 34.8649H8.60437V35.4844H10.3577V34.8649Z" fill="#FDA01F"/>
<path d="M28.3674 34.8649H26.614V52.4954H28.3674V34.8649Z" fill="#FFCD52"/>
<path d="M28.3674 34.8649H26.614V35.4844H28.3674V34.8649Z" fill="#FDA01F"/>
<path d="M8.60742 37.0527C8.87015 36.894 9.1665 36.7989 9.47271 36.775C9.78005 36.7477 10.0887 36.8105 10.3608 36.9556C10.0732 36.8829 9.77582 36.8568 9.47996 36.8782C9.18378 36.9057 8.89133 36.9642 8.60742 37.0527V37.0527ZM8.60742 37.7414C8.87015 37.5826 9.1665 37.4875 9.47271 37.4636C9.78005 37.4364 10.0887 37.4992 10.3608 37.6443C10.0732 37.5716 9.77582 37.5454 9.47996 37.5669C9.18378 37.5944 8.89133 37.6529 8.60742 37.7414V37.7414ZM8.60742 42.2151C8.87015 42.0564 9.1665 41.9612 9.47271 41.9373C9.78005 41.9101 10.0887 41.9729 10.3608 42.118C10.0732 42.0453 9.77582 42.0191 9.47996 42.0406C9.18378 42.0681 8.89133 42.1266 8.60742 42.2151V42.2151ZM8.60742 42.9037C8.87015 42.745 9.1665 42.6499 9.47271 42.626C9.78005 42.5988 10.0887 42.6616 10.3608 42.8067C10.0732 42.734 9.77582 42.7078 9.47996 42.7293C9.18378 42.7568 8.89133 42.8152 8.60742 42.9037V42.9037ZM8.60742 47.3775C8.87015 47.2187 9.1665 47.1236 9.47271 47.0997C9.78005 47.0725 10.0887 47.1353 10.3608 47.2804C10.0732 47.2077 9.77582 47.1815 9.47996 47.203C9.18378 47.2305 8.89133 47.289 8.60742 47.3775V47.3775ZM8.60742 48.0661C8.87015 47.9074 9.1665 47.8123 9.47271 47.7884C9.78005 47.7611 10.0887 47.8239 10.3608 47.9691C10.0732 47.8963 9.77582 47.8702 9.47996 47.8916C9.18378 47.9191 8.89133 47.9776 8.60742 48.0661V48.0661ZM8.60742 51.5714C8.86973 51.4117 9.1663 51.3166 9.47271 51.2936C9.78008 51.2659 10.0889 51.3287 10.3608 51.4743C10.0733 51.4013 9.77588 51.3748 9.47996 51.3959C9.18375 51.4237 8.89131 51.4826 8.60742 51.5714V51.5714ZM8.60742 52.26C8.86973 52.1004 9.1663 52.0052 9.47271 51.9823C9.78008 51.9545 10.0889 52.0173 10.3608 52.163C10.0733 52.0899 9.77588 52.0634 9.47996 52.0845C9.18375 52.1124 8.89131 52.1712 8.60742 52.26V52.26ZM44.6266 36.8968C44.893 36.7443 45.1923 36.6579 45.4992 36.6449C45.8076 36.6284 46.114 36.7031 46.38 36.8596C46.096 36.7743 45.7997 36.7366 45.5033 36.7481C45.2066 36.7659 44.9126 36.8158 44.6266 36.8968Z" fill="#FDA01F"/>
<path d="M44.6267 37.5865C44.8932 37.4341 45.1924 37.3474 45.4992 37.3335C45.8076 37.3172 46.114 37.3919 46.3801 37.5483C46.0958 37.4639 45.7997 37.4262 45.5034 37.4367C45.2065 37.4543 44.9125 37.5045 44.6267 37.5865V37.5865Z" fill="#D86C1D"/>
<path d="M44.6268 47.2215C44.8932 47.069 45.1924 46.9826 45.4993 46.9696C45.8077 46.9532 46.1141 47.0279 46.3801 47.1844C46.0961 47.099 45.7999 47.0613 45.5035 47.0729C45.2067 47.0907 44.9128 47.1405 44.6268 47.2215V47.2215ZM44.6268 47.9112C44.8933 47.7589 45.1924 47.6721 45.4993 47.6583C45.8077 47.642 46.1141 47.7167 46.3801 47.873C46.0959 47.7887 45.7998 47.751 45.5035 47.7615C45.2066 47.7791 44.9126 47.8293 44.6268 47.9112V47.9112ZM44.6268 51.5714C44.8934 51.4193 45.1925 51.3329 45.4993 51.3194C45.8077 51.303 46.1141 51.3777 46.3801 51.5342C46.0959 51.4498 45.7998 51.4122 45.5035 51.4227C45.2067 51.4405 44.9128 51.4903 44.6268 51.5714ZM44.6268 52.2611C44.8932 52.1085 45.1924 52.0221 45.4993 52.0091C45.8076 51.993 46.1138 52.0673 46.3801 52.2229C46.096 52.1383 45.7998 52.101 45.5035 52.1124C45.2066 52.1296 44.9126 52.1794 44.6268 52.2611V52.2611ZM26.6172 39.8693C26.8836 39.7167 27.1828 39.6303 27.4897 39.6173C27.7981 39.6009 28.1045 39.6756 28.3705 39.8321C28.0865 39.7467 27.7903 39.709 27.4939 39.7206C27.1971 39.7384 26.9032 39.7882 26.6172 39.8693Z" fill="#FDA01F"/>
<path d="M26.6172 40.558C26.8836 40.4054 27.1828 40.319 27.4897 40.306C27.7981 40.2896 28.1045 40.3643 28.3705 40.5208C28.0865 40.4354 27.7903 40.3977 27.4939 40.4093C27.1971 40.4271 26.9032 40.4769 26.6172 40.558V40.558Z" fill="#D86C1D"/>
<path d="M26.6172 45.0317C26.8836 44.8791 27.1828 44.7927 27.4897 44.7798C27.7981 44.7633 28.1045 44.838 28.3705 44.9945C28.0865 44.9091 27.7903 44.8715 27.4939 44.883C27.1971 44.9008 26.9032 44.9507 26.6172 45.0317V45.0317ZM26.6172 45.7203C26.8836 45.5678 27.1828 45.4814 27.4897 45.4684C27.7981 45.452 28.1045 45.5267 28.3705 45.6832C28.0865 45.5978 27.7903 45.5601 27.4939 45.5717C27.1971 45.5895 26.9032 45.6393 26.6172 45.7203V45.7203ZM26.6172 50.1941C26.8836 50.0415 27.1828 49.9551 27.4897 49.9421C27.7981 49.9257 28.1045 50.0004 28.3705 50.1569C28.0865 50.0715 27.7903 50.0338 27.4939 50.0454C27.1971 50.0632 26.9032 50.113 26.6172 50.1941ZM26.6172 50.8827C26.8836 50.7302 27.1828 50.6438 27.4897 50.6308C27.7981 50.6144 28.1045 50.6891 28.3705 50.8455C28.0865 50.7602 27.7903 50.7225 27.4939 50.734C27.1971 50.7518 26.9032 50.8017 26.6172 50.8827V50.8827Z" fill="#FDA01F"/>
<path opacity="0.31" d="M9.60524 21.581C9.74769 21.5893 9.88906 21.6107 10.0275 21.645C10.1615 21.6773 10.2936 21.7173 10.4229 21.7648C10.4664 21.7808 10.5018 21.8134 10.5212 21.8555C10.5406 21.8975 10.5425 21.9455 10.5264 21.9889C10.5147 22.0172 10.4953 22.0419 10.4705 22.0601L10.4426 22.0828C10.2139 22.2678 9.96739 22.4296 9.70667 22.566V22.2625C9.80786 22.3494 9.90393 22.4422 9.99441 22.5402C10.0889 22.6409 10.1738 22.7501 10.248 22.8665C10.1133 22.8358 9.98162 22.7929 9.85468 22.7384C9.73151 22.6872 9.61157 22.6286 9.49553 22.5629C9.47587 22.5522 9.45855 22.5376 9.4446 22.5201C9.43065 22.5026 9.42033 22.4825 9.41426 22.4609C9.40819 22.4394 9.40648 22.4169 9.40924 22.3947C9.412 22.3725 9.41916 22.351 9.43032 22.3316C9.44052 22.3136 9.45384 22.2975 9.46965 22.2841L9.49967 22.2604C9.72718 22.0742 9.97265 21.9109 10.2325 21.7731L10.2552 22.0952C10.1371 22.0246 10.0231 21.9473 9.91368 21.8639C9.8026 21.779 9.69937 21.6843 9.60524 21.581ZM11.0791 24.0012C11.1976 23.9986 11.3159 24.009 11.4321 24.0321C11.5426 24.0531 11.6516 24.0818 11.7581 24.1178C11.8006 24.1337 11.8351 24.1654 11.8545 24.2063C11.8738 24.2472 11.8764 24.294 11.8616 24.3367C11.8513 24.3659 11.8334 24.3919 11.8099 24.4121L11.7757 24.441C11.5931 24.5949 11.3926 24.7263 11.1785 24.8323V24.5287C11.2597 24.6016 11.3355 24.6802 11.4052 24.7642C11.4801 24.8509 11.545 24.9458 11.5987 25.0471C11.4852 25.0311 11.3738 25.0027 11.2665 24.9624C11.1638 24.9249 11.0638 24.8804 10.9673 24.8292C10.948 24.819 10.9308 24.8051 10.9168 24.7882C10.9028 24.7714 10.8923 24.7519 10.8858 24.731C10.8794 24.7101 10.8771 24.6881 10.8792 24.6664C10.8813 24.6446 10.8877 24.6234 10.898 24.6041C10.9076 24.586 10.9206 24.5698 10.9363 24.5566L10.9715 24.5257C11.1532 24.3705 11.3531 24.2377 11.5666 24.1302L11.5894 24.4534C11.4938 24.3938 11.4028 24.3272 11.3172 24.2541C11.2288 24.1787 11.149 24.0939 11.0791 24.0012ZM11.46 19.7236C11.5635 19.7422 11.667 19.7659 11.7705 19.7928C11.874 19.8196 11.9775 19.8475 12.0728 19.8795C12.2722 19.9428 12.4681 20.0117 12.6607 20.086C12.6828 20.0945 12.703 20.1072 12.7201 20.1234C12.7373 20.1397 12.7511 20.1592 12.7607 20.1808C12.7703 20.2023 12.7756 20.2256 12.7762 20.2492C12.7767 20.2728 12.7727 20.2963 12.7642 20.3183C12.7521 20.3482 12.7321 20.3743 12.7062 20.3937L12.6865 20.4081C12.3305 20.6777 11.9571 20.9237 11.5687 21.1443V20.8407C11.725 20.9667 11.8792 21.0978 12.0252 21.2362C12.175 21.3749 12.3161 21.5228 12.4474 21.6791C12.2551 21.6096 12.0673 21.5278 11.8854 21.4344C11.7053 21.3436 11.5294 21.2444 11.3576 21.1412C11.3178 21.117 11.2893 21.0781 11.2783 21.0331C11.2672 20.988 11.2745 20.9404 11.2986 20.9006C11.31 20.8822 11.3247 20.8661 11.342 20.8531L11.3617 20.8376C11.7173 20.5676 12.09 20.3207 12.4775 20.0984L12.5002 20.4216C12.3201 20.3231 12.1421 20.2154 11.9662 20.0984C11.8792 20.0406 11.7943 19.9797 11.7084 19.9177C11.6225 19.8558 11.5408 19.7948 11.46 19.7236ZM11.8523 15.5235C12.0945 15.5576 12.3315 15.6051 12.5654 15.6598C12.6834 15.6846 12.8004 15.7145 12.9163 15.7444C13.0322 15.7744 13.1492 15.8043 13.2651 15.8374C13.2823 15.8421 13.2985 15.8502 13.3125 15.8612C13.3266 15.8722 13.3383 15.8859 13.3471 15.9014C13.3558 15.917 13.3614 15.9341 13.3635 15.9518C13.3656 15.9695 13.3642 15.9875 13.3593 16.0046C13.3532 16.0284 13.3402 16.05 13.3221 16.0666L13.3138 16.0748C12.9356 16.4293 12.544 16.7673 12.139 17.0887L12.1121 16.8626C12.2156 16.9204 12.3129 16.9813 12.4123 17.0423C12.5116 17.1032 12.611 17.1641 12.7083 17.2281C12.9039 17.3541 13.0974 17.4852 13.2838 17.6297C13.0592 17.5595 12.8397 17.4759 12.6244 17.3871C12.5209 17.3437 12.4091 17.2983 12.3025 17.2508C12.1959 17.2033 12.0893 17.1569 11.9848 17.1073C11.9525 17.0921 11.9277 17.0647 11.9156 17.0312C11.9036 16.9978 11.9054 16.9609 11.9206 16.9287C11.9276 16.9138 11.9374 16.9005 11.9496 16.8895L11.9579 16.8812C12.3346 16.526 12.7255 16.187 13.1306 15.8642L13.1782 16.1017C13.0664 16.0604 12.9536 16.017 12.8428 15.9716C12.7321 15.9262 12.6193 15.8828 12.5085 15.8332C12.287 15.7393 12.0676 15.6381 11.8523 15.5235ZM14.9833 19.418C15.1794 19.4392 15.3742 19.4705 15.567 19.5119C15.7596 19.5501 15.949 19.5966 16.1373 19.6472C16.1721 19.6566 16.2018 19.6794 16.2198 19.7105C16.2378 19.7417 16.2428 19.7787 16.2336 19.8134C16.2268 19.837 16.214 19.8583 16.1963 19.8754L16.186 19.8847C15.883 20.1765 15.5648 20.4522 15.2327 20.7106L15.2068 20.4845C15.3683 20.5816 15.5298 20.6807 15.685 20.7881C15.844 20.8941 15.9974 21.0081 16.1446 21.1298C15.9607 21.0787 15.7797 21.0181 15.6022 20.9481C15.4242 20.882 15.2503 20.8067 15.0785 20.7292C15.0467 20.7144 15.0219 20.6877 15.0096 20.6549C14.9972 20.6221 14.9981 20.5858 15.0123 20.5537C15.0195 20.5387 15.0293 20.5251 15.0412 20.5134L15.0516 20.5031C15.3539 20.2114 15.6714 19.9357 16.0028 19.6771L16.0504 19.9146C15.8693 19.8444 15.6881 19.7711 15.5101 19.6885C15.3298 19.6079 15.1539 19.5176 14.9833 19.418V19.418ZM14.6686 11.8541C15.0247 11.9408 15.3766 12.0358 15.7285 12.1349C16.0804 12.234 16.4303 12.3414 16.778 12.4446C16.7895 12.4481 16.8002 12.4537 16.8095 12.4613C16.8187 12.4689 16.8264 12.4783 16.832 12.4888C16.8376 12.4994 16.841 12.511 16.842 12.5229C16.8431 12.5348 16.8417 12.5468 16.8381 12.5582C16.834 12.5738 16.8254 12.5878 16.8132 12.5985V12.5985C16.5213 12.8628 16.2243 13.1147 15.9293 13.379L15.4811 13.7621C15.3321 13.8901 15.1799 14.015 15.0288 14.141L15.0112 13.9913C15.3217 14.1606 15.6302 14.3327 15.9365 14.5075C16.2471 14.6831 16.5472 14.8627 16.8474 15.0506C16.5213 14.9112 16.1994 14.7646 15.8807 14.6139C15.5619 14.4631 15.2431 14.3041 14.9274 14.1513C14.9168 14.1461 14.9073 14.1388 14.8995 14.1298C14.8917 14.1209 14.8858 14.1105 14.882 14.0993C14.8783 14.0881 14.8768 14.0762 14.8777 14.0644C14.8785 14.0526 14.8817 14.0411 14.887 14.0305C14.8918 14.0204 14.8984 14.0113 14.9067 14.0037V14.0037C15.0537 13.8726 15.1975 13.7404 15.3466 13.6113L15.7906 13.2231C16.0887 12.9671 16.3858 12.7069 16.689 12.4591L16.7211 12.616C16.3754 12.4983 16.0328 12.3755 15.6861 12.2485C15.3393 12.1215 15.0071 11.9945 14.6686 11.8541Z" fill="#0850EC"/>
<path d="M1.65107 31.5785L1.5072 34.8649" stroke="#FDA01F" stroke-width="2" stroke-miterlimit="10"/>
<path d="M2.34866 31.5785L2.26172 34.8649" stroke="#FDA01F" stroke-width="2" stroke-miterlimit="10"/>
<path d="M2.89514 31.5785V34.8649" stroke="#FDA01F" stroke-width="2" stroke-miterlimit="10"/>
<path d="M3.4292 31.5785V34.8649" stroke="#FDA01F" stroke-width="2" stroke-miterlimit="10"/>
<path d="M4.02234 31.5785V34.8649" stroke="#FDA01F" stroke-width="2" stroke-miterlimit="10"/>
<path d="M4.63708 31.5785L4.86065 34.8649" stroke="#FDA01F" stroke-width="2" stroke-miterlimit="10"/>
<path d="M5.29846 31.5785L5.33572 34.8649" stroke="#FDA01F" stroke-width="2" stroke-miterlimit="10"/>
<path d="M5.99711 31.5785L5.83875 34.8649" stroke="#FDA01F" stroke-width="2" stroke-miterlimit="10"/>
<path d="M6.44434 31.5785L6.49091 34.8649" stroke="#FDA01F" stroke-width="2" stroke-miterlimit="10"/>
<path d="M7.18945 31.5785L7.22671 34.8649" stroke="#FDA01F" stroke-width="2" stroke-miterlimit="10"/>
<path d="M7.89746 31.5785L7.93472 34.8649" stroke="#FDA01F" stroke-width="2" stroke-miterlimit="10"/>
<path d="M8.53406 31.5785L8.68 34.8649" stroke="#FDA01F" stroke-width="2" stroke-miterlimit="10"/>
<path d="M9.23889 31.5785L9.33204 34.8649" stroke="#FDA01F" stroke-width="2" stroke-miterlimit="10"/>
<path d="M10.1145 31.5785V34.8649" stroke="#FDA01F" stroke-width="2" stroke-miterlimit="10"/>
<path d="M10.9716 31.5785V34.8649" stroke="#FDA01F" stroke-width="2" stroke-miterlimit="10"/>
<path d="M11.6909 31.5785V34.8649" stroke="#FDA01F" stroke-width="2" stroke-miterlimit="10"/>
<path d="M12.5738 31.5785L12.49 34.8649" stroke="#FDA01F" stroke-width="2" stroke-miterlimit="10"/>
<path d="M13.4494 31.5785L13.3749 34.8649" stroke="#FDA01F" stroke-width="2" stroke-miterlimit="10"/>
<path d="M14.2226 31.5785L14.0922 34.8649" stroke="#FDA01F" stroke-width="2" stroke-miterlimit="10"/>
<path d="M14.7908 31.5785V34.8649" stroke="#FDA01F" stroke-width="2" stroke-miterlimit="10"/>
<path d="M15.4894 31.5785L15.4429 34.8649" stroke="#FDA01F" stroke-width="2" stroke-miterlimit="10"/>
<path d="M16.2451 31.5785L16.1012 34.8649" stroke="#FDA01F" stroke-width="2" stroke-miterlimit="10"/>
<path d="M16.9427 31.5785L16.8557 34.8649" stroke="#FDA01F" stroke-width="2" stroke-miterlimit="10"/>
<path d="M17.4891 31.5785V34.8649" stroke="#FDA01F" stroke-width="2" stroke-miterlimit="10"/>
<path d="M18.0232 31.5785V34.8649" stroke="#FDA01F" stroke-width="2" stroke-miterlimit="10"/>
<path d="M18.6163 31.5785V34.8649" stroke="#FDA01F" stroke-width="2" stroke-miterlimit="10"/>
<path d="M19.2311 31.5785L19.4546 34.8649" stroke="#FDA01F" stroke-width="2" stroke-miterlimit="10"/>
<path d="M19.8926 31.5785L19.9298 34.8649" stroke="#FDA01F" stroke-width="2" stroke-miterlimit="10"/>
<path d="M20.5911 31.5785L20.4327 34.8649" stroke="#FDA01F" stroke-width="2" stroke-miterlimit="10"/>
<path d="M21.0382 31.5785L21.0848 34.8649" stroke="#FDA01F" stroke-width="2" stroke-miterlimit="10"/>
<path d="M21.7836 31.5785L21.8208 34.8649" stroke="#FDA01F" stroke-width="2" stroke-miterlimit="10"/>
<path d="M22.4915 31.5785L22.5287 34.8649" stroke="#FDA01F" stroke-width="2" stroke-miterlimit="10"/>
<path d="M23.1281 31.5785L23.274 34.8649" stroke="#FDA01F" stroke-width="2" stroke-miterlimit="10"/>
<path d="M23.8329 31.5785L23.926 34.8649" stroke="#FDA01F" stroke-width="2" stroke-miterlimit="10"/>
<path d="M24.7085 31.5785V34.8649" stroke="#FDA01F" stroke-width="2" stroke-miterlimit="10"/>
<path d="M25.5656 31.5785V34.8649" stroke="#FDA01F" stroke-width="2" stroke-miterlimit="10"/>
<path d="M26.2849 31.5785V34.8649" stroke="#FDA01F" stroke-width="2" stroke-miterlimit="10"/>
<path d="M27.1677 31.5785L27.0839 34.8649" stroke="#FDA01F" stroke-width="2" stroke-miterlimit="10"/>
<path d="M28.0434 31.5785L27.9689 34.8649" stroke="#FDA01F" stroke-width="2" stroke-miterlimit="10"/>
<path d="M28.8166 31.5785L28.6862 34.8649" stroke="#FDA01F" stroke-width="2" stroke-miterlimit="10"/>
<path d="M29.3848 31.5785V34.8649" stroke="#FDA01F" stroke-width="2" stroke-miterlimit="10"/>
<path d="M30.0834 31.5785L30.0369 34.8649" stroke="#FDA01F" stroke-width="2" stroke-miterlimit="10"/>
<path d="M30.9425 31.5785L30.7986 34.8649" stroke="#FDA01F" stroke-width="2" stroke-miterlimit="10"/>
<path d="M31.6402 31.5785L31.5532 34.8649" stroke="#FDA01F" stroke-width="2" stroke-miterlimit="10"/>
<path d="M32.1866 31.5785V34.8649" stroke="#FDA01F" stroke-width="2" stroke-miterlimit="10"/>
<path d="M32.7207 31.5785V34.8649" stroke="#FDA01F" stroke-width="2" stroke-miterlimit="10"/>
<path d="M33.3138 31.5785V34.8649" stroke="#FDA01F" stroke-width="2" stroke-miterlimit="10"/>
<path d="M33.9286 31.5785L34.1522 34.8649" stroke="#FDA01F" stroke-width="2" stroke-miterlimit="10"/>
<path d="M34.59 31.5785L34.6272 34.8649" stroke="#FDA01F" stroke-width="2" stroke-miterlimit="10"/>
<path d="M35.2886 31.5785L35.1302 34.8649" stroke="#FDA01F" stroke-width="2" stroke-miterlimit="10"/>
<path d="M35.7357 31.5785L35.7823 34.8649" stroke="#FDA01F" stroke-width="2" stroke-miterlimit="10"/>
<path d="M36.481 31.5785L36.5182 34.8649" stroke="#FDA01F" stroke-width="2" stroke-miterlimit="10"/>
<path d="M37.189 31.5785L37.2262 34.8649" stroke="#FDA01F" stroke-width="2" stroke-miterlimit="10"/>
<path d="M37.8256 31.5785L37.9715 34.8649" stroke="#FDA01F" stroke-width="2" stroke-miterlimit="10"/>
<path d="M38.5304 31.5785L38.6235 34.8649" stroke="#FDA01F" stroke-width="2" stroke-miterlimit="10"/>
<path d="M39.406 31.5785V34.8649" stroke="#FDA01F" stroke-width="2" stroke-miterlimit="10"/>
<path d="M40.2629 31.5785V34.8649" stroke="#FDA01F" stroke-width="2" stroke-miterlimit="10"/>
<path d="M40.9824 31.5785V34.8649" stroke="#FDA01F" stroke-width="2" stroke-miterlimit="10"/>
<path d="M41.8652 31.5785L41.7814 34.8649" stroke="#FDA01F" stroke-width="2" stroke-miterlimit="10"/>
<path d="M42.7409 31.5785L42.6664 34.8649" stroke="#FDA01F" stroke-width="2" stroke-miterlimit="10"/>
<path d="M43.5141 31.5785L43.3837 34.8649" stroke="#FDA01F" stroke-width="2" stroke-miterlimit="10"/>
<path d="M44.0823 31.5785V34.8649" stroke="#FDA01F" stroke-width="2" stroke-miterlimit="10"/>
<path d="M44.781 31.5785L44.7344 34.8649" stroke="#FDA01F" stroke-width="2" stroke-miterlimit="10"/>
<path d="M45.5366 31.5785L45.3927 34.8649" stroke="#FDA01F" stroke-width="2" stroke-miterlimit="10"/>
<path d="M46.2342 31.5785L46.1472 34.8649" stroke="#FDA01F" stroke-width="2" stroke-miterlimit="10"/>
<path d="M46.7806 31.5785V34.8649" stroke="#FDA01F" stroke-width="2" stroke-miterlimit="10"/>
<path d="M47.3147 31.5785V34.8649" stroke="#FDA01F" stroke-width="2" stroke-miterlimit="10"/>
<path d="M47.9077 31.5785V34.8649" stroke="#FDA01F" stroke-width="2" stroke-miterlimit="10"/>
<path d="M48.5226 31.5785L48.7461 34.8649" stroke="#FDA01F" stroke-width="2" stroke-miterlimit="10"/>
<path d="M49.184 31.5785L49.2212 34.8649" stroke="#FDA01F" stroke-width="2" stroke-miterlimit="10"/>
<path d="M49.8826 31.5785L49.7242 34.8649" stroke="#FDA01F" stroke-width="2" stroke-miterlimit="10"/>
<path d="M50.3297 31.5785L50.3763 34.8649" stroke="#FDA01F" stroke-width="2" stroke-miterlimit="10"/>
<path d="M51.075 31.5785L51.1122 34.8649" stroke="#FDA01F" stroke-width="2" stroke-miterlimit="10"/>
<path d="M51.783 31.5785L51.8202 34.8649" stroke="#FDA01F" stroke-width="2" stroke-miterlimit="10"/>
<path d="M52.4196 31.5785L52.5655 34.8649" stroke="#FDA01F" stroke-width="2" stroke-miterlimit="10"/>
<path d="M53.1244 31.5785L53.2175 34.8649" stroke="#FDA01F" stroke-width="2" stroke-miterlimit="10"/>
<path d="M54 31.5785V34.8649" stroke="#FDA01F" stroke-width="2" stroke-miterlimit="10"/>
<path d="M7.26189 30.2724C7.26189 30.2724 6.82407 30.8558 6.81165 30.9528C6.81165 30.9528 7.23808 30.7711 7.27431 30.832C7.27431 30.832 6.87892 31.469 6.87892 31.5785L33.4327 31.5867C33.8716 31.6497 34.9988 31.8769 35.4273 32.1195C36.1052 32.5025 36.4199 33.1138 36.6331 33.5402C36.8577 33.9924 37.2034 34.8566 37.1806 36.5282C37.162 37.8652 36.9322 37.9282 36.7428 39.6989C36.6 41.0236 36.4985 42.0375 36.7428 43.3064C36.898 44.1179 37.075 45.0399 37.7654 45.966C38.0428 46.3398 39.2144 47.8069 41.0899 47.9711C42.659 48.1084 43.8069 47.2484 44.8885 46.4399C47.088 44.7942 47.917 42.69 48.5784 41.0102C49.6404 38.3133 49.1808 37.3511 49.0535 37.1115C48.7357 36.5168 48.0371 35.8116 47.3001 35.8726C46.8313 35.9108 46.5135 36.2453 45.9484 36.8565C45.6669 37.1601 45.4309 37.4698 44.7063 38.6055C44.1257 39.5213 43.8638 39.9787 43.3173 40.6096C42.7543 41.261 42.5028 41.3849 42.2585 41.4118C41.6489 41.4779 41.1438 40.9348 40.943 40.719C40.6418 40.3948 40.3219 39.893 40.1035 38.715C39.9038 37.6329 40.0352 37.3025 39.9566 36.2009C39.8779 35.0992 39.8044 34.0471 39.2631 33.0663C38.522 31.7241 36.2615 30.7948 35.7802 30.5646C36.0638 29.7582 36.6238 27.8099 35.9996 25.5117C35.7999 24.7765 34.8042 21.5232 31.8595 20.4102C30.1227 19.7535 28.595 20.2099 26.5498 20.7199C23.6589 21.4489 21.7244 22.9181 20.2671 24.0486C18.67 25.2876 17.7944 26.5761 17.0523 27.4744C17.2231 26.6484 16.4188 24.1942 16.4188 24.1942C15.6881 24.6805 14.4461 26.6722 14.4461 26.6722C14.0093 26.3996 13.4493 26.1198 12.3522 25.967C11.3172 25.8235 10.8317 25.8988 10.3432 26.03L8.86619 24.1994C8.52566 24.7827 8.74406 26.7506 8.74406 26.7506C8.19547 27.1442 7.76668 27.6815 7.5051 28.303C7.24352 28.9245 7.15935 29.6061 7.26189 30.2724" fill="#A8BED3"/>
<path d="M16.2824 29.6416C16.421 29.7644 16.5556 29.8904 16.6964 30.0143C16.8371 30.1382 16.9665 30.2673 17.1021 30.3943C17.1053 30.3974 17.1079 30.4012 17.1096 30.4054C17.1114 30.4095 17.1123 30.414 17.1123 30.4185C17.1123 30.423 17.1114 30.4275 17.1096 30.4317C17.1079 30.4358 17.1053 30.4396 17.1021 30.4428C17.0978 30.4476 17.0922 30.451 17.0859 30.4527C17.0796 30.4543 17.073 30.4541 17.0669 30.4521L16.6084 30.3086L16.1509 30.1599L16.1975 30.0793C16.3455 30.2125 16.4894 30.3488 16.627 30.4923C16.6961 30.5654 16.7614 30.6419 16.8226 30.7216C16.8541 30.7623 16.8828 30.805 16.9085 30.8496C16.922 30.8744 16.9334 30.9003 16.9427 30.927C16.9498 30.9448 16.9529 30.9639 16.9519 30.9829C16.9508 31.002 16.9455 31.0206 16.9365 31.0375C16.9319 31.0464 16.9243 31.0534 16.915 31.0574C16.9058 31.0613 16.8954 31.062 16.8858 31.0592V31.0592C16.7554 31.0241 16.627 30.9879 16.4987 30.9466C16.4355 30.925 16.3714 30.9043 16.3072 30.8764C16.2702 30.8625 16.2353 30.8433 16.2037 30.8196L16.1892 30.8041L16.183 30.7938L16.1695 30.7721L16.1426 30.7308C16.1372 30.7223 16.1353 30.712 16.1374 30.7022C16.1396 30.6923 16.1455 30.6837 16.154 30.6782C16.1603 30.6741 16.1677 30.672 16.1752 30.672C16.1827 30.672 16.1901 30.6741 16.1964 30.6782C16.3724 30.7959 16.5453 30.9157 16.714 31.0416C16.7978 31.1067 16.8816 31.1707 16.9624 31.2388C17.0451 31.3045 17.1198 31.3797 17.1849 31.4629C17.1122 31.3864 17.0321 31.3172 16.9458 31.2564C16.8609 31.1944 16.774 31.1366 16.686 31.0778C16.5111 30.9621 16.3331 30.8485 16.154 30.7391L16.2068 30.6854L16.2347 30.7267L16.2492 30.7474L16.2565 30.7577C16.2804 30.7721 16.3057 30.7842 16.332 30.7938C16.3921 30.8165 16.4542 30.8382 16.5173 30.8568C16.6436 30.896 16.773 30.9301 16.9003 30.9601L16.8485 30.9807C16.851 30.9698 16.851 30.9585 16.8485 30.9477C16.8417 30.9274 16.8327 30.9081 16.8216 30.8898C16.7974 30.8497 16.7708 30.8111 16.7419 30.7742C16.6829 30.6988 16.6167 30.6266 16.5494 30.5553C16.4169 30.4128 16.2761 30.2745 16.1354 30.1423C16.1265 30.1334 16.1215 30.1214 16.1215 30.1088C16.1215 30.0962 16.1265 30.0841 16.1354 30.0752C16.1418 30.0686 16.1499 30.0639 16.1589 30.0617C16.1679 30.0595 16.1773 30.0599 16.1861 30.0628L16.6415 30.2177L17.0949 30.3788L17.0586 30.4366C16.9303 30.3034 16.7999 30.1723 16.6726 30.038C16.5453 29.9038 16.4076 29.7779 16.2824 29.6416Z" fill="#63717C"/>
<path d="M9.28235 26.5348V25.364L9.81643 26.3696C9.81643 26.3696 9.46451 26.3387 9.28235 26.5348ZM15.4781 26.8229L16.1633 25.7326V27.0903C16.1633 27.0903 16.008 26.6742 15.4781 26.8229Z" fill="#FFCCD8"/>
<path d="M16.0815 28.1517C16.2418 28.2291 16.3872 28.3339 16.5111 28.4615C16.6379 28.5872 16.746 28.7304 16.8319 28.8869C16.9605 29.122 17.0407 29.3803 17.0679 29.6467C17.0741 29.7345 17.0741 29.8233 17.0679 29.9111C17.0359 29.7403 16.9934 29.5717 16.9406 29.4062C16.8874 29.2435 16.818 29.0865 16.7336 28.9374C16.6515 28.7873 16.5544 28.6459 16.4438 28.5152C16.3353 28.3825 16.214 28.2607 16.0815 28.1517V28.1517Z" fill="#63717C"/>
<path d="M12.3337 29.8594C12.5112 29.7021 12.7252 29.5914 12.9563 29.5373C13.1874 29.4832 13.4284 29.4875 13.6575 29.5497M8.97605 29.7871C8.97605 29.7871 8.63863 29.3865 8.22668 29.3225L8.97605 29.7871Z" stroke="#475259" stroke-width="2" stroke-linecap="round" stroke-linejoin="round"/>
<path d="M11.6091 30.5646C11.9137 30.3872 12.236 30.2419 12.5707 30.1309C12.9055 30.0171 13.2498 29.9331 13.5995 29.8801C13.7744 29.8501 13.9504 29.8388 14.1263 29.8222L14.3923 29.816C14.4358 29.816 14.4803 29.816 14.5248 29.816L14.6573 29.8233C15.0099 29.8366 15.3598 29.8892 15.7006 29.9802C15.6137 29.9709 15.5257 29.9596 15.4398 29.9482C15.353 29.9349 15.2656 29.9263 15.1779 29.9224L14.9171 29.9038C14.8302 29.9038 14.7422 29.9038 14.6552 29.9038C14.4814 29.8986 14.3075 29.9152 14.1377 29.9234C13.968 29.9317 13.791 29.9544 13.6202 29.9854C13.2757 30.0373 12.9352 30.1122 12.6007 30.2094L12.3502 30.2858L12.1028 30.3725C11.929 30.4231 11.7665 30.4933 11.6091 30.5646Z" fill="#63717C"/>
<path d="M11.8523 30.6978C12.116 30.5932 12.3864 30.5062 12.6617 30.4376C12.9368 30.366 13.2161 30.3118 13.498 30.2755C13.7806 30.2372 14.066 30.224 14.3509 30.2363C14.6361 30.246 14.9179 30.3004 15.1862 30.3974C15.1158 30.385 15.0464 30.3726 14.9792 30.3581C14.9119 30.3437 14.8394 30.3426 14.7722 30.3333C14.7034 30.325 14.6344 30.3202 14.5652 30.3189C14.4958 30.3189 14.4254 30.3117 14.3581 30.3189L14.1511 30.3241L13.9441 30.3375C13.8044 30.3478 13.6647 30.3623 13.5301 30.3808C13.2507 30.4139 12.9743 30.4655 12.7021 30.5182C12.5634 30.544 12.4257 30.5739 12.2881 30.6059C12.1504 30.6379 11.991 30.6648 11.8523 30.6978ZM11.7892 30.8713C12.0281 30.8134 12.27 30.7682 12.5137 30.736C12.7588 30.7019 13.0054 30.6802 13.2527 30.671C13.5008 30.6601 13.7493 30.6695 13.9959 30.6988C14.1199 30.7153 14.2424 30.7415 14.3623 30.7773C14.483 30.8121 14.5934 30.8755 14.6842 30.9621C14.5835 30.8932 14.4691 30.8467 14.3488 30.8258C14.2302 30.8007 14.1098 30.7848 13.9886 30.7783C13.7445 30.766 13.4999 30.766 13.2558 30.7783C13.0116 30.7856 12.7673 30.8031 12.522 30.8186L11.7892 30.8713ZM8.96975 30.3581C8.80932 30.2869 8.64785 30.2198 8.48225 30.163L8.23487 30.0763L7.98646 29.9999C7.65166 29.9026 7.31072 29.8278 6.96592 29.7758C6.7941 29.7448 6.62125 29.7324 6.4484 29.7139C6.27555 29.6953 6.10063 29.6891 5.93088 29.6942C5.84394 29.6942 5.757 29.6942 5.66902 29.6942L5.40819 29.7128C5.32084 29.7167 5.23377 29.7253 5.14736 29.7386C5.06042 29.75 4.97348 29.7613 4.8855 29.7706C5.22666 29.6796 5.57695 29.627 5.92985 29.6137L6.06233 29.6065C6.1058 29.6065 6.15031 29.6065 6.19482 29.6065L6.45979 29.6127C6.63574 29.6292 6.81273 29.6405 6.98662 29.6705C7.33638 29.7233 7.6807 29.8073 8.01545 29.9214C8.34779 30.0338 8.6676 30.1801 8.96975 30.3581V30.3581Z" fill="#63717C"/>
<path d="M8.72346 30.4913C8.5858 30.4583 8.44814 30.4242 8.30944 30.3963C8.17075 30.3685 8.03412 30.3344 7.89543 30.3086C7.61908 30.2559 7.34272 30.2053 7.0674 30.1713C6.9294 30.1527 6.78967 30.1382 6.64821 30.1279L6.43396 30.1134H6.22695C6.15657 30.1134 6.08722 30.1134 6.01995 30.1134C5.95074 30.1147 5.88165 30.1195 5.81294 30.1279C5.74359 30.1372 5.67217 30.1382 5.60593 30.1527C5.53969 30.1671 5.46827 30.1795 5.39893 30.1919C5.66485 30.0954 5.94419 30.0407 6.22695 30.0298C6.51185 30.0175 6.79727 30.0307 7.07982 30.069C7.36176 30.1053 7.64109 30.1595 7.91613 30.2311C8.19079 30.2997 8.46051 30.3866 8.72346 30.4913V30.4913ZM8.78763 30.6648L8.05069 30.608C7.80642 30.5925 7.56111 30.5749 7.31685 30.5677C7.07308 30.5553 6.82884 30.5553 6.58508 30.5677C6.46362 30.5743 6.34285 30.5901 6.22385 30.6152C6.10386 30.6361 5.98982 30.6826 5.88953 30.7515C5.97976 30.6647 6.08992 30.6013 6.21039 30.5667C6.33025 30.5309 6.45277 30.5046 6.5768 30.4882C6.82369 30.4588 7.07257 30.4495 7.32099 30.4603C7.56792 30.4696 7.81423 30.4913 8.05896 30.5254C8.30417 30.5589 8.5474 30.6054 8.78763 30.6648Z" fill="#63717C"/>
<path d="M10.1363 30.6297C9.94999 30.5047 9.98933 30.387 9.77921 30.2652C9.59705 30.162 9.49251 30.2053 9.42316 30.101C9.31966 29.9462 9.45421 29.6994 9.47802 29.655C9.50183 29.6106 9.6281 29.3762 9.86202 29.336C10.0256 29.3071 10.069 29.4051 10.3278 29.4454C10.4634 29.4661 10.4727 29.4454 10.8577 29.4175C11.3752 29.3845 11.4549 29.4175 11.5057 29.463C11.5647 29.5123 11.6087 29.5771 11.6329 29.6501C11.657 29.723 11.6603 29.8013 11.6423 29.876C11.575 30.0876 11.3059 30.0329 11.0585 30.323C10.9002 30.5089 10.955 30.5997 10.8122 30.6875C10.6207 30.798 10.3267 30.7536 10.1363 30.6297Z" fill="#FFCCD8"/>
<path d="M10.3764 31.4629C10.3301 31.3461 10.3114 31.2204 10.3215 31.0953C10.3266 30.9704 10.3569 30.8479 10.4106 30.735C10.4297 30.8561 10.4346 30.9792 10.4251 31.1015C10.4187 31.2231 10.4024 31.3439 10.3764 31.4629V31.4629ZM22.9303 28.3417C23.0492 28.5023 23.1561 28.6714 23.2502 28.8476C23.3468 29.0227 23.4322 29.2037 23.5058 29.3896C23.581 29.576 23.6389 29.7688 23.6787 29.9658C23.724 30.1622 23.7306 30.3656 23.6983 30.5646C23.6886 30.3676 23.6538 30.1726 23.5948 29.9843C23.5418 29.7955 23.4782 29.6097 23.4044 29.4278C23.333 29.2441 23.2543 29.0634 23.1736 28.8827L22.9303 28.3417ZM26.0841 29.0262C26.0222 28.7063 26.0187 28.3779 26.0737 28.0567C26.1018 27.895 26.1473 27.7368 26.2093 27.5849C26.2729 27.4329 26.3626 27.2931 26.4743 27.1719C26.3979 27.3117 26.3345 27.4583 26.2849 27.6096C26.2391 27.7611 26.2024 27.9153 26.1752 28.0712C26.1483 28.2271 26.1307 28.3809 26.1162 28.543C26.1017 28.7051 26.0903 28.8641 26.0841 29.0262ZM26.7206 29.2162C26.8227 28.837 26.9447 28.4634 27.086 28.097C27.2247 27.7294 27.3862 27.3742 27.5601 27.018C27.735 26.6647 27.9382 26.326 28.1676 26.0052C28.3891 25.678 28.6699 25.3951 28.9956 25.1709C28.9232 25.237 28.8497 25.3021 28.7762 25.3661C28.7027 25.4301 28.6448 25.5106 28.5796 25.5829C28.5144 25.6552 28.4585 25.7357 28.3984 25.8111C28.3383 25.8879 28.2824 25.9679 28.2308 26.0506C28.121 26.2106 28.0237 26.3789 27.9202 26.5462C27.8167 26.7135 27.7329 26.8879 27.648 27.0624C27.469 27.4083 27.3085 27.7655 27.1554 28.1248C27.0781 28.3045 27.0036 28.4852 26.9318 28.6669C26.8583 28.8496 26.7879 29.0324 26.7206 29.2162Z" fill="#63717C"/>
<path d="M31.5646 32.0225L31.844 31.6095C31.9351 31.4711 32.0283 31.3338 32.1131 31.1913C32.198 31.0489 32.2839 30.9074 32.3574 30.7598C32.4336 30.6123 32.4979 30.459 32.5499 30.3014C32.5366 30.4703 32.4968 30.6362 32.4319 30.7928C32.3683 30.9498 32.2914 31.101 32.2022 31.245C32.0256 31.5316 31.8111 31.7931 31.5646 32.0225V32.0225Z" fill="black"/>
<path d="M20.3334 26.6257C20.7462 26.0676 21.2224 25.559 21.7524 25.11C22.2763 24.6547 22.8446 24.2527 23.4488 23.9103L23.6745 23.7812C23.751 23.741 23.8307 23.7038 23.9084 23.6656C24.0647 23.5902 24.2189 23.5097 24.3772 23.4405C24.6949 23.3006 25.02 23.1782 25.3512 23.074L25.5996 22.9965C25.6824 22.9707 25.7652 22.9428 25.8501 22.9253L26.3573 22.8097C26.5262 22.7709 26.6973 22.7419 26.8696 22.7229L27.3871 22.6548C26.7032 22.7606 26.0299 22.9261 25.375 23.1493C25.0459 23.2526 24.7323 23.3951 24.4135 23.5262C24.2572 23.5964 24.103 23.678 23.9508 23.7533C23.8742 23.7926 23.7966 23.8287 23.721 23.87L23.4975 24.0001C23.1952 24.1632 22.9096 24.3553 22.6218 24.5442L22.2078 24.8488C22.0712 24.952 21.9387 25.0636 21.8031 25.1699C21.6675 25.2762 21.5433 25.395 21.4119 25.5075C21.2804 25.6201 21.1603 25.7429 21.0372 25.8627C20.7881 26.1034 20.5531 26.3581 20.3334 26.6257V26.6257ZM33.6346 23.329C33.8237 23.5749 33.988 23.8387 34.1252 24.1168C34.2648 24.3949 34.3804 24.6843 34.4709 24.982C34.5631 25.2795 34.6242 25.5857 34.6531 25.8957C34.6847 26.2051 34.6777 26.5173 34.6324 26.825C34.6324 26.7475 34.6324 26.6711 34.6324 26.5937V26.4791L34.623 26.3634L34.6075 26.1342L34.5765 25.9071C34.5305 25.6045 34.4613 25.306 34.3695 25.014C34.2812 24.7208 34.175 24.4332 34.0517 24.1529C33.9896 24.0125 33.9244 23.8731 33.853 23.7399C33.7816 23.6067 33.7122 23.4622 33.6346 23.329ZM17.6888 28.512C17.785 28.5742 17.87 28.6521 17.9404 28.7423C18.0121 28.8314 18.0752 28.9272 18.1287 29.0283C18.2344 29.2308 18.2988 29.4523 18.3181 29.6798C18.2685 29.5765 18.226 29.4733 18.1794 29.37C18.1329 29.2668 18.0863 29.1697 18.0366 29.0716C17.9356 28.8763 17.8193 28.6892 17.6888 28.512V28.512ZM18.6204 30.7174C18.8056 30.8413 18.9795 30.9724 19.1586 31.0974C19.2466 31.1614 19.3366 31.2213 19.4267 31.2832L19.7041 31.4629C19.4852 31.4112 19.2792 31.3157 19.0986 31.182C19.0078 31.1168 18.9213 31.0458 18.8398 30.9693C18.7585 30.8928 18.685 30.8084 18.6204 30.7174V30.7174Z" fill="#63717C"/>
<path d="M48.0713 42.2409C47.9727 41.3311 47.6657 40.4561 47.1742 39.6834C46.6826 38.9107 46.0196 38.2611 45.2363 37.7847C45.4451 37.4553 45.682 37.1444 45.9443 36.8555C46.5094 36.2443 46.8282 35.9098 47.296 35.8715C48.033 35.8106 48.7327 36.5158 49.0494 37.1105C49.1777 37.3501 49.6373 38.3123 48.5754 41.0092C48.4222 41.4005 48.2586 41.8135 48.0713 42.2388V42.2409Z" fill="#FFCCD8"/>
<path d="M37.8721 42.2409C37.942 42.5672 38.0308 42.8892 38.1381 43.2052C38.242 43.5224 38.3657 43.8327 38.5086 44.1344C38.7943 44.7312 39.1555 45.3053 39.6616 45.7317C40.1623 46.1696 40.8129 46.3981 41.4781 46.3698C41.5609 46.3698 41.6427 46.3553 41.7255 46.3481C41.7659 46.3481 41.8083 46.3419 41.8487 46.3347L41.9708 46.3099C42.0515 46.2923 42.1343 46.2799 42.214 46.2582L42.4531 46.186C42.4925 46.1736 42.5328 46.1633 42.5722 46.1498L42.6891 46.1044L42.922 46.0136C43.0742 45.9454 43.2232 45.87 43.3754 45.7998C42.8034 46.1599 42.1553 46.3823 41.4823 46.4493C41.1413 46.4696 40.7996 46.4237 40.4762 46.314C40.1535 46.2021 39.8544 46.0312 39.5944 45.8102C39.3385 45.5875 39.1133 45.3319 38.9247 45.0503C38.7355 44.7713 38.5719 44.4759 38.4362 44.1675C38.1638 43.5529 37.9741 42.9051 37.8721 42.2409Z" fill="#63717C"/>
<path d="M18.6804 30.4428C19.0277 30.5521 19.3281 30.7746 19.5333 31.0747C19.6192 31.2037 19.6678 31.3297 19.7765 31.7065C19.9918 32.4458 20.0694 32.8485 20.0694 32.8485C20.2547 33.8148 20.351 34.3187 20.4348 35.1313C20.5921 36.68 20.4265 36.6717 20.5559 38.047C20.7039 39.6174 21.0092 40.56 21.1407 40.9379C21.6199 42.3101 22.1085 42.7829 22.4314 43.0266C22.6084 43.1608 23.3143 43.6926 23.7707 43.4396C24.1195 43.2465 24.1475 42.6931 24.1609 42.4443C24.1992 41.6895 23.8753 41.3199 23.6248 40.5734C23.394 39.8858 23.3898 39.3623 23.3815 38.3144C23.3722 37.1787 23.544 37.1188 23.5999 35.6909C23.6258 35.06 23.5999 34.5097 23.5513 33.407C23.4726 31.6394 23.366 31.2275 23.2346 30.8806C23.0504 30.3956 22.7874 29.9442 22.4562 29.5445" fill="#A8BED3"/>
<path d="M23.4085 31.5785C23.3598 31.3947 23.3112 31.212 23.247 31.0365C23.1813 30.8607 23.1067 30.6884 23.0234 30.5202C22.8569 30.1821 22.6674 29.8558 22.4562 29.5435C22.863 29.9531 23.1611 30.4573 23.3236 31.0106C23.3744 31.1959 23.4029 31.3865 23.4085 31.5785ZM18.6804 30.4428C18.9576 30.492 19.2117 30.6288 19.4049 30.8331C19.5036 30.9343 19.5835 31.052 19.6409 31.181C19.6914 31.3103 19.7262 31.4451 19.7444 31.5826C19.6854 31.4587 19.6337 31.3317 19.5716 31.2161C19.5415 31.1594 19.5069 31.1052 19.4681 31.054C19.4284 31.0015 19.3855 30.9515 19.3397 30.9043C19.1492 30.7126 18.9259 30.5563 18.6804 30.4428V30.4428Z" fill="#63717C"/>
<path d="M21.5289 41.9064C21.5289 41.9064 22.978 42.9471 24.0451 41.6307C24.137 41.8916 24.176 42.1682 24.16 42.4443C24.1476 42.6931 24.1196 43.2465 23.7708 43.4396C23.3144 43.6926 22.6085 43.1608 22.4315 43.0266C22.2038 42.8552 21.8943 42.5692 21.5631 41.9353" fill="#FFCCD8"/>
<path d="M22.3859 42.2615C22.5546 42.4835 22.7088 42.7096 22.8734 42.9285C22.9541 43.038 23.04 43.1433 23.1301 43.2455C23.2162 43.3507 23.3215 43.4387 23.4406 43.5046C23.3007 43.4726 23.1731 43.4009 23.0731 43.2981C22.9692 43.2042 22.8746 43.1005 22.7906 42.9884C22.6224 42.7661 22.4862 42.5214 22.3859 42.2615V42.2615ZM23.4571 42.1252C23.4809 42.3606 23.4944 42.5919 23.5275 42.818C23.5421 42.9304 23.5663 43.0413 23.6 43.1495C23.6296 43.2598 23.6886 43.3601 23.7707 43.4396C23.6582 43.3876 23.57 43.2944 23.5244 43.1794C23.4731 43.0694 23.4382 42.9526 23.4209 42.8325C23.4045 42.7145 23.399 42.5953 23.4043 42.4763C23.4095 42.3577 23.4272 42.2401 23.4571 42.1252V42.1252Z" fill="#63717C"/>
<path d="M29.4449 26.2406C28.5371 27.4353 27.6917 28.6759 26.9121 29.9575C26.6575 30.3798 26.3532 30.9012 26.3035 31.6332C26.2363 32.6399 26.7062 33.437 26.8635 33.6982C27.2061 34.265 27.3406 34.1711 28.4223 35.3987C29.1644 36.2401 29.3062 36.5179 29.3962 36.7595C29.5494 37.1642 29.5577 37.5617 29.567 38.3381C29.5815 39.4914 29.4697 39.7113 29.5184 40.7438C29.5442 41.2972 29.6053 41.8465 29.9324 42.3958C30.0618 42.6126 30.2698 42.9523 30.5658 42.9543C30.895 42.9543 31.1258 42.5413 31.1506 42.4928C31.3938 42.0385 31.1382 41.7422 31.1258 40.9379C31.1154 40.272 31.28 39.7516 31.4425 39.2374C31.6216 38.6696 31.7313 38.5901 31.929 38.0707C32.107 37.6061 32.4227 36.7822 32.3678 35.9087C32.284 34.5737 31.3949 34.075 31.7106 33.2852C31.8586 32.9145 32.1691 32.7369 32.3678 32.6048C33.0696 32.1391 33.9814 31.1758 34.8033 28.9612" fill="#A8BED3"/>
<path d="M33.4297 31.5868C33.5643 31.3803 33.6947 31.1676 33.8168 30.9528C33.9389 30.7381 34.0559 30.5223 34.1667 30.3013C34.2774 30.0804 34.385 29.8584 34.4906 29.6354L34.8011 28.9612C34.768 29.0809 34.7297 29.1986 34.6904 29.3174C34.651 29.4361 34.6065 29.5507 34.562 29.6674C34.472 29.8987 34.3685 30.1258 34.2567 30.3478C34.1444 30.5706 34.0193 30.7867 33.882 30.9952C33.7466 31.2036 33.5954 31.4014 33.4297 31.5868ZM29.4448 26.2406C28.8238 27.0779 28.2245 27.9318 27.6583 28.8073C27.5176 29.0262 27.3779 29.2461 27.2443 29.4671L27.0373 29.8006L26.9338 29.9678L26.8427 30.1413C26.7837 30.2569 26.7185 30.3695 26.6637 30.4851C26.6088 30.6007 26.5602 30.7184 26.5095 30.8382C26.4587 30.958 26.4267 31.0809 26.3904 31.2047C26.3542 31.3286 26.3314 31.4556 26.3056 31.5847C26.2929 31.3202 26.3319 31.0558 26.4204 30.8062C26.4614 30.6803 26.5137 30.5583 26.5767 30.4417C26.6386 30.3247 26.7078 30.2116 26.7837 30.1031L26.8935 29.942L26.997 29.7748L27.204 29.4433C27.342 29.2238 27.4838 29.0049 27.6294 28.7867C28.2035 27.9167 28.8086 27.068 29.4448 26.2406Z" fill="#63717C"/>
<path d="M31.223 41.7742C30.6868 42.1872 30.1165 42.0839 29.7046 41.9033C29.762 42.0761 29.8372 42.2426 29.9292 42.3999C30.0586 42.6167 30.2666 42.9564 30.5626 42.9585C30.8918 42.9585 31.1226 42.5455 31.1464 42.4969C31.2841 42.243 31.2665 42.0406 31.223 41.7742Z" fill="#FFCCD8"/>
<path d="M30.2914 42.0602C30.3018 42.2037 30.2977 42.3369 30.2997 42.4732C30.2997 42.5403 30.2997 42.6064 30.307 42.6735C30.3142 42.7406 30.3194 42.8067 30.3277 42.88C30.28 42.8244 30.2447 42.7593 30.2242 42.689C30.2056 42.6195 30.1952 42.5482 30.1931 42.4763C30.1934 42.4048 30.201 42.3335 30.2159 42.2636C30.2299 42.1922 30.2555 42.1235 30.2914 42.0602V42.0602ZM30.84 41.9869C30.8245 42.148 30.7996 42.2966 30.781 42.4526C30.7696 42.529 30.7634 42.6054 30.7551 42.6818C30.7469 42.7582 30.7438 42.8366 30.7334 42.9182C30.673 42.7665 30.6541 42.6015 30.6785 42.4402C30.689 42.3597 30.7073 42.2805 30.7334 42.2037C30.7584 42.1267 30.7943 42.0537 30.84 41.9869V41.9869Z" fill="#63717C"/>
<path d="M46.377 34.8649H44.6237V35.4844H46.377V34.8649Z" fill="#FDA01F"/>
<path d="M32.5499 31.3049C32.6508 31.1787 32.7451 31.0474 32.8325 30.9115C32.9215 30.7773 33.0074 30.641 33.085 30.4985C33.2431 30.2185 33.3854 29.93 33.5115 29.6343C33.5456 29.5621 33.5725 29.4857 33.6026 29.4113C33.6326 29.337 33.6626 29.2626 33.6874 29.1862L33.7692 28.9591L33.8416 28.7299C33.9389 28.4201 34.0104 28.1104 34.0849 27.7924C34.0663 27.9535 34.0476 28.1145 34.0217 28.2746C33.9959 28.4346 33.9617 28.5946 33.9182 28.7505C33.8393 29.0679 33.7355 29.3786 33.6077 29.6798C33.4801 29.9793 33.3281 30.268 33.1534 30.5429C32.9826 30.8194 32.7801 31.0752 32.5499 31.3049V31.3049Z" fill="#63717C"/>
<path d="M49.2026 25.9835C49.2596 26.254 49.2968 26.5256 49.3268 26.7981C49.3569 27.0707 49.3776 27.3423 49.3941 27.6159C49.4107 27.8895 49.4169 28.162 49.4158 28.4357C49.4174 28.7114 49.405 28.9871 49.3786 29.2616C49.3217 28.9911 49.2844 28.7196 49.2544 28.447C49.2244 28.1744 49.2037 27.9029 49.1871 27.6293C49.1705 27.3557 49.1643 27.0831 49.1664 26.8095C49.1645 26.5337 49.1766 26.2581 49.2026 25.9835V25.9835Z" fill="#439916"/>
<path d="M50.9322 27.5374C50.6611 27.5942 50.3888 27.6314 50.1156 27.6613C49.8423 27.6912 49.5701 27.7119 49.2958 27.7284C49.0216 27.7449 48.7483 27.7511 48.474 27.7501C48.1976 27.7517 47.9212 27.7393 47.646 27.7129C47.9172 27.6561 48.1894 27.619 48.4626 27.589C48.7359 27.5591 49.0081 27.5384 49.2824 27.5219C49.5567 27.5054 49.8299 27.4992 50.1042 27.5013C50.3807 27.4993 50.657 27.5114 50.9322 27.5374V27.5374ZM51.369 27.9948C51.4191 28.1742 51.4558 28.3571 51.4787 28.542C51.5036 28.7248 51.5222 28.9085 51.5315 29.0923C51.5408 29.2761 51.5439 29.4599 51.5388 29.6447C51.5357 29.8308 51.5187 30.0165 51.4881 30.2002C51.4377 30.0207 51.4006 29.8378 51.3773 29.6529C51.3525 29.4702 51.3338 29.2864 51.3245 29.1026C51.3152 28.9189 51.3131 28.7351 51.3183 28.5503C51.3214 28.3641 51.3383 28.1784 51.369 27.9948Z" fill="#439916"/>
<path d="M52.5333 29.0376C52.3535 29.0879 52.1701 29.1249 51.9848 29.148C51.8016 29.1728 51.6184 29.1904 51.4341 29.2007C51.2499 29.211 51.0646 29.2121 50.8794 29.2079C50.6927 29.2044 50.5066 29.1872 50.3225 29.1563C50.5024 29.1064 50.6858 29.0698 50.8711 29.0469C51.0543 29.0221 51.2385 29.0035 51.4228 28.9942C51.607 28.9849 51.7912 28.9829 51.9765 28.988C52.1631 28.9912 52.3492 29.0078 52.5333 29.0376V29.0376ZM20.8944 3.35574C20.9513 3.62625 20.9886 3.89779 21.0186 4.17037C21.0486 4.44294 21.0693 4.71552 21.0859 4.98809C21.1024 5.26066 21.1087 5.53427 21.1076 5.80788C21.1066 6.08148 21.0993 6.35612 21.0714 6.63386C21.0159 6.3646 20.9741 6.09271 20.9462 5.81923C20.9151 5.54769 20.8954 5.27512 20.8789 5.00254C20.8623 4.72997 20.8561 4.45636 20.8582 4.18172C20.8562 3.90596 20.8683 3.63028 20.8944 3.35574V3.35574Z" fill="#439916"/>
<path d="M22.6239 4.90551C22.3528 4.96229 22.0805 4.99946 21.8073 5.02941C21.534 5.05935 21.2618 5.08 20.9886 5.09652C20.7153 5.11304 20.441 5.11923 20.1605 5.1182C19.8801 5.11717 19.612 5.10994 19.3325 5.08206C19.6024 5.02667 19.875 4.98498 20.1492 4.95713C20.4224 4.92616 20.6957 4.90654 20.9689 4.89002C21.2422 4.8735 21.5164 4.86731 21.7907 4.86937C22.0689 4.86724 22.347 4.8793 22.6239 4.90551V4.90551ZM23.0607 5.3629C23.1108 5.54235 23.1474 5.72525 23.1704 5.91011C23.1953 6.09286 23.2139 6.27664 23.2232 6.46042C23.2325 6.6442 23.2356 6.82798 23.2305 7.01279C23.2274 7.19895 23.2104 7.38462 23.1797 7.56827C23.1294 7.38883 23.0923 7.20593 23.069 7.02105C23.0442 6.8383 23.0266 6.65452 23.0172 6.47074C23.0079 6.28696 23.0048 6.10318 23.01 5.91837C23.0131 5.73221 23.0301 5.54655 23.0607 5.3629Z" fill="#439916"/>
<path d="M24.2252 6.40672C24.0455 6.45626 23.8625 6.49283 23.6776 6.51616C23.4934 6.54094 23.3102 6.55849 23.126 6.56882C22.9417 6.57914 22.7565 6.58121 22.5722 6.57605C22.3856 6.57298 22.1995 6.55607 22.0154 6.52545C22.1947 6.4746 22.3778 6.43766 22.5629 6.41498C22.7461 6.3902 22.9303 6.37162 23.1146 6.36232C23.2988 6.35303 23.483 6.35097 23.6683 6.35613C23.8549 6.35919 24.0411 6.3761 24.2252 6.40672ZM3.74804 39.0846C3.80496 39.3551 3.84222 39.6267 3.87224 39.8992C3.90226 40.1718 3.92296 40.4433 3.93952 40.7159C3.95608 40.9885 3.96229 41.2621 3.96125 41.5367C3.96022 41.8114 3.95297 42.084 3.92503 42.3627C3.86958 42.0935 3.82778 41.8216 3.79979 41.5481C3.76874 41.2755 3.74907 41.0029 3.73251 40.7304C3.71595 40.4578 3.70974 40.1842 3.71181 39.9106C3.70985 39.6348 3.72194 39.3591 3.74804 39.0846V39.0846Z" fill="#439916"/>
<path d="M5.47752 40.6333C5.2076 40.6887 4.93503 40.7304 4.66088 40.7583C4.38866 40.7892 4.11541 40.8078 3.84217 40.8254C3.56892 40.8429 3.29463 40.8481 3.01931 40.846C2.74287 40.8479 2.4665 40.8359 2.19128 40.8099C2.46121 40.7545 2.73377 40.7128 3.00793 40.6849C3.28014 40.654 3.55443 40.6354 3.82767 40.6189C4.10092 40.6023 4.37521 40.5962 4.64949 40.5972C4.92378 40.5982 5.2022 40.6054 5.47752 40.6333ZM5.91638 41.0917C5.96653 41.2712 6.00321 41.4541 6.02609 41.639C6.05197 41.8217 6.06956 42.0045 6.07888 42.1882C6.08819 42.372 6.0913 42.5568 6.08612 42.7406C6.08305 42.9268 6.0661 43.1124 6.0354 43.2961C5.98492 43.117 5.9479 42.9345 5.92466 42.7499C5.89982 42.5672 5.88222 42.3834 5.8729 42.1996C5.86359 42.0158 5.86048 41.832 5.86566 41.6472C5.86873 41.4611 5.88568 41.2754 5.91638 41.0917V41.0917Z" fill="#439916"/>
<path d="M7.0787 42.1345C6.89908 42.1844 6.71609 42.2213 6.53116 42.245C6.34693 42.2698 6.16373 42.2873 5.97949 42.2966C5.79525 42.3059 5.60998 42.309 5.42575 42.3039C5.23913 42.3008 5.053 42.2839 4.8689 42.2533C5.04852 42.2034 5.2315 42.1665 5.41643 42.1428C5.60067 42.118 5.78387 42.1005 5.9681 42.0912C6.15234 42.0819 6.33658 42.0788 6.52185 42.0839C6.70846 42.087 6.89459 42.1039 7.0787 42.1345V42.1345Z" fill="#439916"/>
<path d="M42.2792 16.907C45.8434 16.907 48.7327 14.0248 48.7327 10.4695C48.7327 6.91418 45.8434 4.03201 42.2792 4.03201C38.7151 4.03201 35.8258 6.91418 35.8258 10.4695C35.8258 14.0248 38.7151 16.907 42.2792 16.907Z" stroke="#008EF8" stroke-linecap="round" stroke-linejoin="round"/>
<path d="M42.2793 16.0449C45.3661 16.0449 47.8684 13.5487 47.8684 10.4695C47.8684 7.39031 45.3661 4.89413 42.2793 4.89413C39.1924 4.89413 36.6901 7.39031 36.6901 10.4695C36.6901 13.5487 39.1924 16.0449 42.2793 16.0449Z" fill="#C1E3F7"/>
<path d="M42.2793 4.89621C42.3162 5.01764 42.3337 5.14413 42.331 5.271C42.3338 5.39753 42.3163 5.5237 42.2793 5.64476C42.2103 5.39999 42.2103 5.14098 42.2793 4.89621V4.89621ZM42.2793 15.2953C42.3483 15.5401 42.3483 15.7991 42.2793 16.0439C42.2103 15.7991 42.2103 15.5401 42.2793 15.2953V15.2953ZM47.8674 10.4706C47.622 10.5394 47.3624 10.5394 47.117 10.4706C47.3624 10.4017 47.622 10.4017 47.8674 10.4706V10.4706ZM37.4425 10.4706C37.1972 10.5394 36.9375 10.5394 36.6921 10.4706C36.9375 10.4017 37.1972 10.4017 37.4425 10.4706V10.4706ZM46.999 13.4554C46.8766 13.4206 46.7601 13.3677 46.6533 13.2985C46.5449 13.2324 46.4474 13.1499 46.3645 13.0538C46.609 13.1269 46.8286 13.2659 46.999 13.4554V13.4554ZM38.195 7.88626C38.0729 7.85139 37.9567 7.79849 37.8503 7.72933C37.7414 7.66354 37.6436 7.58095 37.5605 7.48463C37.805 7.55777 38.0246 7.69674 38.195 7.88626V7.88626ZM45.1732 15.2385C45.0795 15.1533 44.9993 15.0545 44.9352 14.9453C44.867 14.838 44.8164 14.7205 44.7851 14.5974C44.9706 14.7718 45.1048 14.9935 45.1732 15.2385V15.2385ZM39.7745 6.34271C39.6808 6.25749 39.6005 6.15863 39.5364 6.04949C39.4684 5.94193 39.4175 5.82457 39.3853 5.70154C39.4799 5.78661 39.5605 5.88589 39.6244 5.9958C39.6919 6.1031 39.7425 6.2201 39.7745 6.34271ZM39.287 15.1776C39.3219 15.0558 39.375 14.9399 39.4443 14.8338C39.5102 14.7251 39.593 14.6275 39.6896 14.5447C39.6163 14.7886 39.477 15.0076 39.287 15.1776V15.1776ZM44.87 6.39537C44.9049 6.2752 44.958 6.16103 45.0273 6.05671C45.0935 5.94822 45.1763 5.85069 45.2726 5.76762C45.2 6.01182 45.0605 6.231 44.87 6.40053V6.39537ZM37.4995 13.3574C37.5853 13.2632 37.6851 13.1827 37.7955 13.1189C37.9035 13.0517 38.0211 13.0013 38.1443 12.9691C37.9691 13.1541 37.747 13.2882 37.5015 13.3574H37.4995ZM46.4173 7.97093C46.5028 7.87745 46.6019 7.79739 46.7113 7.73346C46.8189 7.66549 46.9366 7.61496 47.0601 7.58375C46.9745 7.67749 46.875 7.75758 46.7651 7.82122C46.6579 7.88935 46.5405 7.93989 46.4173 7.97093V7.97093ZM42.1902 10.5211L40.559 7.48463L42.3693 10.4179C42.3772 10.4294 42.3826 10.4424 42.3853 10.4561C42.3879 10.4698 42.3878 10.4838 42.3849 10.4975C42.382 10.5111 42.3763 10.524 42.3683 10.5354C42.3602 10.5468 42.35 10.5564 42.3381 10.5637C42.3262 10.5711 42.3129 10.5759 42.2991 10.578C42.2853 10.5801 42.2712 10.5793 42.2577 10.5758C42.2442 10.5723 42.2315 10.5662 42.2204 10.5576C42.2094 10.5491 42.2002 10.5385 42.1933 10.5263L42.1902 10.5211Z" fill="#0850EC"/>
<path d="M42.2358 10.3756L44.7468 9.3049L42.3237 10.5625C42.3116 10.5699 42.2981 10.5747 42.284 10.5767C42.27 10.5787 42.2556 10.5778 42.2419 10.574C42.2282 10.5702 42.2154 10.5637 42.2044 10.5547C42.1933 10.5458 42.1842 10.5347 42.1777 10.5221C42.1711 10.5095 42.1672 10.4957 42.1663 10.4816C42.1653 10.4674 42.1672 10.4532 42.172 10.4399C42.1768 10.4265 42.1843 10.4143 42.194 10.4039C42.2037 10.3936 42.2155 10.3853 42.2285 10.3797L42.2358 10.3756Z" fill="#0850EC"/>
<path d="M42.2793 10.8557C42.4931 10.8557 42.6664 10.6828 42.6664 10.4695C42.6664 10.2563 42.4931 10.0834 42.2793 10.0834C42.0655 10.0834 41.8922 10.2563 41.8922 10.4695C41.8922 10.6828 42.0655 10.8557 42.2793 10.8557Z" fill="#0850EC"/>
<path d="M1 52.4954H54" stroke="#545454" stroke-linecap="round" stroke-linejoin="round"/>
</svg>
